<svg width="2368" height="1157" xmlns="http://www.w3.org/2000/svg" xmlns:xlink="http://www.w3.org/1999/xlink" xml:space="preserve" overflow="hidden"><defs><clipPath id="clip0"><rect x="202" y="447" width="2368" height="1157"/></clipPath></defs><g clip-path="url(#clip0)" transform="translate(-202 -447)"><rect x="202" y="447" width="2368" height="1157" fill="#FFFFFF"/><path d="M0 0 0.000360892 955.625" stroke="#000000" stroke-width="4.58333" stroke-miterlimit="8" fill="none" fill-rule="evenodd" transform="matrix(1 0 0 -1 2129.5 1527.13)"/><path d="M0 0 0.000360892 955.625" stroke="#000000" stroke-width="4.58333" stroke-miterlimit="8" fill="none" fill-rule="evenodd" transform="matrix(1 0 0 -1 1191.5 1527.13)"/><path d="M0 0 0.000360892 955.625" stroke="#000000" stroke-width="4.58333" stroke-miterlimit="8" fill="none" fill-rule="evenodd" transform="matrix(1 0 0 -1 602.5 1527.13)"/><path d="M1391.5 1155.5 1699.5 1155.5 1699.5 1524.5" stroke="#000000" stroke-width="4.58333" stroke-linecap="round" stroke-linejoin="round" stroke-miterlimit="10" fill="none" fill-rule="evenodd"/><path d="M1391.5 1086.5 1891.5 1086.5 1891.5 1522.5" stroke="#000000" stroke-width="4.58333" stroke-linecap="round" stroke-linejoin="round" stroke-miterlimit="10" fill="none" fill-rule="evenodd"/><path d="M1386.5 1219.5 1503.5 1219.5 1503.5 1522.5" stroke="#000000" stroke-width="4.58333" stroke-linecap="round" stroke-linejoin="round" stroke-miterlimit="10" fill="none" fill-rule="evenodd"/><path d="M0 0 567.969 0.000360892" stroke="#000000" stroke-width="4.58333" stroke-miterlimit="8" fill="none" fill-rule="evenodd" transform="matrix(-1 0 0 1 1943.47 795.5)"/><path d="M0 0 567.969 0.000360892" stroke="#000000" stroke-width="4.58333" stroke-miterlimit="8" fill="none" fill-rule="evenodd" transform="matrix(-1 0 0 1 1943.47 864.5)"/><path d="M2101.5 550.5 2129 513.5 2156.5 550.5" stroke="#000000" stroke-width="4.58333" stroke-linecap="round" stroke-linejoin="round" stroke-miterlimit="10" fill="none" fill-rule="evenodd"/><path d="M2129.5 513.5 2129.5 579.425" stroke="#000000" stroke-width="4.58333" stroke-linecap="round" stroke-linejoin="round" stroke-miterlimit="10" fill="none" fill-rule="evenodd"/><path d="M2155.5 1512.5 2128 1546.5 2100.5 1512.5Z" stroke="#000000" stroke-width="4.58333" stroke-miterlimit="8" fill="#FFFFFF" fill-rule="evenodd"/><path d="M1163.5 550.5 1191 513.5 1218.5 550.5" stroke="#000000" stroke-width="4.58333" stroke-linecap="round" stroke-linejoin="round" stroke-miterlimit="10" fill="none" fill-rule="evenodd"/><path d="M1191.5 513.5 1191.5 579.425" stroke="#000000" stroke-width="4.58333" stroke-linecap="round" stroke-linejoin="round" stroke-miterlimit="10" fill="none" fill-rule="evenodd"/><path d="M1217.5 1512.5 1190 1546.5 1162.5 1512.5Z" stroke="#000000" stroke-width="4.58333" stroke-miterlimit="8" fill="#FFFFFF" fill-rule="evenodd"/><path d="M602.5 989.208 1039.89 989.209 1039.89 993.792 602.5 993.792ZM602.5 1005.25C594.906 1005.25 588.75 999.094 588.75 991.5 588.75 983.906 594.906 977.75 602.5 977.75 610.094 977.75 616.25 983.906 616.25 991.5 616.25 999.094 610.094 1005.25 602.5 1005.25Z"/><path d="M723.792 991.5 723.792 1519.84 719.209 1519.84 719.208 991.5ZM707.75 991.5C707.75 983.906 713.906 977.75 721.5 977.75 729.094 977.75 735.25 983.906 735.25 991.5 735.25 999.094 729.094 1005.25 721.5 1005.25 713.906 1005.25 707.75 999.094 707.75 991.5Z"/><path d="M747.5 1512.5 720 1546.5 692.5 1512.5Z" stroke="#000000" stroke-width="4.58333" stroke-miterlimit="8" fill="#FFFFFF" fill-rule="evenodd"/><path d="M575.5 550.5 602.5 513.5 629.5 550.5" stroke="#000000" stroke-width="4.58333" stroke-linecap="round" stroke-linejoin="round" stroke-miterlimit="10" fill="none" fill-rule="evenodd"/><path d="M602.5 513.5 602.5 579.425" stroke="#000000" stroke-width="4.58333" stroke-linecap="round" stroke-linejoin="round" stroke-miterlimit="10" fill="none" fill-rule="evenodd"/><path d="M628.5 1512.5 601 1546.5 573.5 1512.5Z" stroke="#000000" stroke-width="4.58333" stroke-miterlimit="8" fill="#FFFFFF" fill-rule="evenodd"/><rect x="971.5" y="657.5" width="438" height="675" stroke="#000000" stroke-width="4.58333" stroke-linecap="round" stroke-linejoin="round" stroke-miterlimit="10" fill="#F2F2F2"/><text font-family="Arial,Arial_MSFontService,sans-serif" font-weight="400" font-size="41" transform="matrix(1 0 0 1 990.298 1002)">GPIO28 (ADC2)</text><rect x="533" y="783" width="93.9998" height="85.9999" fill="#FFFFFF"/><path d="M0 0 0.000360892 91.121" stroke="#000000" stroke-width="9.16667" stroke-miterlimit="8" fill="none" fill-rule="evenodd" transform="matrix(1 0 0 -1 533.5 869.621)"/><path d="M535.779 822.598 584.477 855.344 581.919 859.148 533.221 826.402ZM587.067 843.278 602.215 870.034 571.722 866.099Z"/><path d="M0 0 67.715 45.5334" stroke="#000000" stroke-width="4.58333" stroke-miterlimit="8" fill="none" fill-rule="evenodd" transform="matrix(-1 0 0 1 602.215 779.5)"/><path d="M461.196 795.316 492.027 805.14 490.636 809.507 459.804 799.684ZM491.139 792.831 513.167 814.28 482.791 819.033Z"/><path d="M461.196 825.316 492.027 835.14 490.636 839.507 459.804 829.683ZM491.139 822.831 513.167 844.28 482.791 849.033Z"/><rect x="584.5" y="1208.5" width="34.0001" height="74.9999" stroke="#000000" stroke-width="4.58333" stroke-linecap="round" stroke-linejoin="round" stroke-miterlimit="10" fill="#FFFFFF"/><rect x="688" y="1228" width="66" height="34" fill="#FFFFFF"/><path d="M688.5 1262.5 754.521 1262.5" stroke="#000000" stroke-width="4.58333" stroke-miterlimit="8" fill="none" fill-rule="evenodd"/><path d="M688.5 1228.5 754.521 1228.5" stroke="#000000" stroke-width="4.58333" stroke-miterlimit="8" fill="none" fill-rule="evenodd"/><text font-family="Arial,Arial_MSFontService,sans-serif" font-weight="400" font-size="41" transform="matrix(1 0 0 1 824.989 1234)">C1</text><text font-family="Arial,Arial_MSFontService,sans-serif" font-weight="400" font-size="41" transform="matrix(1 0 0 1 768.568 1284)">0.47</text><text font-family="Arial,Arial_MSFontService,sans-serif" font-weight="400" font-size="41" transform="matrix(1 0 0 1 848.776 1284)">-</text><text font-family="Arial,Arial_MSFontService,sans-serif" font-weight="400" font-size="41" transform="matrix(1 0 0 1 862.526 1284)">1μF</text><text font-family="Arial,Arial_MSFontService,sans-serif" font-weight="400" font-size="41" transform="matrix(1 0 0 1 485.539 1234)">R1</text><text font-family="Arial,Arial_MSFontService,sans-serif" font-weight="400" font-size="41" transform="matrix(1 0 0 1 463.195 1284)">10kΩ</text><text font-family="Arial,Arial_MSFontService,sans-serif" font-weight="400" font-size="41" transform="matrix(1 0 0 1 457.772 703)">Q1</text><text font-family="Arial,Arial_MSFontService,sans-serif" font-weight="400" font-size="41" transform="matrix(1 0 0 1 391.313 753)">NJL7502L</text><rect x="1932.5" y="658.5" width="394" height="353" stroke="#000000" stroke-width="4.58333" stroke-linecap="round" stroke-linejoin="round" stroke-miterlimit="10" fill="#F2F2F2"/><text font-family="Arial,Arial_MSFontService,sans-serif" font-weight="400" font-size="41" transform="matrix(1 0 0 1 1113.75 808)">GPIO18 (SDA)</text><text font-family="Arial,Arial_MSFontService,sans-serif" font-weight="400" font-size="41" transform="matrix(1 0 0 1 1118.33 875)">GPIO19 (SCL)</text><text font-family="Arial,Arial_MSFontService,sans-serif" font-weight="400" font-size="41" transform="matrix(1 0 0 1 1949.22 808)">SDA</text><text font-family="Arial,Arial_MSFontService,sans-serif" font-weight="400" font-size="41" transform="matrix(1 0 0 1 1949.22 875)">SCL</text><text font-family="Arial,Arial_MSFontService,sans-serif" font-weight="400" font-size="41" transform="matrix(1 0 0 1 1111.18 704)">3V3OUT</text><text font-family="Arial,Arial_MSFontService,sans-serif" font-weight="400" font-size="41" transform="matrix(1 0 0 1 1145.56 1313)">GND</text><text font-family="Arial,Arial_MSFontService,sans-serif" font-weight="400" font-size="41" transform="matrix(1 0 0 1 2080.38 995)">GND</text><text font-family="Arial,Arial_MSFontService,sans-serif" font-weight="400" font-size="41" transform="matrix(1 0 0 1 2082.67 712)">VCC</text><path d="M0 43 25.4999 0 50.9999 43Z" fill-rule="evenodd" transform="matrix(1 -1.22465e-16 -1.22465e-16 -1 1478 1440)"/><path d="M1530.79 1439.5 1477.5 1439.5" stroke="#000000" stroke-width="9.16667" stroke-miterlimit="8" fill="none" fill-rule="evenodd"/><path d="M1.27876-1.90171 21.7475 11.862 19.19 15.6654-1.27876 1.90171ZM21.7804 3.59936 31.8791 21.4363 11.5503 18.8131Z" transform="matrix(-1 0 0 1 1466.38 1407.5)"/><path d="M1.27876-1.90171 21.7475 11.862 19.19 15.6654-1.27876 1.90171ZM21.7804 3.59936 31.8791 21.4363 11.5503 18.8131Z" transform="matrix(-1 0 0 1 1466.38 1430.5)"/><rect x="1686" y="1311" width="23" height="92.9998" fill="#FFFFFF"/><path d="M0 15.0001C-1.90972e-15 6.71579 6.71579-1.90972e-15 15.0001-3.81943e-15 23.2845-7.63887e-15 30.0003 6.71579 30.0003 15.0001 30.0003 23.2845 23.2845 30.0003 15.0001 30.0003 6.71579 30.0003-9.54858e-15 23.2845 0 15.0001Z" stroke="#000000" stroke-width="4.58333" stroke-miterlimit="8" fill="#FFFFFF" fill-rule="evenodd" transform="matrix(-1 0 0 1 1713.5 1311.5)"/><path d="M0 15C-1.90972e-15 6.71571 6.71579-1.90969e-15 15.0001-3.81939e-15 23.2845-7.63878e-15 30.0003 6.71571 30.0003 15 30.0003 23.2842 23.2845 29.9999 15.0001 29.9999 6.71579 29.9999-9.54858e-15 23.2842 0 15Z" stroke="#000000" stroke-width="4.58333" stroke-miterlimit="8" fill="#FFFFFF" fill-rule="evenodd" transform="matrix(-1 0 0 1 1713.5 1378.5)"/><path d="M1731.5 1406.59 1731.5 1315.5" stroke="#000000" stroke-width="4.58333" stroke-miterlimit="8" fill="none" fill-rule="evenodd"/><path d="M0 0 23.489 0.000360892" stroke="#000000" stroke-width="13.75" stroke-miterlimit="8" fill="none" fill-rule="evenodd" transform="matrix(-1 0 0 1 1752.49 1360)"/><path d="M1530.5 1512.5 1503 1546.5 1475.5 1512.5Z" stroke="#000000" stroke-width="4.58333" stroke-miterlimit="8" fill="#FFFFFF" fill-rule="evenodd"/><rect x="1879" y="1311" width="23" height="92.9998" fill="#FFFFFF"/><path d="M0 15.0001C-1.90969e-15 6.71579 6.71571-1.90972e-15 15-3.81943e-15 23.2842-7.63887e-15 29.9999 6.71579 29.9999 15.0001 29.9999 23.2845 23.2842 30.0003 15 30.0003 6.71571 30.0003-9.54847e-15 23.2845 0 15.0001Z" stroke="#000000" stroke-width="4.58333" stroke-miterlimit="8" fill="#FFFFFF" fill-rule="evenodd" transform="matrix(-1 0 0 1 1906.5 1311.5)"/><path d="M0 15C-1.90969e-15 6.71571 6.71571-1.90969e-15 15-3.81939e-15 23.2842-7.63878e-15 29.9999 6.71571 29.9999 15 29.9999 23.2842 23.2842 29.9999 15 29.9999 6.71571 29.9999-9.54847e-15 23.2842 0 15Z" stroke="#000000" stroke-width="4.58333" stroke-miterlimit="8" fill="#FFFFFF" fill-rule="evenodd" transform="matrix(-1 0 0 1 1906.5 1378.5)"/><path d="M1924.5 1406.59 1924.5 1315.5" stroke="#000000" stroke-width="4.58333" stroke-miterlimit="8" fill="none" fill-rule="evenodd"/><path d="M0 0 23.489 0.000360892" stroke="#000000" stroke-width="13.75" stroke-miterlimit="8" fill="none" fill-rule="evenodd" transform="matrix(-1 0 0 1 1946.49 1360)"/><path d="M1726.5 1512.5 1699 1546.5 1671.5 1512.5Z" stroke="#000000" stroke-width="4.58333" stroke-miterlimit="8" fill="#FFFFFF" fill-rule="evenodd"/><path d="M1917.5 1512.5 1890 1546.5 1862.5 1512.5Z" stroke="#000000" stroke-width="4.58333" stroke-miterlimit="8" fill="#FFFFFF" fill-rule="evenodd"/><rect x="1486.5" y="1262.5" width="34" height="74.9999" stroke="#000000" stroke-width="4.58333" stroke-linecap="round" stroke-linejoin="round" stroke-miterlimit="10" fill="#FFFFFF"/><text font-family="Arial,Arial_MSFontService,sans-serif" font-weight="400" font-size="41" transform="matrix(1 0 0 1 1551.06 1289)">R2</text><text font-family="Arial,Arial_MSFontService,sans-serif" font-weight="400" font-size="41" transform="matrix(1 0 0 1 1540.18 1339)">1kΩ</text><text font-family="Arial,Arial_MSFontService,sans-serif" font-weight="400" font-size="41" transform="matrix(1 0 0 1 1545.29 1436)">D</text><text font-family="Arial,Arial_MSFontService,sans-serif" font-weight="400" font-size="41" transform="matrix(1 0 0 1 1575.09 1436)">1</text><text font-family="Arial,Arial_MSFontService,sans-serif" font-weight="400" font-size="41" transform="matrix(1 0 0 1 1237.65 1169)">GPIO21</text><text font-family="Arial,Arial_MSFontService,sans-serif" font-weight="400" font-size="41" transform="matrix(1 0 0 1 1237.65 1234)">GPIO22</text><text font-family="Arial,Arial_MSFontService,sans-serif" font-weight="400" font-size="41" transform="matrix(1 0 0 1 1237.65 1103)">GPIO20</text><text font-family="Arial,Arial_MSFontService,sans-serif" font-weight="400" font-size="41" transform="matrix(1 0 0 1 1912.97 1241)">SW1</text><text font-family="Arial,Arial_MSFontService,sans-serif" font-weight="400" font-size="41" transform="matrix(1 0 0 1 1906.1 1291)">Mode</text><text font-family="Arial,Arial_MSFontService,sans-serif" font-weight="400" font-size="41" transform="matrix(1 0 0 1 1733.51 1241)">SW2</text><text font-family="Arial,Arial_MSFontService,sans-serif" font-weight="400" font-size="41" transform="matrix(1 0 0 1 1711.74 1291)">Restart</text><text font-family="Arial,Arial_MSFontService,sans-serif" font-weight="400" font-size="41" transform="matrix(1 0 0 1 1214.27 632)">Raspberry Pi Pico</text><text font-family="Arial,Arial_MSFontService,sans-serif" font-weight="400" font-size="41" transform="matrix(1 0 0 1 2149.4 632)">SSD1306</text></g></svg>