<svg width="982" height="983" xmlns="http://www.w3.org/2000/svg" xmlns:xlink="http://www.w3.org/1999/xlink" xml:space="preserve" overflow="hidden"><defs><clipPath id="clip0"><rect x="1604" y="279" width="982" height="983"/></clipPath></defs><g clip-path="url(#clip0)" transform="translate(-1604 -279)"><path d="M2152.75 279C2392.03 279 2586 472.913 2586 712.117 2586 891.52 2476.89 1045.45 2321.39 1111.2L2299.16 1118.1 2300.87 1119.82 1879.47 1262 1830.98 1213.53 1828.94 1214.64C1811.91 1221.83 1793.2 1225.82 1773.55 1225.82 1694.96 1225.82 1631.25 1162.13 1631.25 1083.56 1631.25 1063.92 1635.23 1045.21 1642.43 1028.19L1643.54 1026.15 1604 986.613 1746.23 565.335 1746.65 565.758 1753.55 543.529C1819.32 388.076 1973.3 279 2152.75 279Z" fill="#FFFFFF" fill-rule="evenodd"/><path d="M2150.73 321C2365.17 321 2539 494.604 2539 708.755 2539 869.369 2441.22 1007.17 2301.86 1066.04L2282.63 1072 1787 577.028 1792.97 557.823C1851.91 418.652 1989.9 321 2150.73 321Z" fill="#FFC000" fill-rule="evenodd"/><path d="M1678.71 1058 1803 1182.29 1794.39 1184.96C1787.86 1186.3 1781.11 1187 1774.19 1187 1718.86 1187 1674 1142.14 1674 1086.81 1674 1079.89 1674.7 1073.13 1676.04 1066.61Z" fill-rule="evenodd"/><path d="M2052.64 486.5 2088.5 486.5 2088.5 535.561 2052.65 535.561 2052.65 535.562 2052.64 535.561C2040.31 535.561 2030.31 545.497 2030.31 557.754L2030.31 557.755 2030.31 557.755 2030.31 629.011 2028.85 643.369C2027.18 651.486 2024.12 659.101 2019.93 665.956L2011.61 675.5 2019.93 685.044C2024.12 691.9 2027.18 699.514 2028.85 707.632L2030.31 721.989 2030.31 793.245 2030.31 793.245 2030.31 793.246C2030.31 805.503 2040.31 815.439 2052.64 815.439L2052.65 815.438 2052.65 815.439 2088.5 815.439 2088.5 864.5 2075.36 864.5 1980.93 770.668 1980.93 722.003 1980.93 721.992C1980.93 712.799 1975.31 704.912 1967.29 701.543L1959.83 700.046 1958.6 700.263 1924.5 700.263 1924.5 699.799 1924.5 651.201 1924.5 650.738 1958.6 650.738 1959.83 650.954 1967.29 649.457C1975.31 646.088 1980.93 638.201 1980.93 629.008L1980.93 628.998 1980.93 561.632 1980.93 561.633 1980.93 557.755 1980.93 557.755 1980.93 557.754C1980.93 518.402 2013.04 486.5 2052.64 486.5Z" stroke="#000000" stroke-width="4.58333" stroke-linecap="round" stroke-linejoin="round" stroke-miterlimit="10" fill-rule="evenodd"/><path d="M127.362 0 163 0 163 49.0614 127.366 49.0614 127.366 49.0624 127.362 49.0614C115.101 49.0614 105.162 58.9975 105.162 71.2542L105.163 71.2552 105.162 71.2552 105.162 142.511 103.714 156.869C102.053 164.986 99.0106 172.601 94.8438 179.456L86.5788 189 94.8438 198.544C99.0106 205.4 102.053 213.014 103.714 221.131L105.162 235.489 105.162 306.745 105.163 306.745 105.162 306.746C105.162 319.003 115.101 328.939 127.362 328.939L127.366 328.938 127.366 328.939 163 328.939 163 378 127.362 378C87.9976 378 56.087 346.099 56.087 306.746L56.0872 306.745 56.087 306.745 56.087 302.867 56.0848 302.868 56.0848 235.502 56.087 235.492C56.087 226.299 50.4965 218.412 42.5286 215.043L35.114 213.546 33.8878 213.763 0 213.763 0 213.299 0 164.701 0 164.237 33.8878 164.237 35.114 164.454 42.5286 162.957C50.4965 159.588 56.087 151.701 56.087 142.508L56.0848 142.498 56.0848 75.1324 56.087 75.1331 56.087 71.2554 56.0872 71.2554 56.087 71.2542C56.087 31.9015 87.9976 0 127.362 0Z" stroke="#000000" stroke-width="4.58333" stroke-linecap="round" stroke-linejoin="round" stroke-miterlimit="10" fill-rule="evenodd" transform="matrix(-1 0 0 1 2406.5 486.5)"/><path d="M1767.94 630 2234 1096.86 1893.44 1212 1653 971.147Z" fill="#BFBFBF" fill-rule="evenodd"/></g></svg>