<svg width="2368" height="984" xmlns="http://www.w3.org/2000/svg" xmlns:xlink="http://www.w3.org/1999/xlink" xml:space="preserve" overflow="hidden"><defs><clipPath id="clip0"><rect x="234" y="17" width="2368" height="984"/></clipPath></defs><g clip-path="url(#clip0)" transform="translate(-234 -17)"><rect x="234" y="16.9998" width="2368" height="984" fill="#FFFFFF"/><path d="M1215.5 528.208 1603.17 528.209 1603.17 532.792 1215.5 532.792ZM1215.5 544.25C1207.91 544.25 1201.75 538.094 1201.75 530.5 1201.75 522.906 1207.91 516.75 1215.5 516.75 1223.09 516.75 1229.25 522.906 1229.25 530.5 1229.25 538.094 1223.09 544.25 1215.5 544.25Z"/><path d="M1337.79 530.5 1337.79 890.292 1333.21 890.292 1333.21 530.5ZM1321.75 530.5C1321.75 522.906 1327.91 516.75 1335.5 516.75 1343.09 516.75 1349.25 522.906 1349.25 530.5 1349.25 538.094 1343.09 544.25 1335.5 544.25 1327.91 544.25 1321.75 538.094 1321.75 530.5Z"/><path d="M1361.5 888.5 1334 923.5 1306.5 888.5Z" stroke="#000000" stroke-width="4.58333" stroke-miterlimit="8" fill="#FFFFFF" fill-rule="evenodd"/><path d="M0 0 0.000360892 730.282" stroke="#000000" stroke-width="4.58333" stroke-miterlimit="8" fill="none" fill-rule="evenodd" transform="matrix(1 0 0 -1 1216.5 890.782)"/><path d="M1189.5 134.5 1216.5 98.5002 1243.5 134.5" stroke="#000000" stroke-width="4.58333" stroke-linecap="round" stroke-linejoin="round" stroke-miterlimit="10" fill="none" fill-rule="evenodd"/><path d="M1216.5 97.5001 1216.5 163.425" stroke="#000000" stroke-width="4.58333" stroke-linecap="round" stroke-linejoin="round" stroke-miterlimit="10" fill="none" fill-rule="evenodd"/><path d="M1242.5 888.5 1215 923.5 1187.5 888.5Z" stroke="#000000" stroke-width="4.58333" stroke-miterlimit="8" fill="#FFFFFF" fill-rule="evenodd"/><rect x="1534.5" y="267.5" width="304" height="542" stroke="#000000" stroke-width="4.58333" stroke-linecap="round" stroke-linejoin="round" stroke-miterlimit="10" fill="#F2F2F2"/><text font-family="Arial,Arial_MSFontService,sans-serif" font-weight="400" font-size="41" transform="matrix(1 0 0 1 1639.16 307)">MC</text><text font-family="Arial,Arial_MSFontService,sans-serif" font-weight="400" font-size="41" transform="matrix(1 0 0 1 1703.32 307)">U</text><text font-family="Arial,Arial_MSFontService,sans-serif" font-weight="400" font-size="41" transform="matrix(1 0 0 1 1554.05 542)">ADC Input</text><rect x="1147" y="322" width="93.9999" height="87" fill="#FFFFFF"/><path d="M0 0 0.000360892 91.121" stroke="#000000" stroke-width="9.16667" stroke-miterlimit="8" fill="none" fill-rule="evenodd" transform="matrix(1 0 0 -1 1147.5 409.621)"/><path d="M1150.78 362.598 1199.48 395.344 1196.92 399.147 1148.22 366.402ZM1202.07 383.278 1217.21 410.033 1186.72 406.098Z"/><path d="M0 0 67.715 45.5334" stroke="#000000" stroke-width="4.58333" stroke-miterlimit="8" fill="none" fill-rule="evenodd" transform="matrix(-1 0 0 1 1217.21 318.5)"/><path d="M1076.2 334.317 1107.03 344.14 1105.64 348.507 1074.8 338.684ZM1106.14 331.831 1128.17 353.28 1097.79 358.033Z"/><path d="M1076.2 364.316 1107.03 374.14 1105.64 378.507 1074.8 368.683ZM1106.14 361.831 1128.17 383.28 1097.79 388.033Z"/><rect x="1198.5" y="658.5" width="33.9996" height="74.9999" stroke="#000000" stroke-width="4.58333" stroke-linecap="round" stroke-linejoin="round" stroke-miterlimit="10" fill="#FFFFFF"/><rect x="1302" y="679" width="66" height="34.0001" fill="#FFFFFF"/><path d="M1302.5 713.5 1368.52 713.5" stroke="#000000" stroke-width="4.58333" stroke-miterlimit="8" fill="none" fill-rule="evenodd"/><path d="M1302.5 679.5 1368.52 679.5" stroke="#000000" stroke-width="4.58333" stroke-miterlimit="8" fill="none" fill-rule="evenodd"/><text font-family="Arial,Arial_MSFontService,sans-serif" font-weight="400" font-size="41" transform="matrix(1 0 0 1 1412.24 685)">C1</text><text font-family="Arial,Arial_MSFontService,sans-serif" font-weight="400" font-size="41" transform="matrix(1 0 0 1 1380.16 735)">470nF</text><text font-family="Arial,Arial_MSFontService,sans-serif" font-weight="400" font-size="41" transform="matrix(1 0 0 1 1099.71 685)">R1</text><text font-family="Arial,Arial_MSFontService,sans-serif" font-weight="400" font-size="41" transform="matrix(1 0 0 1 1077.36 735)">10kΩ</text><text font-family="Arial,Arial_MSFontService,sans-serif" font-weight="400" font-size="41" transform="matrix(1 0 0 1 1071.94 228)">Q1</text><text font-family="Arial,Arial_MSFontService,sans-serif" font-weight="400" font-size="41" transform="matrix(1 0 0 1 1005.48 278)">NJL7502L</text></g></svg>