<svg width="2196" height="1012" xmlns="http://www.w3.org/2000/svg" xmlns:xlink="http://www.w3.org/1999/xlink" xml:space="preserve" overflow="hidden"><defs><clipPath id="clip0"><rect x="73" y="58" width="2196" height="1012"/></clipPath></defs><g clip-path="url(#clip0)" transform="translate(-73 -58)"><rect x="72.9999" y="58.0001" width="2196" height="1012" fill="#FFFFFF"/><path d="M875.5 590.208 1331.92 590.209 1331.92 594.792 875.5 594.792ZM875.5 606.25C867.906 606.25 861.75 600.094 861.75 592.5 861.75 584.906 867.906 578.75 875.5 578.75 883.094 578.75 889.25 584.906 889.25 592.5 889.25 600.094 883.094 606.25 875.5 606.25Z"/><path d="M1194.79 592.5 1194.79 952.292 1190.21 952.292 1190.21 592.5ZM1178.75 592.5C1178.75 584.906 1184.91 578.75 1192.5 578.75 1200.09 578.75 1206.25 584.906 1206.25 592.5 1206.25 600.094 1200.09 606.25 1192.5 606.25 1184.91 606.25 1178.75 600.094 1178.75 592.5Z"/><path d="M1218.5 950.5 1191 985.5 1163.5 950.5Z" stroke="#000000" stroke-width="4.58333" stroke-miterlimit="8" fill="#FFFFFF" fill-rule="evenodd"/><path d="M0 0 0.000360892 730.282" stroke="#000000" stroke-width="4.58333" stroke-miterlimit="8" fill="none" fill-rule="evenodd" transform="matrix(1 0 0 -1 876.5 952.782)"/><path d="M848.5 196.5 875.5 160.5 902.5 196.5" stroke="#000000" stroke-width="4.58333" stroke-linecap="round" stroke-linejoin="round" stroke-miterlimit="10" fill="none" fill-rule="evenodd"/><path d="M875.5 159.5 875.5 225.425" stroke="#000000" stroke-width="4.58333" stroke-linecap="round" stroke-linejoin="round" stroke-miterlimit="10" fill="none" fill-rule="evenodd"/><path d="M902.5 950.5 875 985.5 847.5 950.5Z" stroke="#000000" stroke-width="4.58333" stroke-miterlimit="8" fill="#FFFFFF" fill-rule="evenodd"/><rect x="1325.5" y="329.5" width="412" height="542" stroke="#000000" stroke-width="4.58333" stroke-linecap="round" stroke-linejoin="round" stroke-miterlimit="10" fill="#F2F2F2"/><text font-family="Arial,Arial_MSFontService,sans-serif" font-weight="400" font-size="55" transform="matrix(1 0 0 1 1468.5 382)">MC</text><text font-family="Arial,Arial_MSFontService,sans-serif" font-weight="400" font-size="55" transform="matrix(1 0 0 1 1553.87 382)">U</text><text font-family="Arial,Arial_MSFontService,sans-serif" font-weight="400" font-size="55" transform="matrix(1 0 0 1 1344.36 609)">ADC Input</text><rect x="806" y="384" width="93.9998" height="87" fill="#FFFFFF"/><path d="M0 0 0.000360892 91.121" stroke="#000000" stroke-width="9.16667" stroke-miterlimit="8" fill="none" fill-rule="evenodd" transform="matrix(1 0 0 -1 806.5 471.621)"/><path d="M809.779 424.598 858.477 457.344 855.919 461.148 807.221 428.402ZM861.067 445.278 876.215 472.034 845.722 468.099Z"/><path d="M0 0 67.715 45.5334" stroke="#000000" stroke-width="4.58333" stroke-miterlimit="8" fill="none" fill-rule="evenodd" transform="matrix(-1 0 0 1 876.215 380.5)"/><path d="M735.196 396.316 766.028 406.14 764.636 410.507 733.804 400.683ZM765.139 393.831 787.167 415.28 756.791 420.033Z"/><path d="M735.196 426.317 766.028 436.14 764.636 440.507 733.804 430.684ZM765.139 423.831 787.167 445.281 756.791 450.033Z"/><rect x="858.5" y="720.5" width="33" height="74.9999" stroke="#000000" stroke-width="4.58333" stroke-linecap="round" stroke-linejoin="round" stroke-miterlimit="10" fill="#FFFFFF"/><rect x="1159" y="741" width="66" height="34.0001" fill="#FFFFFF"/><path d="M1159.5 775.5 1225.52 775.5" stroke="#000000" stroke-width="4.58333" stroke-miterlimit="8" fill="none" fill-rule="evenodd"/><path d="M1159.5 741.5 1225.52 741.5" stroke="#000000" stroke-width="4.58333" stroke-miterlimit="8" fill="none" fill-rule="evenodd"/><text font-family="Arial,Arial_MSFontService,sans-serif" font-weight="400" font-size="55" transform="matrix(1 0 0 1 968.802 776)">0.47uF</text><text font-family="Arial,Arial_MSFontService,sans-serif" font-weight="400" font-size="55" transform="matrix(1 0 0 1 702.969 776)">10kΩ</text><text font-family="Arial,Arial_MSFontService,sans-serif" font-weight="400" font-size="55" transform="matrix(1 0 0 1 591.825 340)">NJL7502L</text></g></svg>