<svg width="2195" height="984" xmlns="http://www.w3.org/2000/svg" xmlns:xlink="http://www.w3.org/1999/xlink" xml:space="preserve" overflow="hidden"><defs><clipPath id="clip0"><rect x="457" y="190" width="2195" height="984"/></clipPath></defs><g clip-path="url(#clip0)" transform="translate(-457 -190)"><rect x="457" y="190" width="2195" height="984" fill="#FFFFFF"/><path d="M1153.5 702.208 1541.17 702.208 1541.17 706.792 1153.5 706.792ZM1153.5 718.25C1145.91 718.25 1139.75 712.094 1139.75 704.5 1139.75 696.906 1145.91 690.75 1153.5 690.75 1161.09 690.75 1167.25 696.906 1167.25 704.5 1167.25 712.094 1161.09 718.25 1153.5 718.25Z"/><path d="M1404.79 704.5 1404.79 1064.29 1400.21 1064.29 1400.21 704.5ZM1388.75 704.5C1388.75 696.906 1394.91 690.75 1402.5 690.75 1410.09 690.75 1416.25 696.906 1416.25 704.5 1416.25 712.094 1410.09 718.25 1402.5 718.25 1394.91 718.25 1388.75 712.094 1388.75 704.5Z"/><path d="M1428.5 1062.5 1401 1096.5 1373.5 1062.5Z" stroke="#000000" stroke-width="4.58333" stroke-miterlimit="8" fill="#FFFFFF" fill-rule="evenodd"/><path d="M0 0 0.000360892 730.282" stroke="#000000" stroke-width="4.58333" stroke-miterlimit="8" fill="none" fill-rule="evenodd" transform="matrix(1 0 0 -1 1154.5 1063.78)"/><path d="M1126.5 308.5 1154 271.5 1181.5 308.5" stroke="#000000" stroke-width="4.58333" stroke-linecap="round" stroke-linejoin="round" stroke-miterlimit="10" fill="none" fill-rule="evenodd"/><path d="M1153.5 271.5 1153.5 337.425" stroke="#000000" stroke-width="4.58333" stroke-linecap="round" stroke-linejoin="round" stroke-miterlimit="10" fill="none" fill-rule="evenodd"/><path d="M1180.5 1062.5 1153 1096.5 1125.5 1062.5Z" stroke="#000000" stroke-width="4.58333" stroke-miterlimit="8" fill="#FFFFFF" fill-rule="evenodd"/><rect x="1534.5" y="440.5" width="413" height="543" stroke="#000000" stroke-width="4.58333" stroke-linecap="round" stroke-linejoin="round" stroke-miterlimit="10" fill="#F2F2F2"/><text font-family="Arial,Arial_MSFontService,sans-serif" font-weight="400" font-size="41" transform="matrix(1 0 0 1 1693.66 480)">MC</text><text font-family="Arial,Arial_MSFontService,sans-serif" font-weight="400" font-size="41" transform="matrix(1 0 0 1 1757.82 480)">U</text><text font-family="Arial,Arial_MSFontService,sans-serif" font-weight="400" font-size="41" transform="matrix(1 0 0 1 1554.05 715)">ADC Input</text><rect x="1085" y="495" width="94.0002" height="87" fill="#FFFFFF"/><path d="M0 0 0.000360892 91.121" stroke="#000000" stroke-width="9.16667" stroke-miterlimit="8" fill="none" fill-rule="evenodd" transform="matrix(1 0 0 -1 1085.5 582.621)"/><path d="M1088.78 535.598 1137.48 568.344 1134.92 572.148 1086.22 539.402ZM1140.07 556.278 1155.22 583.034 1124.72 579.099Z"/><path d="M0 0 67.715 45.5334" stroke="#000000" stroke-width="4.58333" stroke-miterlimit="8" fill="none" fill-rule="evenodd" transform="matrix(-1 0 0 1 1155.22 491.5)"/><path d="M1014.2 507.316 1045.03 517.14 1043.64 521.507 1012.8 511.683ZM1044.14 504.831 1066.17 526.28 1035.79 531.033Z"/><path d="M1014.2 537.316 1045.03 547.14 1043.64 551.507 1012.8 541.683ZM1044.14 534.831 1066.17 556.28 1035.79 561.033Z"/><rect x="1136.5" y="831.5" width="34" height="74.9999" stroke="#000000" stroke-width="4.58333" stroke-linecap="round" stroke-linejoin="round" stroke-miterlimit="10" fill="#FFFFFF"/><rect x="1368" y="852" width="67" height="33.9997" fill="#FFFFFF"/><path d="M1368.5 886.5 1434.52 886.5" stroke="#000000" stroke-width="4.58333" stroke-miterlimit="8" fill="none" fill-rule="evenodd"/><path d="M1368.5 852.5 1434.52 852.5" stroke="#000000" stroke-width="4.58333" stroke-miterlimit="8" fill="none" fill-rule="evenodd"/><text font-family="Arial,Arial_MSFontService,sans-serif" font-weight="400" font-size="41" transform="matrix(1 0 0 1 1220.89 883)">0.47uF</text><text font-family="Arial,Arial_MSFontService,sans-serif" font-weight="400" font-size="41" transform="matrix(1 0 0 1 1013.49 883)">10kΩ</text><text font-family="Arial,Arial_MSFontService,sans-serif" font-weight="400" font-size="41" transform="matrix(1 0 0 1 931.564 447)">NJL7502L</text></g></svg>