<svg width="2195" height="984" xmlns="http://www.w3.org/2000/svg" xmlns:xlink="http://www.w3.org/1999/xlink" xml:space="preserve" overflow="hidden"><defs><clipPath id="clip0"><rect x="457" y="1257" width="2195" height="984"/></clipPath></defs><g clip-path="url(#clip0)" transform="translate(-457 -1257)"><rect x="457" y="1257" width="2195" height="984" fill="#FFFFFF"/><path d="M849.5 1768.21 1104.25 1768.21 1104.25 1772.79 849.5 1772.79ZM849.5 1784.25C841.906 1784.25 835.75 1778.09 835.75 1770.5 835.75 1762.91 841.906 1756.75 849.5 1756.75 857.094 1756.75 863.25 1762.91 863.25 1770.5 863.25 1778.09 857.094 1784.25 849.5 1784.25Z"/><path d="M0 0 248.154 0.000360892" stroke="#000000" stroke-width="4.58333" stroke-miterlimit="8" fill="none" fill-rule="evenodd" transform="matrix(-1 0 0 1 2072.65 1729.5)"/><path d="M4.55428e-06-2.29167 181.597-2.29131 181.597 2.29203-4.55428e-06 2.29167ZM-2.73257e-05 13.75C-7.59394 13.75-13.75 7.59389-13.75-2.73257e-05-13.75-7.59394-7.59389-13.75 2.73257e-05-13.75 7.59394-13.75 13.75-7.59389 13.75 2.73257e-05 13.75 7.59394 7.59389 13.75-2.73257e-05 13.75Z" transform="matrix(-1 0 0 1 1352.1 1727.5)"/><path d="M995.5 1584.5 995.5 1681.5 1107.5 1681.5" stroke="#000000" stroke-width="4.58333" stroke-linecap="round" stroke-linejoin="round" stroke-miterlimit="10" fill="none" fill-rule="evenodd"/><path d="M1063.5 1632.5 1221.5 1728 1063.5 1823.5Z" stroke="#000000" stroke-width="4.58333" stroke-miterlimit="8" fill="#F2F2F2" fill-rule="evenodd"/><path d="M1079.5 1683.5 1114.3 1683.5" stroke="#000000" stroke-width="4.58333" stroke-miterlimit="8" fill="#F2F2F2" fill-rule="evenodd"/><path d="M1079.5 1774.5 1114.3 1774.5" stroke="#000000" stroke-width="4.58333" stroke-miterlimit="8" fill="#F2F2F2" fill-rule="evenodd"/><path d="M1096.5 1756.5 1096.5 1791.3" stroke="#000000" stroke-width="4.58333" stroke-miterlimit="8" fill="#F2F2F2" fill-rule="evenodd"/><text font-family="Arial,Arial_MSFontService,sans-serif" font-weight="400" font-size="41" transform="matrix(1 0 0 1 1731.18 1608)">NJM2903</text><text font-family="Arial,Arial_MSFontService,sans-serif" font-weight="400" font-size="41" transform="matrix(1 0 0 1 1057.85 1553)">NJM2903</text><path d="M967.792 1770.5 967.792 2130.29 963.209 2130.29 963.208 1770.5ZM951.75 1770.5C951.75 1762.91 957.906 1756.75 965.5 1756.75 973.094 1756.75 979.25 1762.91 979.25 1770.5 979.25 1778.09 973.094 1784.25 965.5 1784.25 957.906 1784.25 951.75 1778.09 951.75 1770.5Z"/><path d="M991.5 2128.5 964 2162.5 936.5 2128.5Z" stroke="#000000" stroke-width="4.58333" stroke-miterlimit="8" fill="#FFFFFF" fill-rule="evenodd"/><path d="M0 0 0.000360892 730.282" stroke="#000000" stroke-width="4.58333" stroke-miterlimit="8" fill="none" fill-rule="evenodd" transform="matrix(1 0 0 -1 850.5 2129.78)"/><path d="M822.5 1374.5 850 1337.5 877.5 1374.5" stroke="#000000" stroke-width="4.58333" stroke-linecap="round" stroke-linejoin="round" stroke-miterlimit="10" fill="none" fill-rule="evenodd"/><path d="M849.5 1337.5 849.5 1403.43" stroke="#000000" stroke-width="4.58333" stroke-linecap="round" stroke-linejoin="round" stroke-miterlimit="10" fill="none" fill-rule="evenodd"/><path d="M876.5 2128.5 849 2162.5 821.5 2128.5Z" stroke="#000000" stroke-width="4.58333" stroke-miterlimit="8" fill="#FFFFFF" fill-rule="evenodd"/><rect x="781" y="1561" width="93.9998" height="87" fill="#FFFFFF"/><path d="M0 0 0.000360892 91.121" stroke="#000000" stroke-width="9.16667" stroke-miterlimit="8" fill="none" fill-rule="evenodd" transform="matrix(1 0 0 -1 781.5 1648.62)"/><path d="M784.779 1601.6 833.477 1634.34 830.919 1638.15 782.221 1605.4ZM836.067 1622.28 851.215 1649.03 820.722 1645.1Z"/><path d="M0 0 67.715 45.5334" stroke="#000000" stroke-width="4.58333" stroke-miterlimit="8" fill="none" fill-rule="evenodd" transform="matrix(-1 0 0 1 851.215 1557.5)"/><path d="M710.196 1573.32 741.027 1583.14 739.636 1587.51 708.804 1577.68ZM740.139 1570.83 762.167 1592.28 731.79 1597.03Z"/><path d="M710.196 1603.32 741.027 1613.14 739.636 1617.51 708.804 1607.68ZM740.139 1600.83 762.167 1622.28 731.79 1627.03Z"/><rect x="832.5" y="1897.5" width="34.0001" height="74.9999" stroke="#000000" stroke-width="4.58333" stroke-linecap="round" stroke-linejoin="round" stroke-miterlimit="10" fill="#FFFFFF"/><rect x="932" y="1918" width="66" height="34" fill="#FFFFFF"/><path d="M932.5 1952.5 998.521 1952.5" stroke="#000000" stroke-width="4.58333" stroke-miterlimit="8" fill="none" fill-rule="evenodd"/><path d="M932.5 1918.5 998.521 1918.5" stroke="#000000" stroke-width="4.58333" stroke-miterlimit="8" fill="none" fill-rule="evenodd"/><text font-family="Arial,Arial_MSFontService,sans-serif" font-weight="400" font-size="41" transform="matrix(1 0 0 1 1017.13 1949)">0.47uF</text><text font-family="Arial,Arial_MSFontService,sans-serif" font-weight="400" font-size="41" transform="matrix(1 0 0 1 709.47 1949)">10kΩ</text><text font-family="Arial,Arial_MSFontService,sans-serif" font-weight="400" font-size="41" transform="matrix(1 0 0 1 627.545 1513)">NJL7502L</text><path d="M1279.21 1727.5 1279.21 1585.5 1281.5 1587.79 994.5 1587.79C993.234 1587.79 992.208 1586.77 992.208 1585.5 992.208 1584.23 993.234 1583.21 994.5 1583.21L1281.5 1583.21C1282.77 1583.21 1283.79 1584.23 1283.79 1585.5L1283.79 1727.5C1283.79 1728.77 1282.77 1729.79 1281.5 1729.79 1280.23 1729.79 1279.21 1728.77 1279.21 1727.5ZM1295.25 1727.5C1295.25 1735.09 1289.09 1741.25 1281.5 1741.25 1273.91 1741.25 1267.75 1735.09 1267.75 1727.5 1267.75 1719.91 1273.91 1713.75 1281.5 1713.75 1289.09 1713.75 1295.25 1719.91 1295.25 1727.5Z"/><path d="M1771 1683.5 1352.5 1683.5 1352.5 1770.5 1771.5 1770.5" stroke="#000000" stroke-width="4.58333" stroke-linecap="round" stroke-linejoin="round" stroke-miterlimit="10" fill="none" fill-rule="evenodd"/><path d="M1725.5 1632.5 1883.5 1728 1725.5 1823.5Z" stroke="#000000" stroke-width="4.58333" stroke-miterlimit="8" fill="#F2F2F2" fill-rule="evenodd"/><path d="M1741.5 1683.5 1776.3 1683.5" stroke="#000000" stroke-width="4.58333" stroke-miterlimit="8" fill="#F2F2F2" fill-rule="evenodd"/><path d="M1741.5 1774.5 1776.3 1774.5" stroke="#000000" stroke-width="4.58333" stroke-miterlimit="8" fill="#F2F2F2" fill-rule="evenodd"/><path d="M1758.5 1756.5 1758.5 1791.3" stroke="#000000" stroke-width="4.58333" stroke-miterlimit="8" fill="#F2F2F2" fill-rule="evenodd"/><rect x="1425.5" y="1753.5" width="74.9999" height="34" stroke="#000000" stroke-width="4.58333" stroke-linecap="round" stroke-linejoin="round" stroke-miterlimit="10" fill="#FFFFFF"/><rect x="1425.5" y="1667.5" width="74.9999" height="34" stroke="#000000" stroke-width="4.58333" stroke-linecap="round" stroke-linejoin="round" stroke-miterlimit="10" fill="#FFFFFF"/><path d="M1573.79 1683.5 1573.79 2129.95 1569.21 2129.95 1569.21 1683.5ZM1557.75 1683.5C1557.75 1675.91 1563.91 1669.75 1571.5 1669.75 1579.09 1669.75 1585.25 1675.91 1585.25 1683.5 1585.25 1691.09 1579.09 1697.25 1571.5 1697.25 1563.91 1697.25 1557.75 1691.09 1557.75 1683.5Z"/><path d="M1597.5 2128.5 1570 2162.5 1542.5 2128.5Z" stroke="#000000" stroke-width="4.58333" stroke-miterlimit="8" fill="#FFFFFF" fill-rule="evenodd"/><rect x="1538" y="1918" width="66" height="34" fill="#FFFFFF"/><path d="M1538.5 1952.5 1604.52 1952.5" stroke="#000000" stroke-width="4.58333" stroke-miterlimit="8" fill="none" fill-rule="evenodd"/><path d="M1538.5 1918.5 1604.52 1918.5" stroke="#000000" stroke-width="4.58333" stroke-miterlimit="8" fill="none" fill-rule="evenodd"/><text font-family="Arial,Arial_MSFontService,sans-serif" font-weight="400" font-size="41" transform="matrix(1 0 0 1 1427.17 1949)">22uF</text><text font-family="Arial,Arial_MSFontService,sans-serif" font-weight="400" font-size="41" transform="matrix(1 0 0 1 1425.66 1828)">10k</text><text font-family="Arial,Arial_MSFontService,sans-serif" font-weight="400" font-size="41" transform="matrix(1 0 0 1 1414.2 1652)">100k</text><path d="M2.29167 0 2.29167 142 0 139.708 287 139.708C288.266 139.708 289.292 140.734 289.292 142 289.292 143.266 288.266 144.292 287 144.292L0 144.292C-1.26565 144.292-2.29167 143.266-2.29167 142L-2.29167 0C-2.29167-1.26565-1.26565-2.29167 0-2.29167 1.26565-2.29167 2.29167-1.26565 2.29167 0ZM-13.75 0C-13.75-7.59392-7.59392-13.75 0-13.75 7.59392-13.75 13.75-7.59392 13.75 0 13.75 7.59392 7.59392 13.75 0 13.75-7.59392 13.75-13.75 7.59392-13.75 0Z" transform="matrix(-1 0 0 1 1944.5 1728.5)"/><rect x="2050.5" y="1467.5" width="413" height="542" stroke="#000000" stroke-width="4.58333" stroke-linecap="round" stroke-linejoin="round" stroke-miterlimit="10" fill="#F2F2F2"/><text font-family="Arial,Arial_MSFontService,sans-serif" font-weight="400" font-size="41" transform="matrix(1 0 0 1 2209.24 1507)">MC</text><text font-family="Arial,Arial_MSFontService,sans-serif" font-weight="400" font-size="41" transform="matrix(1 0 0 1 2273.41 1507)">U</text><text font-family="Arial,Arial_MSFontService,sans-serif" font-weight="400" font-size="41" transform="matrix(1 0 0 1 2069.63 1742)">Digital Input</text><path d="M1659.79 1770.5 1659.79 1871.76 1655.21 1871.76 1655.21 1770.5ZM1643.75 1770.5C1643.75 1762.91 1649.91 1756.75 1657.5 1756.75 1665.09 1756.75 1671.25 1762.91 1671.25 1770.5 1671.25 1778.09 1665.09 1784.25 1657.5 1784.25 1649.91 1784.25 1643.75 1778.09 1643.75 1770.5Z"/><rect x="1766.5" y="1855.5" width="74.9999" height="34" stroke="#000000" stroke-width="4.58333" stroke-linecap="round" stroke-linejoin="round" stroke-miterlimit="10" fill="#FFFFFF"/><text font-family="Arial,Arial_MSFontService,sans-serif" font-weight="400" font-size="41" transform="matrix(1 0 0 1 1771.71 1931)">1M</text></g></svg>