<svg width="2368" height="1126" xmlns="http://www.w3.org/2000/svg" xmlns:xlink="http://www.w3.org/1999/xlink" xml:space="preserve" overflow="hidden"><defs><clipPath id="clip0"><rect x="236" y="1108" width="2368" height="1126"/></clipPath></defs><g clip-path="url(#clip0)" transform="translate(-236 -1108)"><rect x="236" y="1108" width="2368" height="1126" fill="#FFFFFF"/><path d="M0 0 0.000360892 730.282" stroke="#000000" stroke-width="4.58333" stroke-miterlimit="8" fill="none" fill-rule="evenodd" transform="matrix(1 0 0 -1 1131.5 2129.78)"/><path d="M1104.5 1374.5 1131.5 1337.5 1158.5 1374.5" stroke="#000000" stroke-width="4.58333" stroke-linecap="round" stroke-linejoin="round" stroke-miterlimit="10" fill="none" fill-rule="evenodd"/><path d="M1131.5 1337.5 1131.5 1403.43" stroke="#000000" stroke-width="4.58333" stroke-linecap="round" stroke-linejoin="round" stroke-miterlimit="10" fill="none" fill-rule="evenodd"/><path d="M1157.5 2128.5 1130 2162.5 1102.5 2128.5Z" stroke="#000000" stroke-width="4.58333" stroke-miterlimit="8" fill="#FFFFFF" fill-rule="evenodd"/><path d="M552.5 1768.21 1075.46 1768.21 1075.46 1772.79 552.5 1772.79ZM552.5 1784.25C544.906 1784.25 538.75 1778.09 538.75 1770.5 538.75 1762.91 544.906 1756.75 552.5 1756.75 560.094 1756.75 566.25 1762.91 566.25 1770.5 566.25 1778.09 560.094 1784.25 552.5 1784.25Z"/><path d="M0 0 248.154 0.000360892" stroke="#000000" stroke-width="4.58333" stroke-miterlimit="8" fill="none" fill-rule="evenodd" transform="matrix(-1 0 0 1 2246.65 1729.5)"/><path d="M3.91243e-06-2.29167 211.389-2.29131 211.389 2.29203-3.91243e-06 2.29167ZM-2.34746e-05 13.75C-7.59394 13.75-13.75 7.59389-13.75-2.34746e-05-13.75-7.59394-7.59389-13.75 2.34746e-05-13.75 7.59394-13.75 13.75-7.59389 13.75 2.34746e-05 13.75 7.59394 7.59389 13.75-2.34746e-05 13.75Z" transform="matrix(-1 0 0 1 1381.89 1727.5)"/><path d="M995.5 1584.5 995.5 1681.5 1107.5 1681.5" stroke="#000000" stroke-width="4.58333" stroke-linecap="round" stroke-linejoin="round" stroke-miterlimit="10" fill="none" fill-rule="evenodd"/><path d="M1063.5 1632.5 1221.5 1728 1063.5 1823.5Z" stroke="#000000" stroke-width="4.58333" stroke-miterlimit="8" fill="#F2F2F2" fill-rule="evenodd"/><path d="M1079.5 1683.5 1114.3 1683.5" stroke="#000000" stroke-width="4.58333" stroke-miterlimit="8" fill="#F2F2F2" fill-rule="evenodd"/><path d="M1079.5 1774.5 1114.3 1774.5" stroke="#000000" stroke-width="4.58333" stroke-miterlimit="8" fill="#F2F2F2" fill-rule="evenodd"/><path d="M1096.5 1756.5 1096.5 1791.3" stroke="#000000" stroke-width="4.58333" stroke-miterlimit="8" fill="#F2F2F2" fill-rule="evenodd"/><text font-family="Arial,Arial_MSFontService,sans-serif" font-weight="400" font-size="41" transform="matrix(1 0 0 1 1938.34 1608)">NJM2903</text><text font-family="Arial,Arial_MSFontService,sans-serif" font-weight="400" font-size="41" transform="matrix(1 0 0 1 940.976 1873)">NJM2903</text><path d="M668.792 1770.5 668.792 2130.29 664.209 2130.29 664.208 1770.5ZM652.75 1770.5C652.75 1762.91 658.906 1756.75 666.5 1756.75 674.094 1756.75 680.25 1762.91 680.25 1770.5 680.25 1778.09 674.094 1784.25 666.5 1784.25 658.906 1784.25 652.75 1778.09 652.75 1770.5Z"/><path d="M692.5 2128.5 665 2162.5 637.5 2128.5Z" stroke="#000000" stroke-width="4.58333" stroke-miterlimit="8" fill="#FFFFFF" fill-rule="evenodd"/><path d="M0 0 0.000360892 730.282" stroke="#000000" stroke-width="4.58333" stroke-miterlimit="8" fill="none" fill-rule="evenodd" transform="matrix(1 0 0 -1 551.5 2129.78)"/><path d="M524.5 1374.5 551.5 1337.5 578.5 1374.5" stroke="#000000" stroke-width="4.58333" stroke-linecap="round" stroke-linejoin="round" stroke-miterlimit="10" fill="none" fill-rule="evenodd"/><path d="M551.5 1337.5 551.5 1403.43" stroke="#000000" stroke-width="4.58333" stroke-linecap="round" stroke-linejoin="round" stroke-miterlimit="10" fill="none" fill-rule="evenodd"/><path d="M578.5 2128.5 551 2162.5 523.5 2128.5Z" stroke="#000000" stroke-width="4.58333" stroke-miterlimit="8" fill="#FFFFFF" fill-rule="evenodd"/><rect x="482" y="1561" width="94.0002" height="87" fill="#FFFFFF"/><path d="M0 0 0.000360892 91.121" stroke="#000000" stroke-width="9.16667" stroke-miterlimit="8" fill="none" fill-rule="evenodd" transform="matrix(1 0 0 -1 482.5 1648.62)"/><path d="M485.779 1601.6 534.476 1634.34 531.919 1638.15 483.221 1605.4ZM537.067 1622.28 552.215 1649.03 521.722 1645.1Z"/><path d="M0 0 67.715 45.5334" stroke="#000000" stroke-width="4.58333" stroke-miterlimit="8" fill="none" fill-rule="evenodd" transform="matrix(-1 0 0 1 552.215 1557.5)"/><path d="M411.196 1573.32 442.027 1583.14 440.636 1587.51 409.804 1577.68ZM441.139 1570.83 463.167 1592.28 432.79 1597.03Z"/><path d="M411.196 1603.32 442.027 1613.14 440.636 1617.51 409.804 1607.68ZM441.139 1600.83 463.167 1622.28 432.79 1627.03Z"/><rect x="533.5" y="1897.5" width="34.0001" height="74.9999" stroke="#000000" stroke-width="4.58333" stroke-linecap="round" stroke-linejoin="round" stroke-miterlimit="10" fill="#FFFFFF"/><rect x="633" y="1918" width="66" height="34" fill="#FFFFFF"/><path d="M633.5 1952.5 699.521 1952.5" stroke="#000000" stroke-width="4.58333" stroke-miterlimit="8" fill="none" fill-rule="evenodd"/><path d="M633.5 1918.5 699.521 1918.5" stroke="#000000" stroke-width="4.58333" stroke-miterlimit="8" fill="none" fill-rule="evenodd"/><path d="M1279.21 1727.5 1279.21 1585.5 1281.5 1587.79 994.5 1587.79C993.234 1587.79 992.208 1586.77 992.208 1585.5 992.208 1584.23 993.234 1583.21 994.5 1583.21L1281.5 1583.21C1282.77 1583.21 1283.79 1584.23 1283.79 1585.5L1283.79 1727.5C1283.79 1728.77 1282.77 1729.79 1281.5 1729.79 1280.23 1729.79 1279.21 1728.77 1279.21 1727.5ZM1295.25 1727.5C1295.25 1735.09 1289.09 1741.25 1281.5 1741.25 1273.91 1741.25 1267.75 1735.09 1267.75 1727.5 1267.75 1719.91 1273.91 1713.75 1281.5 1713.75 1289.09 1713.75 1295.25 1719.91 1295.25 1727.5Z"/><path d="M1934.84 1683.5 1382.5 1683.5 1382.5 1770.5 1935.5 1770.5" stroke="#000000" stroke-width="4.58333" stroke-linecap="round" stroke-linejoin="round" stroke-miterlimit="10" fill="none" fill-rule="evenodd"/><path d="M1932.5 1632.5 2090.5 1728 1932.5 1823.5Z" stroke="#000000" stroke-width="4.58333" stroke-miterlimit="8" fill="#F2F2F2" fill-rule="evenodd"/><path d="M1948.5 1683.5 1983.3 1683.5" stroke="#000000" stroke-width="4.58333" stroke-miterlimit="8" fill="#F2F2F2" fill-rule="evenodd"/><path d="M1948.5 1774.5 1983.3 1774.5" stroke="#000000" stroke-width="4.58333" stroke-miterlimit="8" fill="#F2F2F2" fill-rule="evenodd"/><path d="M1965.5 1756.5 1965.5 1791.3" stroke="#000000" stroke-width="4.58333" stroke-miterlimit="8" fill="#F2F2F2" fill-rule="evenodd"/><rect x="1728.5" y="1753.5" width="75.0002" height="34" stroke="#000000" stroke-width="4.58333" stroke-linecap="round" stroke-linejoin="round" stroke-miterlimit="10" fill="#FFFFFF"/><rect x="1455.5" y="1667.5" width="74.9999" height="34" stroke="#000000" stroke-width="4.58333" stroke-linecap="round" stroke-linejoin="round" stroke-miterlimit="10" fill="#FFFFFF"/><path d="M1603.79 1683.5 1603.79 2129.95 1599.21 2129.95 1599.21 1683.5ZM1587.75 1683.5C1587.75 1675.91 1593.91 1669.75 1601.5 1669.75 1609.09 1669.75 1615.25 1675.91 1615.25 1683.5 1615.25 1691.09 1609.09 1697.25 1601.5 1697.25 1593.91 1697.25 1587.75 1691.09 1587.75 1683.5Z"/><path d="M1627.5 2128.5 1600 2162.5 1572.5 2128.5Z" stroke="#000000" stroke-width="4.58333" stroke-miterlimit="8" fill="#FFFFFF" fill-rule="evenodd"/><rect x="1568" y="1918" width="66" height="34" fill="#FFFFFF"/><path d="M1568.5 1952.5 1634.52 1952.5" stroke="#000000" stroke-width="4.58333" stroke-miterlimit="8" fill="none" fill-rule="evenodd"/><path d="M1568.5 1918.5 1634.52 1918.5" stroke="#000000" stroke-width="4.58333" stroke-miterlimit="8" fill="none" fill-rule="evenodd"/><text font-family="Arial,Arial_MSFontService,sans-serif" font-weight="400" font-size="41" transform="matrix(1 0 0 1 1471.17 1924)">C3</text><text font-family="Arial,Arial_MSFontService,sans-serif" font-weight="400" font-size="41" transform="matrix(1 0 0 1 1450.55 1974)">22uF</text><text font-family="Arial,Arial_MSFontService,sans-serif" font-weight="400" font-size="41" transform="matrix(1 0 0 1 1735.93 1831)">R3</text><text font-family="Arial,Arial_MSFontService,sans-serif" font-weight="400" font-size="41" transform="matrix(1 0 0 1 1713.61 1881)">10k立</text><text font-family="Arial,Arial_MSFontService,sans-serif" font-weight="400" font-size="41" transform="matrix(1 0 0 1 1462.76 1601)">R2</text><text font-family="Arial,Arial_MSFontService,sans-serif" font-weight="400" font-size="41" transform="matrix(1 0 0 1 1428.98 1651)">100k立</text><path d="M2.29167 0 2.29167 142 0 139.708 287 139.708C288.266 139.708 289.292 140.734 289.292 142 289.292 143.266 288.266 144.292 287 144.292L0 144.292C-1.26565 144.292-2.29167 143.266-2.29167 142L-2.29167 0C-2.29167-1.26565-1.26565-2.29167 0-2.29167 1.26565-2.29167 2.29167-1.26565 2.29167 0ZM-13.75 0C-13.75-7.59392-7.59392-13.75 0-13.75 7.59392-13.75 13.75-7.59392 13.75 0 13.75 7.59392 7.59392 13.75 0 13.75-7.59392 13.75-13.75 7.59392-13.75 0Z" transform="matrix(-1 0 0 1 2151.5 1728.5)"/><rect x="2224.5" y="1467.5" width="304" height="542" stroke="#000000" stroke-width="4.58333" stroke-linecap="round" stroke-linejoin="round" stroke-miterlimit="10" fill="#F2F2F2"/><text font-family="Arial,Arial_MSFontService,sans-serif" font-weight="400" font-size="41" transform="matrix(1 0 0 1 2328.91 1507)">MC</text><text font-family="Arial,Arial_MSFontService,sans-serif" font-weight="400" font-size="41" transform="matrix(1 0 0 1 2393.07 1507)">U</text><text font-family="Arial,Arial_MSFontService,sans-serif" font-weight="400" font-size="41" transform="matrix(1 0 0 1 2243.8 1742)">Digital Input</text><path d="M1866.79 1770.5 1866.79 1871.76 1862.21 1871.76 1862.21 1770.5ZM1850.75 1770.5C1850.75 1762.91 1856.91 1756.75 1864.5 1756.75 1872.09 1756.75 1878.25 1762.91 1878.25 1770.5 1878.25 1778.09 1872.09 1784.25 1864.5 1784.25 1856.91 1784.25 1850.75 1778.09 1850.75 1770.5Z"/><rect x="1973.5" y="1855.5" width="74.9999" height="34" stroke="#000000" stroke-width="4.58333" stroke-linecap="round" stroke-linejoin="round" stroke-miterlimit="10" fill="#FFFFFF"/><text font-family="Arial,Arial_MSFontService,sans-serif" font-weight="400" font-size="41" transform="matrix(1 0 0 1 1981.17 1934)">R4</text><text font-family="Arial,Arial_MSFontService,sans-serif" font-weight="400" font-size="41" transform="matrix(1 0 0 1 1963.41 1984)">1M立</text><path d="M2.29167 0 2.29167 84.9999 0 82.7082 209 82.7082C210.266 82.7082 211.292 83.7342 211.292 84.9999 211.292 86.2656 210.266 87.2916 209 87.2916L0 87.2916C-1.26565 87.2916-2.29167 86.2656-2.29167 84.9999L-2.29167 0C-2.29167-1.26565-1.26565-2.29167 0-2.29167 1.26565-2.29167 2.29167-1.26565 2.29167 0ZM209 71.2499C216.594 71.2499 222.75 77.406 222.75 84.9999 222.75 92.5938 216.594 98.7499 209 98.7499 201.406 98.7499 195.25 92.5938 195.25 84.9999 195.25 77.406 201.406 71.2499 209 71.2499Z" transform="matrix(1 0 0 -1 923.5 1566.5)"/><path d="M951.5 1548.5 924 1583.5 896.5 1548.5Z" stroke="#000000" stroke-width="4.58333" stroke-miterlimit="8" fill="#FFFFFF" fill-rule="evenodd"/><rect x="1003" y="1447" width="34.0001" height="66" fill="#FFFFFF"/><path d="M1003.5 1447.5 1003.5 1513.52" stroke="#000000" stroke-width="4.58333" stroke-miterlimit="8" fill="none" fill-rule="evenodd"/><path d="M1037.5 1447.5 1037.5 1513.52" stroke="#000000" stroke-width="4.58333" stroke-miterlimit="8" fill="none" fill-rule="evenodd"/><text font-family="Arial,Arial_MSFontService,sans-serif" font-weight="400" font-size="41" transform="matrix(1 0 0 1 994.36 1378)">C2</text><text font-family="Arial,Arial_MSFontService,sans-serif" font-weight="400" font-size="41" transform="matrix(1 0 0 1 962.277 1428)">100nF</text><text font-family="Arial,Arial_MSFontService,sans-serif" font-weight="400" font-size="55" transform="matrix(1 0 0 1 1391.68 1208)">DC Offset</text><text font-family="Arial,Arial_MSFontService,sans-serif" font-weight="400" font-size="55" transform="matrix(1 0 0 1 1408.37 1274)">Detector</text><text font-family="Arial,Arial_MSFontService,sans-serif" font-weight="400" font-size="55" transform="matrix(1 0 0 1 1812.57 1241)">Comparator</text><text font-family="Arial,Arial_MSFontService,sans-serif" font-weight="400" font-size="41" transform="matrix(1 0 0 1 749.621 1925)">C1</text><text font-family="Arial,Arial_MSFontService,sans-serif" font-weight="400" font-size="41" transform="matrix(1 0 0 1 717.538 1975)">470nF</text><text font-family="Arial,Arial_MSFontService,sans-serif" font-weight="400" font-size="41" transform="matrix(1 0 0 1 437.087 1925)">R1</text><text font-family="Arial,Arial_MSFontService,sans-serif" font-weight="400" font-size="41" transform="matrix(1 0 0 1 414.743 1975)">10k立</text><text font-family="Arial,Arial_MSFontService,sans-serif" font-weight="400" font-size="41" transform="matrix(1 0 0 1 409.32 1469)">Q1</text><text font-family="Arial,Arial_MSFontService,sans-serif" font-weight="400" font-size="41" transform="matrix(1 0 0 1 342.861 1519)">NJL7502L</text><text font-family="Arial,Arial_MSFontService,sans-serif" font-weight="400" font-size="55" transform="matrix(1 0 0 1 1037.05 1241)">Buffer</text><path d="M0 0 0.000360892 1041.56" stroke="#A6A6A6" stroke-width="4.58333" stroke-miterlimit="8" stroke-dasharray="36.6667 13.75" fill="none" fill-rule="evenodd" transform="matrix(1 0 0 -1 863.5 2200.06)"/><path d="M0 0 0.000360892 1041.56" stroke="#A6A6A6" stroke-width="4.58333" stroke-miterlimit="8" stroke-dasharray="36.6667 13.75" fill="none" fill-rule="evenodd" transform="matrix(1 0 0 -1 1337.5 2200.06)"/><path d="M0 0 0.000360892 1041.56" stroke="#A6A6A6" stroke-width="4.58333" stroke-miterlimit="8" stroke-dasharray="36.6667 13.75" fill="none" fill-rule="evenodd" transform="matrix(1 0 0 -1 1677.5 2200.06)"/></g></svg>