<svg width="2489" height="2152" xmlns="http://www.w3.org/2000/svg" xmlns:xlink="http://www.w3.org/1999/xlink" xml:space="preserve" overflow="hidden"><g><rect x="0" y="0" width="2489" height="2152" fill="#FFFFFF"/><path d="M72.5 1739.5 2406.56 1739.5" stroke="#000000" stroke-width="4.58333" stroke-linecap="round" stroke-linejoin="round" stroke-miterlimit="10" stroke-dasharray="32.0833 18.3333" fill="none" fill-rule="evenodd"/><rect x="196.5" y="1671.5" width="577" height="131" stroke="#000000" stroke-width="4.58333" stroke-linecap="round" stroke-linejoin="round" stroke-miterlimit="10" fill="#F2F2F2"/><text font-family="Arial,Arial_MSFontService,sans-serif" font-weight="400" font-size="55" transform="matrix(1 0 0 1 395.026 1757)">Display</text><rect x="1684.5" y="1671.5" width="578" height="131" stroke="#000000" stroke-width="4.58333" stroke-linecap="round" stroke-linejoin="round" stroke-miterlimit="10" fill="#F2F2F2"/><text font-family="Arial,Arial_MSFontService,sans-serif" font-weight="400" font-size="55" transform="matrix(1 0 0 1 1731.43 1757)">Light Sensor</text><text font-family="Arial,Arial_MSFontService,sans-serif" font-weight="400" font-size="55" transform="matrix(1 0 0 1 2054.56 1757)">+</text><text font-family="Arial,Arial_MSFontService,sans-serif" font-weight="400" font-size="55" transform="matrix(1 0 0 1 2099.09 1757)">AD</text><text font-family="Arial,Arial_MSFontService,sans-serif" font-weight="400" font-size="55" transform="matrix(1 0 0 1 2175.28 1757)">C</text><path d="M72.5 1522.5 2406.56 1522.5" stroke="#000000" stroke-width="4.58333" stroke-linecap="round" stroke-linejoin="round" stroke-miterlimit="10" stroke-dasharray="32.0833 18.3333" fill="none" fill-rule="evenodd"/><rect x="196.5" y="1455.5" width="577" height="131" stroke="#000000" stroke-width="4.58333" stroke-linecap="round" stroke-linejoin="round" stroke-miterlimit="10" fill="#F2F2F2"/><text font-family="Arial,Arial_MSFontService,sans-serif" font-weight="400" font-size="55" transform="matrix(1 0 0 1 370.677 1541)">Serializer</text><rect x="1684.5" y="1455.5" width="578" height="131" stroke="#000000" stroke-width="4.58333" stroke-linecap="round" stroke-linejoin="round" stroke-miterlimit="10" fill="#F2F2F2"/><text font-family="Arial,Arial_MSFontService,sans-serif" font-weight="400" font-size="55" transform="matrix(1 0 0 1 1828.75 1541)">Deserializer</text><path d="M72.5 433.5 2406.56 433.5" stroke="#000000" stroke-width="4.58333" stroke-linecap="round" stroke-linejoin="round" stroke-miterlimit="10" stroke-dasharray="32.0833 18.3333" fill="none" fill-rule="evenodd"/><rect x="196.5" y="375.5" width="577" height="131" stroke="#000000" stroke-width="4.58333" stroke-linecap="round" stroke-linejoin="round" stroke-miterlimit="10" fill="#F2F2F2"/><text font-family="Arial,Arial_MSFontService,sans-serif" font-weight="400" font-size="55" transform="matrix(1 0 0 1 295.625 461)">CBOR Encoder</text><rect x="1684.5" y="375.5" width="578" height="131" stroke="#000000" stroke-width="4.58333" stroke-linecap="round" stroke-linejoin="round" stroke-miterlimit="10" fill="#F2F2F2"/><text font-family="Arial,Arial_MSFontService,sans-serif" font-weight="400" font-size="55" transform="matrix(1 0 0 1 1782.63 461)">CBOR Decoder</text><rect x="922.5" y="481.5" width="104" height="70.9998" stroke="#000000" stroke-width="4.58333" stroke-linecap="round" stroke-linejoin="round" stroke-miterlimit="10" fill="#F4EEA4"/><text font-family="Arial,Arial_MSFontService,sans-serif" font-weight="400" font-size="55" transform="matrix(1 0 0 1 940.099 537)">A2</text><rect x="922.5" y="566.5" width="104" height="70.0001" stroke="#000000" stroke-width="4.58333" stroke-linecap="round" stroke-linejoin="round" stroke-miterlimit="10" fill="#F4EEA4"/><text font-family="Arial,Arial_MSFontService,sans-serif" font-weight="400" font-size="55" transform="matrix(1 0 0 1 944.014 621)">61</text><rect x="1026.5" y="566.5" width="104" height="70.0001" stroke="#000000" stroke-width="4.58333" stroke-linecap="round" stroke-linejoin="round" stroke-miterlimit="10" fill="#D9F2D0"/><text font-family="Arial,Arial_MSFontService,sans-serif" font-weight="400" font-size="55" transform="matrix(1 0 0 1 1044.04 621)">“a”</text><rect x="1130.5" y="566.5" width="103" height="70.0001" stroke="#000000" stroke-width="4.58333" stroke-linecap="round" stroke-linejoin="round" stroke-miterlimit="10" fill="#F4EEA4"/><text font-family="Arial,Arial_MSFontService,sans-serif" font-weight="400" font-size="55" transform="matrix(1 0 0 1 1151.12 621)">65</text><rect x="1233.5" y="566.5" width="302" height="70.0001" stroke="#000000" stroke-width="4.58333" stroke-linecap="round" stroke-linejoin="round" stroke-miterlimit="10" fill="#CAEEFB"/><text font-family="Arial,Arial_MSFontService,sans-serif" font-weight="400" font-size="55" transform="matrix(1 0 0 1 1303.22 621)">“Hello”</text><rect x="922.5" y="650.5" width="104" height="70.0001" stroke="#000000" stroke-width="4.58333" stroke-linecap="round" stroke-linejoin="round" stroke-miterlimit="10" fill="#F4EEA4"/><text font-family="Arial,Arial_MSFontService,sans-serif" font-weight="400" font-size="55" transform="matrix(1 0 0 1 944.014 705)">61</text><rect x="1026.5" y="650.5" width="104" height="70.0001" stroke="#000000" stroke-width="4.58333" stroke-linecap="round" stroke-linejoin="round" stroke-miterlimit="10" fill="#D9F2D0"/><text font-family="Arial,Arial_MSFontService,sans-serif" font-weight="400" font-size="55" transform="matrix(1 0 0 1 1044.04 705)">“b”</text><rect x="1130.5" y="650.5" width="103" height="70.0001" stroke="#000000" stroke-width="4.58333" stroke-linecap="round" stroke-linejoin="round" stroke-miterlimit="10" fill="#F4EEA4"/><text font-family="Arial,Arial_MSFontService,sans-serif" font-weight="400" font-size="55" transform="matrix(1 0 0 1 1151.12 705)">65</text><rect x="1233.5" y="650.5" width="302" height="70.0001" stroke="#000000" stroke-width="4.58333" stroke-linecap="round" stroke-linejoin="round" stroke-miterlimit="10" fill="#CAEEFB"/><text font-family="Arial,Arial_MSFontService,sans-serif" font-weight="400" font-size="55" transform="matrix(1 0 0 1 1294.26 705)">“World”</text><path d="M72.5 768.5 2406.56 768.5" stroke="#000000" stroke-width="4.58333" stroke-linecap="round" stroke-linejoin="round" stroke-miterlimit="10" stroke-dasharray="32.0833 18.3333" fill="none" fill-rule="evenodd"/><rect x="196.5" y="702.5" width="577" height="132" stroke="#000000" stroke-width="4.58333" stroke-linecap="round" stroke-linejoin="round" stroke-miterlimit="10" fill="#F2F2F2"/><text font-family="Arial,Arial_MSFontService,sans-serif" font-weight="400" font-size="55" transform="matrix(1 0 0 1 396.172 788)">Framer</text><rect x="1684.5" y="702.5" width="578" height="132" stroke="#000000" stroke-width="4.58333" stroke-linecap="round" stroke-linejoin="round" stroke-miterlimit="10" fill="#F2F2F2"/><text font-family="Arial,Arial_MSFontService,sans-serif" font-weight="400" font-size="55" transform="matrix(1 0 0 1 1858.83 788)">Deframer</text><rect x="1154.5" y="224.5" width="314" height="81.0001" stroke="#000000" stroke-width="4.58333" stroke-linecap="round" stroke-linejoin="round" stroke-miterlimit="10" fill="#CAEEFB"/><text font-family="Arial,Arial_MSFontService,sans-serif" font-weight="400" font-size="55" transform="matrix(1 0 0 1 1230.48 284)">“Hello”</text><rect x="1154.5" y="305.5" width="314" height="79.9997" stroke="#000000" stroke-width="4.58333" stroke-linecap="round" stroke-linejoin="round" stroke-miterlimit="10" fill="#CAEEFB"/><text font-family="Arial,Arial_MSFontService,sans-serif" font-weight="400" font-size="55" transform="matrix(1 0 0 1 1221.52 365)">“World”</text><rect x="962.5" y="224.5" width="192" height="81.0001" stroke="#000000" stroke-width="4.58333" stroke-linecap="round" stroke-linejoin="round" stroke-miterlimit="10" fill="#D9F2D0"/><text font-family="Arial,Arial_MSFontService,sans-serif" font-weight="400" font-size="55" transform="matrix(1 0 0 1 1024.87 284)">“a”</text><rect x="962.5" y="305.5" width="192" height="79.9997" stroke="#000000" stroke-width="4.58333" stroke-linecap="round" stroke-linejoin="round" stroke-miterlimit="10" fill="#D9F2D0"/><text font-family="Arial,Arial_MSFontService,sans-serif" font-weight="400" font-size="55" transform="matrix(1 0 0 1 1024.87 365)">“b”</text><rect x="1154.5" y="144.5" width="314" height="80.0001" stroke="#000000" stroke-width="4.58333" stroke-linecap="round" stroke-linejoin="round" stroke-miterlimit="10" fill="#F2F2F2"/><text font-family="Arial,Arial_MSFontService,sans-serif" font-weight="700" font-size="55" transform="matrix(1 0 0 1 1239.15 204)">Value</text><rect x="962.5" y="144.5" width="192" height="80.0001" stroke="#000000" stroke-width="4.58333" stroke-linecap="round" stroke-linejoin="round" stroke-miterlimit="10" fill="#F2F2F2"/><text font-family="Arial,Arial_MSFontService,sans-serif" font-weight="700" font-size="55" transform="matrix(1 0 0 1 1008.25 204)">Key</text><rect x="965.5" y="145.5" width="503" height="240" stroke="#000000" stroke-width="6.875" stroke-linecap="round" stroke-linejoin="round" stroke-miterlimit="10" fill="none"/><path d="M802.5 2044.39 851.53 2044.39 851.53 1975.61 877.066 1975.61 877.066 2044.39 923.032 2044.39 923.032 1975.72 1017.01 1975.72 1017.01 2044.39 1095.66 2044.39 1095.66 1975.61 1122.22 1975.61 1122.22 2044.5 1197.8 2044.5 1197.8 1975.61 1233.55 1975.61 1233.55 2044.39 1268.28 2044.39 1268.28 1975.61 1336.72 1975.61 1336.72 2044.28 1415.37 2044.28 1415.37 1975.5 1440.91 1975.5 1440.91 2044.28 1519.56 2044.28 1519.56 1975.72 1581.87 1975.72 1581.87 2044.39 1610.47 2044.39 1610.47 1975.61 1639.07 1975.61 1639.07 2044.28 1659.5 2044.28 1656.44 2044.28" stroke="#000000" stroke-width="6.875" stroke-linecap="round" stroke-linejoin="round" stroke-miterlimit="10" fill="none" fill-rule="evenodd"/><rect x="1361.5" y="809.5" width="66" height="120" stroke="#000000" stroke-width="4.58333" stroke-linecap="round" stroke-linejoin="round" stroke-miterlimit="10" fill="#E5CDFF"/><text font-family="Arial,Arial_MSFontService,sans-serif" font-weight="400" font-size="41" transform="matrix(-1.83697e-16 -1 1 -1.83697e-16 1409.42 923)">CTRL</text><rect x="1427.5" y="809.5" width="66" height="120" stroke="#000000" stroke-width="4.58333" stroke-linecap="round" stroke-linejoin="round" stroke-miterlimit="10" fill="#E5CDFF"/><text font-family="Arial,Arial_MSFontService,sans-serif" font-weight="400" font-size="41" transform="matrix(-1.83697e-16 -1 1 -1.83697e-16 1475.31 911)">SOF</text><rect x="1493.5" y="809.5" width="63.9999" height="120" stroke="#000000" stroke-width="4.58333" stroke-linecap="round" stroke-linejoin="round" stroke-miterlimit="10" fill="#F4EEA4"/><text font-family="Arial,Arial_MSFontService,sans-serif" font-weight="400" font-size="46" transform="matrix(-1.83697e-16 -1 1 -1.83697e-16 1542.45 909)">D10</text><rect x="1557.5" y="809.5" width="65" height="120" stroke="#000000" stroke-width="4.58333" stroke-linecap="round" stroke-linejoin="round" stroke-miterlimit="10" fill="#F4EEA4"/><text font-family="Arial,Arial_MSFontService,sans-serif" font-weight="400" font-size="46" transform="matrix(-1.83697e-16 -1 1 -1.83697e-16 1607.15 909)">D2</text><rect x="841.5" y="948.5" width="65" height="120" stroke="#000000" stroke-width="4.58333" stroke-linecap="round" stroke-linejoin="round" stroke-miterlimit="10" fill="#F4EEA4"/><text font-family="Arial,Arial_MSFontService,sans-serif" font-weight="400" font-size="46" transform="matrix(-1.83697e-16 -1 1 -1.83697e-16 890.927 1049)">D6</text><rect x="906.5" y="948.5" width="63.9999" height="120" stroke="#000000" stroke-width="4.58333" stroke-linecap="round" stroke-linejoin="round" stroke-miterlimit="10" fill="#F4EEA4"/><text font-family="Arial,Arial_MSFontService,sans-serif" font-weight="400" font-size="46" transform="matrix(-1.83697e-16 -1 1 -1.83697e-16 955.63 1049)">D1</text><rect x="972.5" y="948.5" width="63.9999" height="120" stroke="#000000" stroke-width="4.58333" stroke-linecap="round" stroke-linejoin="round" stroke-miterlimit="10" fill="#D9F2D0"/><text font-family="Arial,Arial_MSFontService,sans-serif" font-weight="400" font-size="46" transform="matrix(-1.83697e-16 -1 1 -1.83697e-16 1021.52 1049)">D6</text><rect x="1036.5" y="948.5" width="65" height="120" stroke="#000000" stroke-width="4.58333" stroke-linecap="round" stroke-linejoin="round" stroke-miterlimit="10" fill="#D9F2D0"/><text font-family="Arial,Arial_MSFontService,sans-serif" font-weight="400" font-size="46" transform="matrix(-1.83697e-16 -1 1 -1.83697e-16 1086.23 1049)">D1</text><rect x="1101.5" y="948.5" width="65" height="120" stroke="#000000" stroke-width="4.58333" stroke-linecap="round" stroke-linejoin="round" stroke-miterlimit="10" fill="#F4EEA4"/><text font-family="Arial,Arial_MSFontService,sans-serif" font-weight="400" font-size="46" transform="matrix(-1.83697e-16 -1 1 -1.83697e-16 1150.78 1049)">D6</text><rect x="1166.5" y="948.5" width="64.0002" height="120" stroke="#000000" stroke-width="4.58333" stroke-linecap="round" stroke-linejoin="round" stroke-miterlimit="10" fill="#F4EEA4"/><text font-family="Arial,Arial_MSFontService,sans-serif" font-weight="400" font-size="46" transform="matrix(-1.83697e-16 -1 1 -1.83697e-16 1215.48 1049)">D5</text><rect x="1232.5" y="948.5" width="64.0002" height="120" stroke="#000000" stroke-width="4.58333" stroke-linecap="round" stroke-linejoin="round" stroke-miterlimit="10" fill="#CAEEFB"/><text font-family="Arial,Arial_MSFontService,sans-serif" font-weight="400" font-size="46" transform="matrix(-1.83697e-16 -1 1 -1.83697e-16 1281.52 1048)">D4</text><rect x="1298.5" y="948.5" width="64.0002" height="120" stroke="#000000" stroke-width="4.58333" stroke-linecap="round" stroke-linejoin="round" stroke-miterlimit="10" fill="#CAEEFB"/><text font-family="Arial,Arial_MSFontService,sans-serif" font-weight="400" font-size="46" transform="matrix(-1.83697e-16 -1 1 -1.83697e-16 1347.61 1048)">D8</text><rect x="1362.5" y="948.5" width="65" height="120" stroke="#000000" stroke-width="4.58333" stroke-linecap="round" stroke-linejoin="round" stroke-miterlimit="10" fill="#CAEEFB"/><text font-family="Arial,Arial_MSFontService,sans-serif" font-weight="400" font-size="46" transform="matrix(-1.83697e-16 -1 1 -1.83697e-16 1412.05 1048)">D6</text><rect x="1427.5" y="948.5" width="65" height="120" stroke="#000000" stroke-width="4.58333" stroke-linecap="round" stroke-linejoin="round" stroke-miterlimit="10" fill="#CAEEFB"/><text font-family="Arial,Arial_MSFontService,sans-serif" font-weight="400" font-size="46" transform="matrix(-1.83697e-16 -1 1 -1.83697e-16 1476.75 1048)">D5</text><rect x="1493.5" y="948.5" width="63.9999" height="120" stroke="#000000" stroke-width="4.58333" stroke-linecap="round" stroke-linejoin="round" stroke-miterlimit="10" fill="#CAEEFB"/><text font-family="Arial,Arial_MSFontService,sans-serif" font-weight="400" font-size="46" transform="matrix(-1.83697e-16 -1 1 -1.83697e-16 1542.45 1048)">D6</text><rect x="1557.5" y="948.5" width="65" height="120" stroke="#000000" stroke-width="4.58333" stroke-linecap="round" stroke-linejoin="round" stroke-miterlimit="10" fill="#CAEEFB"/><text font-family="Arial,Arial_MSFontService,sans-serif" font-weight="400" font-size="46" transform="matrix(-1.83697e-16 -1 1 -1.83697e-16 1607.15 1048)">DC</text><rect x="840.5" y="1085.5" width="64.9999" height="120" stroke="#000000" stroke-width="4.58333" stroke-linecap="round" stroke-linejoin="round" stroke-miterlimit="10" fill="#CAEEFB"/><text font-family="Arial,Arial_MSFontService,sans-serif" font-weight="400" font-size="46" transform="matrix(-1.83697e-16 -1 1 -1.83697e-16 889.96 1185)">D6</text><rect x="905.5" y="1085.5" width="64.9999" height="120" stroke="#000000" stroke-width="4.58333" stroke-linecap="round" stroke-linejoin="round" stroke-miterlimit="10" fill="#CAEEFB"/><text font-family="Arial,Arial_MSFontService,sans-serif" font-weight="400" font-size="46" transform="matrix(-1.83697e-16 -1 1 -1.83697e-16 954.663 1185)">DC</text><rect x="971.5" y="1085.5" width="63.9999" height="120" stroke="#000000" stroke-width="4.58333" stroke-linecap="round" stroke-linejoin="round" stroke-miterlimit="10" fill="#CAEEFB"/><text font-family="Arial,Arial_MSFontService,sans-serif" font-weight="400" font-size="46" transform="matrix(-1.83697e-16 -1 1 -1.83697e-16 1020.56 1185)">D6</text><rect x="1035.5" y="1085.5" width="65" height="120" stroke="#000000" stroke-width="4.58333" stroke-linecap="round" stroke-linejoin="round" stroke-miterlimit="10" fill="#CAEEFB"/><text font-family="Arial,Arial_MSFontService,sans-serif" font-weight="400" font-size="46" transform="matrix(-1.83697e-16 -1 1 -1.83697e-16 1085.26 1185)">D15</text><rect x="1102.5" y="1085.5" width="63.9999" height="120" stroke="#000000" stroke-width="4.58333" stroke-linecap="round" stroke-linejoin="round" stroke-miterlimit="10" fill="#F4EEA4"/><text font-family="Arial,Arial_MSFontService,sans-serif" font-weight="400" font-size="46" transform="matrix(-1.83697e-16 -1 1 -1.83697e-16 1151.59 1185)">D6</text><rect x="1166.5" y="1085.5" width="65.0004" height="120" stroke="#000000" stroke-width="4.58333" stroke-linecap="round" stroke-linejoin="round" stroke-miterlimit="10" fill="#F4EEA4"/><text font-family="Arial,Arial_MSFontService,sans-serif" font-weight="400" font-size="46" transform="matrix(-1.83697e-16 -1 1 -1.83697e-16 1216.29 1185)">D1</text><rect x="1231.5" y="1085.5" width="65" height="120" stroke="#000000" stroke-width="4.58333" stroke-linecap="round" stroke-linejoin="round" stroke-miterlimit="10" fill="#D9F2D0"/><text font-family="Arial,Arial_MSFontService,sans-serif" font-weight="400" font-size="46" transform="matrix(-1.83697e-16 -1 1 -1.83697e-16 1281.28 1185)">D6</text><rect x="1296.5" y="1085.5" width="65" height="120" stroke="#000000" stroke-width="4.58333" stroke-linecap="round" stroke-linejoin="round" stroke-miterlimit="10" fill="#D9F2D0"/><text font-family="Arial,Arial_MSFontService,sans-serif" font-weight="400" font-size="46" transform="matrix(-1.83697e-16 -1 1 -1.83697e-16 1345.98 1185)">D2</text><rect x="1361.5" y="1085.5" width="65" height="120" stroke="#000000" stroke-width="4.58333" stroke-linecap="round" stroke-linejoin="round" stroke-miterlimit="10" fill="#F4EEA4"/><text font-family="Arial,Arial_MSFontService,sans-serif" font-weight="400" font-size="46" transform="matrix(-1.83697e-16 -1 1 -1.83697e-16 1411.02 1185)">D6</text><rect x="1426.5" y="1085.5" width="65" height="120" stroke="#000000" stroke-width="4.58333" stroke-linecap="round" stroke-linejoin="round" stroke-miterlimit="10" fill="#F4EEA4"/><text font-family="Arial,Arial_MSFontService,sans-serif" font-weight="400" font-size="46" transform="matrix(-1.83697e-16 -1 1 -1.83697e-16 1475.72 1185)">D5</text><rect x="1493.5" y="1085.5" width="63.9999" height="120" stroke="#000000" stroke-width="4.58333" stroke-linecap="round" stroke-linejoin="round" stroke-miterlimit="10" fill="#CAEEFB"/><text font-family="Arial,Arial_MSFontService,sans-serif" font-weight="400" font-size="46" transform="matrix(-1.83697e-16 -1 1 -1.83697e-16 1542.42 1185)">D5</text><rect x="1557.5" y="1085.5" width="65" height="120" stroke="#000000" stroke-width="4.58333" stroke-linecap="round" stroke-linejoin="round" stroke-miterlimit="10" fill="#CAEEFB"/><text font-family="Arial,Arial_MSFontService,sans-serif" font-weight="400" font-size="46" transform="matrix(-1.83697e-16 -1 1 -1.83697e-16 1607.12 1185)">D7</text><rect x="839.5" y="1221.5" width="63.9999" height="120" stroke="#000000" stroke-width="4.58333" stroke-linecap="round" stroke-linejoin="round" stroke-miterlimit="10" fill="#CAEEFB"/><text font-family="Arial,Arial_MSFontService,sans-serif" font-weight="400" font-size="46" transform="matrix(-1.83697e-16 -1 1 -1.83697e-16 888.616 1321)">D6</text><rect x="903.5" y="1221.5" width="64.9999" height="120" stroke="#000000" stroke-width="4.58333" stroke-linecap="round" stroke-linejoin="round" stroke-miterlimit="10" fill="#CAEEFB"/><text font-family="Arial,Arial_MSFontService,sans-serif" font-weight="400" font-size="46" transform="matrix(-1.83697e-16 -1 1 -1.83697e-16 953.319 1321)">D15</text><rect x="969.5" y="1221.5" width="64.9999" height="120" stroke="#000000" stroke-width="4.58333" stroke-linecap="round" stroke-linejoin="round" stroke-miterlimit="10" fill="#CAEEFB"/><text font-family="Arial,Arial_MSFontService,sans-serif" font-weight="400" font-size="46" transform="matrix(-1.83697e-16 -1 1 -1.83697e-16 1019.21 1321)">D7</text><rect x="1034.5" y="1221.5" width="65.0004" height="120" stroke="#000000" stroke-width="4.58333" stroke-linecap="round" stroke-linejoin="round" stroke-miterlimit="10" fill="#CAEEFB"/><text font-family="Arial,Arial_MSFontService,sans-serif" font-weight="400" font-size="46" transform="matrix(-1.83697e-16 -1 1 -1.83697e-16 1083.92 1321)">D2</text><rect x="1101.5" y="1221.5" width="65" height="120" stroke="#000000" stroke-width="4.58333" stroke-linecap="round" stroke-linejoin="round" stroke-miterlimit="10" fill="#CAEEFB"/><text font-family="Arial,Arial_MSFontService,sans-serif" font-weight="400" font-size="46" transform="matrix(-1.83697e-16 -1 1 -1.83697e-16 1150.85 1321)">D6</text><rect x="1164.5" y="1221.5" width="65" height="120" stroke="#000000" stroke-width="4.58333" stroke-linecap="round" stroke-linejoin="round" stroke-miterlimit="10" fill="#CAEEFB"/><text font-family="Arial,Arial_MSFontService,sans-serif" font-weight="400" font-size="46" transform="matrix(-1.83697e-16 -1 1 -1.83697e-16 1214.16 1321)">D12</text><rect x="1232.5" y="1221.5" width="64.0002" height="120" stroke="#000000" stroke-width="4.58333" stroke-linecap="round" stroke-linejoin="round" stroke-miterlimit="10" fill="#CAEEFB"/><text font-family="Arial,Arial_MSFontService,sans-serif" font-weight="400" font-size="46" transform="matrix(-1.83697e-16 -1 1 -1.83697e-16 1281.54 1321)">D6</text><rect x="1296.5" y="1221.5" width="65" height="120" stroke="#000000" stroke-width="4.58333" stroke-linecap="round" stroke-linejoin="round" stroke-miterlimit="10" fill="#CAEEFB"/><text font-family="Arial,Arial_MSFontService,sans-serif" font-weight="400" font-size="46" transform="matrix(-1.83697e-16 -1 1 -1.83697e-16 1346.24 1321)">D4</text><rect x="1363.5" y="1221.5" width="63.9999" height="120" stroke="#000000" stroke-width="4.58333" stroke-linecap="round" stroke-linejoin="round" stroke-miterlimit="10" fill="#FFCCCC"/><text font-family="Arial,Arial_MSFontService,sans-serif" font-weight="400" font-size="46" transform="matrix(-1.83697e-16 -1 1 -1.83697e-16 1412.64 1321)">D12</text><rect x="1427.5" y="1221.5" width="65" height="120" stroke="#000000" stroke-width="4.58333" stroke-linecap="round" stroke-linejoin="round" stroke-miterlimit="10" fill="#FFCCCC"/><text font-family="Arial,Arial_MSFontService,sans-serif" font-weight="400" font-size="46" transform="matrix(-1.83697e-16 -1 1 -1.83697e-16 1477.35 1321)">D14</text><rect x="1492.5" y="1221.5" width="65" height="120" stroke="#000000" stroke-width="4.58333" stroke-linecap="round" stroke-linejoin="round" stroke-miterlimit="10" fill="#FFCCCC"/><text font-family="Arial,Arial_MSFontService,sans-serif" font-weight="400" font-size="46" transform="matrix(-1.83697e-16 -1 1 -1.83697e-16 1541.72 1321)">D1</text><rect x="1557.5" y="1221.5" width="63.9999" height="120" stroke="#000000" stroke-width="4.58333" stroke-linecap="round" stroke-linejoin="round" stroke-miterlimit="10" fill="#FFCCCC"/><text font-family="Arial,Arial_MSFontService,sans-serif" font-weight="400" font-size="46" transform="matrix(-1.83697e-16 -1 1 -1.83697e-16 1606.43 1321)">D11</text><rect x="840.5" y="1356.5" width="65" height="119" stroke="#000000" stroke-width="4.58333" stroke-linecap="round" stroke-linejoin="round" stroke-miterlimit="10" fill="#FFCCCC"/><text font-family="Arial,Arial_MSFontService,sans-serif" font-weight="400" font-size="46" transform="matrix(-1.83697e-16 -1 1 -1.83697e-16 890.033 1456)">D10</text><rect x="905.5" y="1356.5" width="65" height="119" stroke="#000000" stroke-width="4.58333" stroke-linecap="round" stroke-linejoin="round" stroke-miterlimit="10" fill="#FFCCCC"/><text font-family="Arial,Arial_MSFontService,sans-serif" font-weight="400" font-size="46" transform="matrix(-1.83697e-16 -1 1 -1.83697e-16 954.736 1456)">D6</text><rect x="971.5" y="1356.5" width="63.9999" height="119" stroke="#000000" stroke-width="4.58333" stroke-linecap="round" stroke-linejoin="round" stroke-miterlimit="10" fill="#FFCCCC"/><text font-family="Arial,Arial_MSFontService,sans-serif" font-weight="400" font-size="46" transform="matrix(-1.83697e-16 -1 1 -1.83697e-16 1020.63 1456)">D12</text><rect x="1035.5" y="1356.5" width="65" height="119" stroke="#000000" stroke-width="4.58333" stroke-linecap="round" stroke-linejoin="round" stroke-miterlimit="10" fill="#FFCCCC"/><text font-family="Arial,Arial_MSFontService,sans-serif" font-weight="400" font-size="46" transform="matrix(-1.83697e-16 -1 1 -1.83697e-16 1085.33 1456)">D1</text><rect x="1101.5" y="1356.5" width="66" height="120" stroke="#000000" stroke-width="4.58333" stroke-linecap="round" stroke-linejoin="round" stroke-miterlimit="10" fill="#E5CDFF"/><text font-family="Arial,Arial_MSFontService,sans-serif" font-weight="400" font-size="41" transform="matrix(-1.83697e-16 -1 1 -1.83697e-16 1149.09 1470)">CTRL</text><rect x="1167.5" y="1356.5" width="66" height="120" stroke="#000000" stroke-width="4.58333" stroke-linecap="round" stroke-linejoin="round" stroke-miterlimit="10" fill="#E5CDFF"/><text font-family="Arial,Arial_MSFontService,sans-serif" font-weight="400" font-size="41" transform="matrix(-1.83697e-16 -1 1 -1.83697e-16 1214.98 1458)">E</text><text font-family="Arial,Arial_MSFontService,sans-serif" font-weight="400" font-size="41" transform="matrix(-1.83697e-16 -1 1 -1.83697e-16 1214.98 1431)">OF</text><rect x="1231.5" y="809.5" width="66" height="120" stroke="#000000" stroke-width="4.58333" stroke-linecap="round" stroke-linejoin="round" stroke-miterlimit="10" fill="#E5CDFF"/><text font-family="Arial,Arial_MSFontService,sans-serif" font-weight="400" font-size="41" transform="matrix(-1.83697e-16 -1 1 -1.83697e-16 1278.95 923)">CTRL</text><rect x="1297.5" y="809.5" width="66" height="120" stroke="#000000" stroke-width="4.58333" stroke-linecap="round" stroke-linejoin="round" stroke-miterlimit="10" fill="#E5CDFF"/><text font-family="Arial,Arial_MSFontService,sans-serif" font-weight="400" font-size="41" transform="matrix(-1.83697e-16 -1 1 -1.83697e-16 1344.85 926)">SYNC</text><rect x="1097.5" y="809.5" width="66" height="120" stroke="#000000" stroke-width="4.58333" stroke-linecap="round" stroke-linejoin="round" stroke-miterlimit="10" fill="#E5CDFF"/><rect x="1163.5" y="809.5" width="66" height="120" stroke="#000000" stroke-width="4.58333" stroke-linecap="round" stroke-linejoin="round" stroke-miterlimit="10" fill="#E5CDFF"/><rect x="969.5" y="809.5" width="65.9999" height="120" stroke="#000000" stroke-width="4.58333" stroke-linecap="round" stroke-linejoin="round" stroke-miterlimit="10" fill="#E5CDFF"/><rect x="1035.5" y="809.5" width="66" height="120" stroke="#000000" stroke-width="4.58333" stroke-linecap="round" stroke-linejoin="round" stroke-miterlimit="10" fill="#E5CDFF"/><rect x="841.5" y="809.5" width="66" height="120" stroke="#000000" stroke-width="4.58333" stroke-linecap="round" stroke-linejoin="round" stroke-miterlimit="10" fill="#E5CDFF"/><text font-family="Arial,Arial_MSFontService,sans-serif" font-weight="400" font-size="41" transform="matrix(-1.83697e-16 -1 1 -1.83697e-16 888.927 923)">CTRL</text><rect x="907.5" y="809.5" width="66" height="120" stroke="#000000" stroke-width="4.58333" stroke-linecap="round" stroke-linejoin="round" stroke-miterlimit="10" fill="#E5CDFF"/><text font-family="Arial,Arial_MSFontService,sans-serif" font-weight="400" font-size="41" transform="matrix(-1.83697e-16 -1 1 -1.83697e-16 954.821 926)">SYNC</text><rect x="1002" y="829" width="201" height="79.9998" fill="#E5CDFF"/><path d="M1021 869 1206 869" stroke="#000000" stroke-width="13.75" stroke-linecap="round" stroke-linejoin="round" stroke-miterlimit="10" stroke-dasharray="0 27.5" fill="none" fill-rule="evenodd"/><path d="M487.792 506.5 487.792 680.105C487.792 681.37 486.766 682.396 485.5 682.396 484.235 682.396 483.209 681.37 483.209 680.105L483.208 506.5C483.208 505.234 484.234 504.208 485.5 504.208 486.766 504.208 487.792 505.234 487.792 506.5ZM499.25 675.521 485.5 703.021 471.75 675.521Z"/><path d="M487.792 834.5 487.792 1431.56C487.792 1432.82 486.766 1433.85 485.5 1433.85 484.235 1433.85 483.209 1432.82 483.209 1431.56L483.208 834.5C483.208 833.234 484.234 832.208 485.5 832.208 486.766 832.208 487.792 833.234 487.792 834.5ZM499.25 1426.97 485.5 1454.47 471.75 1426.97Z"/><path d="M487.792 1586.5 487.792 1647.8C487.792 1649.07 486.766 1650.09 485.5 1650.09 484.234 1650.09 483.208 1649.07 483.208 1647.8L483.208 1586.5C483.208 1585.23 484.234 1584.21 485.5 1584.21 486.766 1584.21 487.792 1585.23 487.792 1586.5ZM499.25 1643.22 485.5 1670.72 471.75 1643.22Z"/><path d="M1975.79 529.417 1975.79 703.021C1975.79 704.287 1974.77 705.313 1973.5 705.313 1972.23 705.313 1971.21 704.287 1971.21 703.021L1971.21 529.417C1971.21 528.151 1972.23 527.125 1973.5 527.125 1974.77 527.125 1975.79 528.151 1975.79 529.417ZM1959.75 534 1973.5 506.5 1987.25 534Z"/><path d="M1975.79 857.416 1975.79 1454.47C1975.79 1455.74 1974.77 1456.76 1973.5 1456.76 1972.23 1456.76 1971.21 1455.74 1971.21 1454.47L1971.21 857.416C1971.21 856.15 1972.23 855.124 1973.5 855.124 1974.77 855.124 1975.79 856.15 1975.79 857.416ZM1959.75 862 1973.5 834.5 1987.25 862Z"/><path d="M1975.79 1609.42 1975.79 1670.72C1975.79 1671.98 1974.77 1673.01 1973.5 1673.01 1972.23 1673.01 1971.21 1671.98 1971.21 1670.72L1971.21 1609.42C1971.21 1608.15 1972.23 1607.12 1973.5 1607.12 1974.77 1607.12 1975.79 1608.15 1975.79 1609.42ZM1959.75 1614 1973.5 1586.5 1987.25 1614Z"/><path d="M487.792 272.5 487.792 352.021C487.792 353.287 486.766 354.313 485.5 354.313 484.235 354.313 483.208 353.287 483.208 352.021L483.208 272.5C483.208 271.234 484.234 270.208 485.5 270.208 486.766 270.208 487.792 271.234 487.792 272.5ZM499.25 347.438 485.5 374.938 471.75 347.438Z"/><path d="M1975.79 295.417 1975.79 374.938C1975.79 376.204 1974.77 377.23 1973.5 377.23 1972.23 377.23 1971.21 376.204 1971.21 374.938L1971.21 295.417C1971.21 294.151 1972.23 293.125 1973.5 293.125 1974.77 293.125 1975.79 294.151 1975.79 295.417ZM1959.75 300 1973.5 272.5 1987.25 300Z"/><path d="M487.792 1805.83 487.792 1939.5 485.5 1937.21 1975.5 1937.21 1973.21 1939.5 1973.21 1828.42C1973.21 1827.15 1974.23 1826.12 1975.5 1826.12 1976.77 1826.12 1977.79 1827.15 1977.79 1828.42L1977.79 1939.5C1977.79 1940.77 1976.77 1941.79 1975.5 1941.79L485.5 1941.79C484.234 1941.79 483.208 1940.77 483.208 1939.5L483.208 1805.83C483.208 1804.57 484.234 1803.54 485.5 1803.54 486.766 1803.54 487.792 1804.57 487.792 1805.83ZM1961.75 1833 1975.5 1805.5 1989.25 1833Z"/><text font-family="Arial,Arial_MSFontService,sans-serif" font-weight="700" font-size="55" transform="matrix(1 0 0 1 335.236 106)">Transmitter</text><text font-family="Arial,Arial_MSFontService,sans-serif" font-weight="700" font-size="55" transform="matrix(1 0 0 1 1855.68 106)">Receiver</text></g></svg>