<svg width="2265" height="1806" xmlns="http://www.w3.org/2000/svg" xmlns:xlink="http://www.w3.org/1999/xlink" xml:space="preserve" overflow="hidden"><defs><clipPath id="clip0"><rect x="72" y="31" width="2265" height="1806"/></clipPath></defs><g clip-path="url(#clip0)" transform="translate(-72 -31)"><rect x="71.9998" y="30.9999" width="2265" height="1806" fill="#FFFFFF"/><rect x="992.5" y="640.5" width="426" height="82.0002" stroke="#000000" stroke-width="4.58333" stroke-linecap="round" stroke-linejoin="round" stroke-miterlimit="10" fill="#FFFFFF"/><text font-family="Arial,Arial_MSFontService,sans-serif" font-weight="400" font-size="41" transform="matrix(1 0 0 1 1071.93 696)">Receiver::</text><text font-family="Arial,Arial_MSFontService,sans-serif" font-weight="400" font-size="41" transform="matrix(1 0 0 1 1257.55 696)">init</text><text font-family="Arial,Arial_MSFontService,sans-serif" font-weight="400" font-size="41" transform="matrix(1 0 0 1 1310.26 696)">()</text><rect x="992.5" y="312.5" width="426" height="82.0002" stroke="#000000" stroke-width="4.58333" stroke-linecap="round" stroke-linejoin="round" stroke-miterlimit="10" fill="#FFFFFF"/><text font-family="Arial,Arial_MSFontService,sans-serif" font-weight="400" font-size="41" transform="matrix(1 0 0 1 1101.72 368)">Setup ADC</text><rect x="992.5" y="1021.5" width="426" height="82.9999" stroke="#000000" stroke-width="4.58333" stroke-linecap="round" stroke-linejoin="round" stroke-miterlimit="10" fill="#FFFFFF"/><text font-family="Arial,Arial_MSFontService,sans-serif" font-weight="400" font-size="41" transform="matrix(1 0 0 1 1035.26 1078)">Receiver::update()</text><rect x="992.5" y="476.5" width="426" height="82.0002" stroke="#000000" stroke-width="4.58333" stroke-linecap="round" stroke-linejoin="round" stroke-miterlimit="10" fill="#FFFFFF"/><text font-family="Arial,Arial_MSFontService,sans-serif" font-weight="400" font-size="41" transform="matrix(1 0 0 1 1010.05 532)">Define</text><text font-family="Arial,Arial_MSFontService,sans-serif" font-weight="400" font-size="41" transform="matrix(1 0 0 1 1140.68 532)">Config Entries</text><rect x="992.5" y="1566.5" width="426" height="82.0001" stroke="#000000" stroke-width="4.58333" stroke-linecap="round" stroke-linejoin="round" stroke-miterlimit="10" fill="#FFFFFF"/><text font-family="Arial,Arial_MSFontService,sans-serif" font-weight="400" font-size="41" transform="matrix(1 0 0 1 1168.18 1622)">wait</text><path d="M1177 202.5C1177 187.312 1189.31 175 1204.5 175 1219.69 175 1232 187.312 1232 202.5 1232 217.688 1219.69 230 1204.5 230 1189.31 230 1177 217.688 1177 202.5Z" fill-rule="evenodd"/><path d="M723 1529.5C723 1514.31 735.312 1502 750.5 1502 765.688 1502 778 1514.31 778 1529.5 778 1544.69 765.688 1557 750.5 1557 735.312 1557 723 1544.69 723 1529.5Z" fill-rule="evenodd"/><path d="M1207.79 230.5 1207.79 289.451C1207.79 290.716 1206.77 291.742 1205.5 291.742 1204.23 291.742 1203.21 290.716 1203.21 289.451L1203.21 230.5C1203.21 229.235 1204.23 228.209 1205.5 228.208 1206.77 228.208 1207.79 229.235 1207.79 230.5ZM1219.25 284.867 1205.5 312.367 1191.75 284.867Z"/><path d="M1207.79 394.5 1207.79 453.45C1207.79 454.716 1206.77 455.742 1205.5 455.742 1204.23 455.742 1203.21 454.716 1203.21 453.45L1203.21 394.5C1203.21 393.234 1204.23 392.208 1205.5 392.208 1206.77 392.208 1207.79 393.234 1207.79 394.5ZM1219.25 448.867 1205.5 476.367 1191.75 448.867Z"/><path d="M1207.79 558.5 1207.79 617.45C1207.79 618.716 1206.77 619.742 1205.5 619.742 1204.23 619.742 1203.21 618.716 1203.21 617.45L1203.21 558.5C1203.21 557.234 1204.23 556.208 1205.5 556.208 1206.77 556.208 1207.79 557.234 1207.79 558.5ZM1219.25 612.867 1205.5 640.367 1191.75 612.867Z"/><path d="M1207.79 723.5 1207.79 835.189C1207.79 836.455 1206.77 837.481 1205.5 837.481 1204.23 837.481 1203.21 836.455 1203.21 835.189L1203.21 723.5C1203.21 722.234 1204.23 721.208 1205.5 721.208 1206.77 721.208 1207.79 722.234 1207.79 723.5ZM1219.25 830.606 1205.5 858.106 1191.75 830.606Z"/><path d="M1207.79 1105.5 1207.79 1164.45C1207.79 1165.72 1206.77 1166.74 1205.5 1166.74 1204.23 1166.74 1203.21 1165.72 1203.21 1164.45L1203.21 1105.5C1203.21 1104.23 1204.23 1103.21 1205.5 1103.21 1206.77 1103.21 1207.79 1104.23 1207.79 1105.5ZM1219.25 1159.87 1205.5 1187.37 1191.75 1159.87Z"/><path d="M1024.5 1242 1205.5 1188.5 1386.5 1242 1205.5 1295.5Z" stroke="#000000" stroke-width="4.58333" stroke-linecap="round" stroke-linejoin="round" stroke-miterlimit="10" fill="#FFFFFF" fill-rule="evenodd"/><text font-family="Arial,Arial_MSFontService,sans-serif" font-weight="400" font-size="41" transform="matrix(1 0 0 1 1093.7 1257)">Completed?</text><path d="M1024.5 1431 1205.5 1377.5 1386.5 1431 1205.5 1484.5Z" stroke="#000000" stroke-width="4.58333" stroke-linecap="round" stroke-linejoin="round" stroke-miterlimit="10" fill="#FFFFFF" fill-rule="evenodd"/><text font-family="Arial,Arial_MSFontService,sans-serif" font-weight="400" font-size="41" transform="matrix(1 0 0 1 1147.55 1446)">Error?</text><path d="M1207.79 1295.5 1207.79 1354.45C1207.79 1355.72 1206.77 1356.74 1205.5 1356.74 1204.23 1356.74 1203.21 1355.72 1203.21 1354.45L1203.21 1295.5C1203.21 1294.23 1204.23 1293.21 1205.5 1293.21 1206.77 1293.21 1207.79 1294.23 1207.79 1295.5ZM1219.25 1349.87 1205.5 1377.37 1191.75 1349.87Z"/><path d="M753.792 1377.5 753.792 1479C753.792 1480.27 752.766 1481.3 751.5 1481.3 750.235 1481.3 749.209 1480.27 749.209 1479L749.208 1377.5C749.208 1376.23 750.234 1375.21 751.5 1375.21 752.766 1375.21 753.792 1376.23 753.792 1377.5ZM765.25 1474.42 751.5 1501.92 737.75 1474.42Z"/><path d="M1207.79 1484.5 1207.79 1543.45C1207.79 1544.72 1206.77 1545.74 1205.5 1545.74 1204.23 1545.74 1203.21 1544.72 1203.21 1543.45L1203.21 1484.5C1203.21 1483.23 1204.23 1482.21 1205.5 1482.21 1206.77 1482.21 1207.79 1483.23 1207.79 1484.5ZM1219.25 1538.87 1205.5 1566.37 1191.75 1538.87Z"/><path d="M1205.5 1650.5 1205.5 1730.5 1685.5 1730.5" stroke="#000000" stroke-width="4.58333" stroke-linecap="round" stroke-linejoin="round" stroke-miterlimit="10" fill="none" fill-rule="evenodd"/><path d="M1683.21 1730.5 1683.21 787.5 1685.5 789.792 1228.42 789.792C1227.15 789.792 1226.13 788.766 1226.13 787.5 1226.13 786.234 1227.15 785.208 1228.42 785.208L1685.5 785.208C1686.77 785.208 1687.79 786.234 1687.79 787.5L1687.79 1730.5C1687.79 1731.77 1686.77 1732.79 1685.5 1732.79 1684.23 1732.79 1683.21 1731.77 1683.21 1730.5ZM1233 801.25 1205.5 787.5 1233 773.75Z"/><rect x="540.5" y="1295.5" width="426" height="81.9998" stroke="#000000" stroke-width="4.58333" stroke-linecap="round" stroke-linejoin="round" stroke-miterlimit="10" fill="#FFFFFF"/><text font-family="Arial,Arial_MSFontService,sans-serif" font-weight="400" font-size="41" transform="matrix(1 0 0 1 575.211 1351)">Pop Received Data</text><path d="M3.0291e-06-2.29167 250.117-2.29134C251.382-2.29133 252.408-1.26532 252.408 0.000333631 252.408 1.26599 251.382 2.292 250.117 2.292L-3.0291e-06 2.29167C-1.26566 2.29167-2.29167 1.26565-2.29167-3.0291e-06-2.29167-1.26566-1.26565-2.29167 3.0291e-06-2.29167ZM245.533-13.7497 273.033 0.000360892 245.533 13.7503Z" transform="matrix(-1 0 0 1 1024.53 1432.5)"/><path d="M2.29167 22.9167 2.29167 55 0 52.7083 273 52.7083C274.266 52.7083 275.292 53.7343 275.292 55 275.292 56.2657 274.266 57.2917 273 57.2917L0 57.2917C-1.26565 57.2917-2.29167 56.2657-2.29167 55L-2.29167 22.9167C-2.29167 21.651-1.26565 20.625 0 20.625 1.26565 20.625 2.29167 21.651 2.29167 22.9167ZM-13.75 27.5 0 0 13.75 27.5Z" transform="matrix(1 0 0 -1 751.5 1295.5)"/><path d="M1432.32 1201.56 1433.14 1180.31 1434.3 1158.81 1435.7 1137.76 1437.35 1117.17 1439.24 1097.07 1441.35 1077.49 1443.69 1058.44 1446.25 1039.96 1449.02 1022.07 1451.99 1004.79 1455.15 988.153 1458.5 972.175 1462.03 956.883 1465.73 942.302 1469.61 928.457 1473.64 915.37 1477.82 903.068 1482.15 891.571 1486.63 880.906 1491.24 871.094 1495.98 862.158 1500.85 854.122 1505.84 847.008 1510.96 840.839 1516.22 835.64 1521.61 831.439C1521.69 831.371 1521.79 831.31 1521.88 831.256L1527.14 828.272C1527.26 828.208 1527.37 828.154 1527.5 828.109L1532.83 826.188C1532.97 826.138 1533.11 826.101 1533.25 826.079L1538.65 825.244C1538.8 825.22 1538.96 825.212 1539.12 825.22L1544.56 825.497C1544.72 825.505 1544.87 825.528 1545.02 825.566L1550.52 826.98C1550.65 827.015 1550.78 827.062 1550.91 827.121L1556.38 829.664C1556.49 829.715 1556.6 829.775 1556.7 829.843L1562.08 833.47 1567.59 838.339 1572.93 844.223 1578.11 851.085 1583.14 858.895 1588.02 867.623 1592.75 877.243 1597.32 887.727 1601.74 899.047 1606.01 911.176 1610.11 924.086 1614.04 937.747 1617.8 952.132 1621.38 967.211 1624.78 982.956 1627.99 999.337 1631.01 1016.33 1633.82 1033.89 1636.43 1052.01 1638.82 1070.64 1641 1089.77 1642.95 1109.35 1644.67 1129.37 1646.15 1149.79 1647.39 1170.58 1649.11 1213.14 1649.79 1256.85 1649.37 1301.46 1648.75 1323.78 1647.86 1345.69 1646.7 1367.19 1645.3 1388.24 1643.65 1408.83 1641.76 1428.93 1639.65 1448.51 1637.31 1467.55 1634.75 1486.04 1631.98 1503.93 1629.01 1521.21 1625.85 1537.85 1622.5 1553.82 1618.97 1569.12 1615.26 1583.7 1611.39 1597.54 1607.36 1610.63 1603.18 1622.93 1598.85 1634.43 1594.37 1645.09 1589.76 1654.91 1585.02 1663.84 1580.15 1671.88 1575.16 1678.99 1570.04 1685.16 1564.78 1690.36 1559.39 1694.56C1559.31 1694.63 1559.21 1694.69 1559.12 1694.74L1553.86 1697.73C1553.74 1697.79 1553.63 1697.85 1553.5 1697.89L1548.17 1699.81C1548.03 1699.86 1547.89 1699.9 1547.75 1699.92L1542.35 1700.76C1542.2 1700.78 1542.04 1700.79 1541.88 1700.78L1536.44 1700.5C1536.28 1700.49 1536.13 1700.47 1535.98 1700.43L1530.48 1699.02C1530.36 1698.99 1530.23 1698.94 1530.11 1698.89L1525.25 1696.68C1525.15 1696.64 1525.05 1696.58 1524.96 1696.53L1520.17 1693.46 1515.23 1689.38 1510.42 1684.48 1505.73 1678.78 1501.16 1672.32 1496.71 1665.1 1492.38 1657.16 1488.16 1648.49 1484.06 1639.13 1480.08 1629.1 1476.22 1618.4 1472.49 1607.06 1468.89 1595.1 1465.43 1582.54 1462.1 1569.39 1458.92 1555.68 1455.88 1541.43 1453 1526.65 1450.27 1511.36 1447.71 1495.59 1445.31 1479.35 1443.08 1462.66 1441.03 1445.54 1439.16 1428.02 1437.47 1410.1 1434.67 1373.2 1432.67 1334.97 1431.51 1295.58C1431.47 1294.31 1432.47 1293.26 1433.73 1293.22 1435 1293.18 1436.05 1294.18 1436.09 1295.44L1437.25 1334.73 1439.24 1372.85 1442.04 1409.67 1443.72 1427.53 1445.58 1444.99 1447.63 1462.05 1449.84 1478.68 1452.23 1494.85 1454.79 1510.56 1457.5 1525.77 1460.37 1540.47 1463.38 1554.65 1466.55 1568.27 1469.85 1581.32 1473.28 1593.78 1476.85 1605.63 1480.54 1616.84 1484.34 1627.41 1488.26 1637.29 1492.28 1646.49 1496.41 1654.96 1500.62 1662.7 1504.91 1669.68 1509.27 1675.87 1513.69 1681.27 1518.15 1685.85 1522.64 1689.6 1527.43 1692.67 1527.14 1692.51 1532 1694.71 1531.63 1694.58 1537.12 1695.99 1536.67 1695.92 1542.12 1696.2 1541.65 1696.23 1547.04 1695.39 1546.62 1695.5 1551.95 1693.58 1551.6 1693.74 1556.86 1690.76 1556.58 1690.94 1561.56 1687.1 1566.51 1682.23 1571.41 1676.35 1576.23 1669.5 1580.97 1661.69 1585.62 1652.96 1590.15 1643.32 1594.56 1632.81 1598.84 1621.46 1602.98 1609.28 1606.98 1596.31 1610.82 1582.57 1614.5 1568.08 1618.01 1552.88 1621.35 1536.99 1624.5 1520.43 1627.45 1503.23 1630.21 1485.41 1632.76 1467 1635.09 1448.02 1637.2 1428.5 1639.08 1408.46 1640.73 1387.93 1642.13 1366.94 1643.28 1345.5 1644.17 1323.65 1644.79 1301.42 1645.21 1256.93 1644.53 1213.33 1642.81 1170.85 1641.58 1150.12 1640.1 1129.76 1638.39 1109.81 1636.44 1090.29 1634.28 1071.23 1631.89 1052.66 1629.3 1034.62 1626.5 1017.13 1623.5 1000.22 1620.3 983.923 1616.93 968.27 1613.37 953.291 1609.64 939.015 1605.74 925.473 1601.68 912.696 1597.47 900.714 1593.12 889.56 1588.63 879.263 1584.02 869.857 1579.29 861.373 1574.45 853.843 1569.53 847.298 1564.55 841.766 1559.51 837.269 1554.14 833.642 1554.45 833.821 1548.98 831.278 1549.37 831.419 1543.88 830.005 1544.33 830.075 1538.88 829.797 1539.35 829.773 1533.96 830.608 1534.38 830.499 1529.05 832.421 1529.4 832.259 1524.14 835.243 1524.42 835.06 1519.44 838.902 1514.49 843.77 1509.59 849.644 1504.77 856.499 1500.03 864.308 1495.38 873.043 1490.85 882.679 1486.44 893.188 1482.16 904.544 1478.02 916.72 1474.02 929.691 1470.18 943.431 1466.5 957.914 1462.99 973.115 1459.65 989.009 1456.5 1005.57 1453.55 1022.77 1450.79 1040.59 1448.24 1059 1445.91 1077.98 1443.8 1097.5 1441.92 1117.54 1440.27 1138.07 1438.87 1159.06 1437.72 1180.49 1436.9 1201.74C1436.86 1203 1435.79 1203.99 1434.53 1203.94 1433.26 1203.89 1432.28 1202.83 1432.32 1201.56ZM1448.5 1197.49 1433.92 1224.56 1421.01 1196.65Z"/><text font-family="Arial,Arial_MSFontService,sans-serif" font-weight="400" font-size="41" transform="matrix(1 0 0 1 1489.42 1225)">10ms</text><text font-family="Arial,Arial_MSFontService,sans-serif" font-weight="400" font-size="41" transform="matrix(1 0 0 1 1472.24 1275)">Interval</text><text font-family="Arial,Arial_MSFontService,sans-serif" font-weight="400" font-size="41" transform="matrix(1 0 0 1 1494.01 1324)">Loop</text><text font-family="Arial,Arial_MSFontService,sans-serif" font-weight="400" font-size="41" transform="matrix(1 0 0 1 1161.3 149)">Start</text><text font-family="Arial,Arial_MSFontService,sans-serif" font-weight="400" font-size="41" transform="matrix(1 0 0 1 668.542 1610)">Finished</text><rect x="992.5" y="857.5" width="426" height="81.9998" stroke="#000000" stroke-width="4.58333" stroke-linecap="round" stroke-linejoin="round" stroke-miterlimit="10" fill="#FFFFFF"/><text font-family="Arial,Arial_MSFontService,sans-serif" font-weight="400" font-size="41" transform="matrix(1 0 0 1 1047.86 914)">Read ADC Value</text><path d="M1207.79 940.5 1207.79 999.45C1207.79 1000.72 1206.77 1001.74 1205.5 1001.74 1204.23 1001.74 1203.21 1000.72 1203.21 999.45L1203.21 940.5C1203.21 939.234 1204.23 938.208 1205.5 938.208 1206.77 938.208 1207.79 939.234 1207.79 940.5ZM1219.25 994.867 1205.5 1022.37 1191.75 994.867Z"/></g></svg>