<svg width="2262" height="1969" xmlns="http://www.w3.org/2000/svg" xmlns:xlink="http://www.w3.org/1999/xlink" xml:space="preserve" overflow="hidden"><defs><clipPath id="clip0"><rect x="739" y="193" width="2262" height="1969"/></clipPath></defs><g clip-path="url(#clip0)" transform="translate(-739 -193)"><rect x="739" y="193" width="2262" height="1969" fill="#FFFFFF"/><rect x="992.5" y="778.5" width="426" height="81.9998" stroke="#000000" stroke-width="4.58333" stroke-linecap="round" stroke-linejoin="round" stroke-miterlimit="10" fill="#FFFFFF"/><text font-family="Arial,Arial_MSFontService,sans-serif" font-weight="400" font-size="41" transform="matrix(1 0 0 1 1071.93 834)">Receiver::</text><text font-family="Arial,Arial_MSFontService,sans-serif" font-weight="400" font-size="41" transform="matrix(1 0 0 1 1257.55 834)">init</text><text font-family="Arial,Arial_MSFontService,sans-serif" font-weight="400" font-size="41" transform="matrix(1 0 0 1 1310.26 834)">()</text><rect x="992.5" y="555.5" width="426" height="82.9998" stroke="#000000" stroke-width="4.58333" stroke-linecap="round" stroke-linejoin="round" stroke-miterlimit="10" fill="#FFFFFF"/><text font-family="Arial,Arial_MSFontService,sans-serif" font-weight="400" font-size="41" transform="matrix(1 0 0 1 1101.72 612)">Setup ADC</text><rect x="992.5" y="997.5" width="426" height="135" stroke="#000000" stroke-width="4.58333" stroke-linecap="round" stroke-linejoin="round" stroke-miterlimit="10" fill="#FFFFFF"/><text font-family="Arial,Arial_MSFontService,sans-serif" font-weight="400" font-size="41" transform="matrix(1 0 0 1 1042.13 1055)">Read ADC Value,</text><text font-family="Arial,Arial_MSFontService,sans-serif" font-weight="400" font-size="41" transform="matrix(1 0 0 1 1035.26 1105)">Receiver::update()</text><rect x="992.5" y="390.5" width="426" height="115" stroke="#000000" stroke-width="4.58333" stroke-linecap="round" stroke-linejoin="round" stroke-miterlimit="10" fill="#FFFFFF"/><text font-family="Arial,Arial_MSFontService,sans-serif" font-weight="400" font-size="41" transform="matrix(1 0 0 1 1004.32 438)">Define Config Entries,</text><text font-family="Arial,Arial_MSFontService,sans-serif" font-weight="400" font-size="41" transform="matrix(1 0 0 1 1022.65 488)">Instantiate </text><text font-family="Arial,Arial_MSFontService,sans-serif" font-weight="400" font-size="41" transform="matrix(1 0 0 1 1224.32 488)">Receiver</text><rect x="992.5" y="1566.5" width="426" height="82.0001" stroke="#000000" stroke-width="4.58333" stroke-linecap="round" stroke-linejoin="round" stroke-miterlimit="10" fill="#FFFFFF"/><text font-family="Arial,Arial_MSFontService,sans-serif" font-weight="400" font-size="41" transform="matrix(1 0 0 1 1168.18 1622)">wait</text><path d="M1177 309.5C1177 294.312 1189.31 282 1204.5 282 1219.69 282 1232 294.312 1232 309.5 1232 324.688 1219.69 337 1204.5 337 1189.31 337 1177 324.688 1177 309.5Z" fill-rule="evenodd"/><path d="M1176 2025.5C1176 2010.31 1188.31 1998 1203.5 1998 1218.69 1998 1231 2010.31 1231 2025.5 1231 2040.69 1218.69 2053 1203.5 2053 1188.31 2053 1176 2040.69 1176 2025.5Z" fill-rule="evenodd"/><path d="M1207.79 863.5 1207.79 975.189C1207.79 976.455 1206.77 977.481 1205.5 977.481 1204.23 977.481 1203.21 976.455 1203.21 975.189L1203.21 863.5C1203.21 862.234 1204.23 861.208 1205.5 861.208 1206.77 861.208 1207.79 862.234 1207.79 863.5ZM1219.25 970.606 1205.5 998.106 1191.75 970.606Z"/><path d="M1207.79 1134.5 1207.79 1163.62C1207.79 1164.88 1206.77 1165.91 1205.5 1165.91 1204.23 1165.91 1203.21 1164.88 1203.21 1163.62L1203.21 1134.5C1203.21 1133.23 1204.23 1132.21 1205.5 1132.21 1206.77 1132.21 1207.79 1133.23 1207.79 1134.5ZM1219.25 1159.03 1205.5 1186.53 1191.75 1159.03Z"/><path d="M1024.5 1242 1205.5 1188.5 1386.5 1242 1205.5 1295.5Z" stroke="#000000" stroke-width="4.58333" stroke-linecap="round" stroke-linejoin="round" stroke-miterlimit="10" fill="#FFFFFF" fill-rule="evenodd"/><text font-family="Arial,Arial_MSFontService,sans-serif" font-weight="400" font-size="41" transform="matrix(1 0 0 1 1147.55 1257)">Error?</text><path d="M1024.5 1431 1205.5 1377.5 1386.5 1431 1205.5 1484.5Z" stroke="#000000" stroke-width="4.58333" stroke-linecap="round" stroke-linejoin="round" stroke-miterlimit="10" fill="#FFFFFF" fill-rule="evenodd"/><text font-family="Arial,Arial_MSFontService,sans-serif" font-weight="400" font-size="41" transform="matrix(1 0 0 1 1093.7 1446)">Completed?</text><path d="M1207.79 1295.5 1207.79 1354.45C1207.79 1355.72 1206.77 1356.74 1205.5 1356.74 1204.23 1356.74 1203.21 1355.72 1203.21 1354.45L1203.21 1295.5C1203.21 1294.23 1204.23 1293.21 1205.5 1293.21 1206.77 1293.21 1207.79 1294.23 1207.79 1295.5ZM1219.25 1349.87 1205.5 1377.37 1191.75 1349.87Z"/><path d="M1207.79 1484.5 1207.79 1543.45C1207.79 1544.72 1206.77 1545.74 1205.5 1545.74 1204.23 1545.74 1203.21 1544.72 1203.21 1543.45L1203.21 1484.5C1203.21 1483.23 1204.23 1482.21 1205.5 1482.21 1206.77 1482.21 1207.79 1483.23 1207.79 1484.5ZM1219.25 1538.87 1205.5 1566.37 1191.75 1538.87Z"/><rect x="992.5" y="1834.5" width="426" height="114" stroke="#000000" stroke-width="4.58333" stroke-linecap="round" stroke-linejoin="round" stroke-miterlimit="10" fill="#FFFFFF"/><text font-family="Arial,Arial_MSFontService,sans-serif" font-weight="400" font-size="41" transform="matrix(1 0 0 1 1130.36 1882)">Process</text><text font-family="Arial,Arial_MSFontService,sans-serif" font-weight="400" font-size="41" transform="matrix(1 0 0 1 1069.63 1932)">Received Data</text><text font-family="Arial,Arial_MSFontService,sans-serif" font-weight="400" font-size="41" transform="matrix(1 0 0 1 859.154 1292)">10ms</text><text font-family="Arial,Arial_MSFontService,sans-serif" font-weight="400" font-size="41" transform="matrix(1 0 0 1 841.967 1342)">Interval</text><text font-family="Arial,Arial_MSFontService,sans-serif" font-weight="400" font-size="41" transform="matrix(1 0 0 1 863.738 1391)">Loop</text><text font-family="Arial,Arial_MSFontService,sans-serif" font-weight="400" font-size="41" transform="matrix(1 0 0 1 1161.3 267)">Start</text><text font-family="Arial,Arial_MSFontService,sans-serif" font-weight="400" font-size="41" transform="matrix(1 0 0 1 1126.93 2106)">Finished</text><text font-family="Arial,Arial_MSFontService,sans-serif" font-weight="400" font-size="41" transform="matrix(1 0 0 1 1318.83 1306)">Yes</text><text font-family="Arial,Arial_MSFontService,sans-serif" font-weight="400" font-size="41" transform="matrix(1 0 0 1 1291.35 1356)">(Retry)</text><text font-family="Arial,Arial_MSFontService,sans-serif" font-weight="400" font-size="41" transform="matrix(1 0 0 1 1134.09 1333)">No</text><text font-family="Arial,Arial_MSFontService,sans-serif" font-weight="400" font-size="41" transform="matrix(1 0 0 1 1320.28 1492)">Yes</text><text font-family="Arial,Arial_MSFontService,sans-serif" font-weight="400" font-size="41" transform="matrix(1 0 0 1 1134.09 1522)">No</text><path d="M1207.79 505.5 1207.79 534.618C1207.79 535.884 1206.77 536.91 1205.5 536.91 1204.23 536.91 1203.21 535.884 1203.21 534.618L1203.21 505.5C1203.21 504.235 1204.23 503.208 1205.5 503.208 1206.77 503.208 1207.79 504.234 1207.79 505.5ZM1219.25 530.035 1205.5 557.535 1191.75 530.035Z"/><path d="M1207.79 338.5 1207.79 367.618C1207.79 368.884 1206.77 369.91 1205.5 369.91 1204.23 369.91 1203.21 368.884 1203.21 367.618L1203.21 338.5C1203.21 337.234 1204.23 336.208 1205.5 336.208 1206.77 336.208 1207.79 337.234 1207.79 338.5ZM1219.25 363.035 1205.5 390.535 1191.75 363.035Z"/><path d="M1207.79 641.5 1207.79 753.189C1207.79 754.455 1206.77 755.481 1205.5 755.481 1204.23 755.481 1203.21 754.455 1203.21 753.189L1203.21 641.5C1203.21 640.234 1204.23 639.208 1205.5 639.208 1206.77 639.208 1207.79 640.234 1207.79 641.5ZM1219.25 748.606 1205.5 776.106 1191.75 748.606Z"/><path d="M1206.79 1948.5 1206.79 1977.62C1206.79 1978.88 1205.77 1979.91 1204.5 1979.91 1203.23 1979.91 1202.21 1978.88 1202.21 1977.62L1202.21 1948.5C1202.21 1947.23 1203.23 1946.21 1204.5 1946.21 1205.77 1946.21 1206.79 1947.23 1206.79 1948.5ZM1218.25 1973.03 1204.5 2000.53 1190.75 1973.03Z"/><path d="M1521.5 1754.5 1521.5 1432.5 1390.5 1432.5" stroke="#000000" stroke-width="4.58333" stroke-linecap="round" stroke-linejoin="round" stroke-miterlimit="10" fill="none" fill-rule="evenodd"/><path d="M1387.5 1241.5 1521.19 1241.5" stroke="#000000" stroke-width="4.58333" stroke-linecap="round" stroke-linejoin="round" stroke-miterlimit="10" fill="none" fill-rule="evenodd"/><path d="M1520.21 1241.5 1520.21 704.5 1522.5 706.792 1232.42 706.792C1231.15 706.792 1230.13 705.766 1230.13 704.5 1230.13 703.234 1231.15 702.208 1232.42 702.208L1522.5 702.208C1523.77 702.208 1524.79 703.234 1524.79 704.5L1524.79 1241.5C1524.79 1242.77 1523.77 1243.79 1522.5 1243.79 1521.23 1243.79 1520.21 1242.77 1520.21 1241.5ZM1237 718.25 1209.5 704.5 1237 690.75Z"/><path d="M2.29167 22.9167 2.29167 79.0001 0 76.7084 312 76.7084C313.265 76.7084 314.291 77.7344 314.291 79.0001 314.291 80.2657 313.265 81.2917 312 81.2917L0 81.2917C-1.26565 81.2917-2.29167 80.2657-2.29167 79.0001L-2.29167 22.9167C-2.29167 21.651-1.26565 20.625 0 20.625 1.26565 20.625 2.29167 21.651 2.29167 22.9167ZM-13.75 27.5 0 0 13.75 27.5Z" transform="matrix(1 0 0 -1 1208.5 1834.5)"/><path d="M1657.5 300.439C1657.5 290.532 1665.53 282.5 1675.44 282.5L2931.56 282.5C2941.47 282.5 2949.5 290.532 2949.5 300.439L2949.5 950.561C2949.5 960.468 2941.47 968.5 2931.56 968.5L1675.44 968.5C1665.53 968.5 1657.5 960.468 1657.5 950.561Z" stroke="#000000" stroke-width="4.58333" stroke-linecap="round" stroke-linejoin="round" stroke-miterlimit="10" fill="#F2F2F2" fill-rule="evenodd"/><text fill="#4EA72E" font-family="Courier New,Courier New_MSFontService,sans-serif" font-weight="400" font-size="32" transform="matrix(1 0 0 1 1688.57 345)">// </text><text fill="#4EA72E" font-family="Courier New,Courier New_MSFontService,sans-serif" font-weight="400" font-size="32" transform="matrix(1 0 0 1 1747.01 345)">Config</text><text fill="#4EA72E" font-family="Courier New,Courier New_MSFontService,sans-serif" font-weight="400" font-size="32" transform="matrix(1 0 0 1 1883.36 345)">keys</text><text fill="#0070C0" font-family="Courier New,Courier New_MSFontService,sans-serif" font-weight="400" font-size="32" transform="matrix(1 0 0 1 1688.57 384)">const </text><text fill="#0070C0" font-family="Courier New,Courier New_MSFontService,sans-serif" font-weight="400" font-size="32" transform="matrix(1 0 0 1 1805.45 384)">char </text><text font-family="Courier New,Courier New_MSFontService,sans-serif" font-weight="400" font-size="32" transform="matrix(1 0 0 1 1902.84 384)">*KEY</text><text font-family="Courier New,Courier New_MSFontService,sans-serif" font-weight="400" font-size="32" transform="matrix(1 0 0 1 1980.76 384)">_SSID </text><text font-family="Courier New,Courier New_MSFontService,sans-serif" font-weight="400" font-size="32" transform="matrix(1 0 0 1 2097.63 384)">= </text><text fill="#74512A" font-family="Courier New,Courier New_MSFontService,sans-serif" font-weight="400" font-size="32" transform="matrix(1 0 0 1 2136.59 384)">"s"</text><text font-family="Courier New,Courier New_MSFontService,sans-serif" font-weight="400" font-size="32" transform="matrix(1 0 0 1 2195.03 384)">;</text><text fill="#0070C0" font-family="Courier New,Courier New_MSFontService,sans-serif" font-weight="400" font-size="32" transform="matrix(1 0 0 1 1688.57 422)">const char </text><text font-family="Courier New,Courier New_MSFontService,sans-serif" font-weight="400" font-size="32" transform="matrix(1 0 0 1 1902.84 422)">*KEY_PASS = </text><text fill="#74512A" font-family="Courier New,Courier New_MSFontService,sans-serif" font-weight="400" font-size="32" transform="matrix(1 0 0 1 2136.59 422)">"p</text><text fill="#74512A" font-family="Courier New,Courier New_MSFontService,sans-serif" font-weight="400" font-size="32" transform="matrix(1 0 0 1 2175.55 422)">"</text><text font-family="Courier New,Courier New_MSFontService,sans-serif" font-weight="400" font-size="32" transform="matrix(1 0 0 1 2195.03 422)">;</text><text fill="#4EA72E" font-family="Courier New,Courier New_MSFontService,sans-serif" font-weight="400" font-size="32" transform="matrix(1 0 0 1 1688.57 499)">// Config </text><text fill="#4EA72E" font-family="Courier New,Courier New_MSFontService,sans-serif" font-weight="400" font-size="32" transform="matrix(1 0 0 1 1883.36 499)">value buffer</text><text fill="#0070C0" font-family="Courier New,Courier New_MSFontService,sans-serif" font-weight="400" font-size="32" transform="matrix(1 0 0 1 1688.57 538)">char</text><text font-family="Courier New,Courier New_MSFontService,sans-serif" font-weight="400" font-size="32" transform="matrix(1 0 0 1 1785.97 538)">ssid</text><text font-family="Courier New,Courier New_MSFontService,sans-serif" font-weight="400" font-size="32" transform="matrix(1 0 0 1 1863.88 538)">[</text><text font-family="Courier New,Courier New_MSFontService,sans-serif" font-weight="400" font-size="32" transform="matrix(1 0 0 1 1883.36 538)">32 + 1];</text><text fill="#0070C0" font-family="Courier New,Courier New_MSFontService,sans-serif" font-weight="400" font-size="32" transform="matrix(1 0 0 1 1688.57 576)">char</text><text font-family="Courier New,Courier New_MSFontService,sans-serif" font-weight="400" font-size="32" transform="matrix(1 0 0 1 1785.97 576)">pass[</text><text font-family="Courier New,Courier New_MSFontService,sans-serif" font-weight="400" font-size="32" transform="matrix(1 0 0 1 1883.36 576)">32 + 1</text><text font-family="Courier New,Courier New_MSFontService,sans-serif" font-weight="400" font-size="32" transform="matrix(1 0 0 1 2000.24 576)">];</text><text fill="#4EA72E" font-family="Courier New,Courier New_MSFontService,sans-serif" font-weight="400" font-size="32" transform="matrix(1 0 0 1 1688.57 653)">// Config </text><text fill="#4EA72E" font-family="Courier New,Courier New_MSFontService,sans-serif" font-weight="400" font-size="32" transform="matrix(1 0 0 1 1883.36 653)">entry definitions</text><text fill="#A02B93" font-family="Courier New,Courier New_MSFontService,sans-serif" font-weight="400" font-size="32" transform="matrix(1 0 0 1 1688.57 692)">ConfigEntry</text><text font-family="Courier New,Courier New_MSFontService,sans-serif" font-weight="400" font-size="32" transform="matrix(1 0 0 1 1922.32 692)">configEntries</text><text font-family="Courier New,Courier New_MSFontService,sans-serif" font-weight="400" font-size="32" transform="matrix(1 0 0 1 2175.55 692)">[] = {</text><text font-family="Courier New,Courier New_MSFontService,sans-serif" font-weight="400" font-size="32" transform="matrix(1 0 0 1 1766.49 730)">{KEY</text><text font-family="Courier New,Courier New_MSFontService,sans-serif" font-weight="400" font-size="32" transform="matrix(1 0 0 1 1844.4 730)">_SSID, </text><text font-family="Courier New,Courier New_MSFontService,sans-serif" font-weight="400" font-size="32" transform="matrix(1 0 0 1 1980.76 730)">ssid</text><text font-family="Courier New,Courier New_MSFontService,sans-serif" font-weight="400" font-size="32" transform="matrix(1 0 0 1 2058.68 730)">, </text><text fill="#A02B93" font-family="Courier New,Courier New_MSFontService,sans-serif" font-weight="400" font-size="32" transform="matrix(1 0 0 1 2097.63 730)">ValueType</text><text font-family="Courier New,Courier New_MSFontService,sans-serif" font-weight="400" font-size="32" transform="matrix(1 0 0 1 2272.95 730)">::TEXT_STR, </text><text fill="#0070C0" font-family="Courier New,Courier New_MSFontService,sans-serif" font-weight="400" font-size="32" transform="matrix(1 0 0 1 2506.7 730)">sizeof</text><text font-family="Courier New,Courier New_MSFontService,sans-serif" font-weight="400" font-size="32" transform="matrix(1 0 0 1 2623.57 730)">(</text><text font-family="Courier New,Courier New_MSFontService,sans-serif" font-weight="400" font-size="32" transform="matrix(1 0 0 1 2643.05 730)">text)},</text><text font-family="Courier New,Courier New_MSFontService,sans-serif" font-weight="400" font-size="32" transform="matrix(1 0 0 1 1766.49 769)">{KEY_</text><text font-family="Courier New,Courier New_MSFontService,sans-serif" font-weight="400" font-size="32" transform="matrix(1 0 0 1 1863.88 769)">PASS</text><text font-family="Courier New,Courier New_MSFontService,sans-serif" font-weight="400" font-size="32" transform="matrix(1 0 0 1 1941.8 769)">, </text><text font-family="Courier New,Courier New_MSFontService,sans-serif" font-weight="400" font-size="32" transform="matrix(1 0 0 1 1980.76 769)">pass, </text><text fill="#A02B93" font-family="Courier New,Courier New_MSFontService,sans-serif" font-weight="400" font-size="32" transform="matrix(1 0 0 1 2097.63 769)">ValueType</text><text font-family="Courier New,Courier New_MSFontService,sans-serif" font-weight="400" font-size="32" transform="matrix(1 0 0 1 2272.95 769)">::TEXT_STR, </text><text fill="#0070C0" font-family="Courier New,Courier New_MSFontService,sans-serif" font-weight="400" font-size="32" transform="matrix(1 0 0 1 2506.7 769)">sizeof</text><text font-family="Courier New,Courier New_MSFontService,sans-serif" font-weight="400" font-size="32" transform="matrix(1 0 0 1 2623.57 769)">(</text><text font-family="Courier New,Courier New_MSFontService,sans-serif" font-weight="400" font-size="32" transform="matrix(1 0 0 1 2643.05 769)">pass)},</text><text font-family="Courier New,Courier New_MSFontService,sans-serif" font-weight="400" font-size="32" transform="matrix(1 0 0 1 1766.49 807)">{</text><text fill="#0070C0" font-family="Courier New,Courier New_MSFontService,sans-serif" font-weight="400" font-size="32" transform="matrix(1 0 0 1 1785.97 807)">nullptr</text><text font-family="Courier New,Courier New_MSFontService,sans-serif" font-weight="400" font-size="32" transform="matrix(1 0 0 1 1922.32 807)">, </text><text fill="#0070C0" font-family="Courier New,Courier New_MSFontService,sans-serif" font-weight="400" font-size="32" transform="matrix(1 0 0 1 1961.28 807)">nullptr</text><text font-family="Courier New,Courier New_MSFontService,sans-serif" font-weight="400" font-size="32" transform="matrix(1 0 0 1 2097.63 807)">, </text><text fill="#A02B93" font-family="Courier New,Courier New_MSFontService,sans-serif" font-weight="400" font-size="32" transform="matrix(1 0 0 1 2136.59 807)">ValueType</text><text font-family="Courier New,Courier New_MSFontService,sans-serif" font-weight="400" font-size="32" transform="matrix(1 0 0 1 2311.9 807)">::NONE, 0}, </text><text fill="#4EA72E" font-family="Courier New,Courier New_MSFontService,sans-serif" font-weight="400" font-size="32" transform="matrix(1 0 0 1 2545.65 807)">// </text><text fill="#4EA72E" font-family="Courier New,Courier New_MSFontService,sans-serif" font-weight="400" font-size="32" transform="matrix(1 0 0 1 2604.09 807)">terminator</text><text font-family="Courier New,Courier New_MSFontService,sans-serif" font-weight="400" font-size="32" transform="matrix(1 0 0 1 1688.57 846)">};</text><text fill="#A02B93" font-family="Courier New,Courier New_MSFontService,sans-serif" font-weight="400" font-size="32" transform="matrix(1 0 0 1 1688.57 923)">Receiver</text><text font-family="Courier New,Courier New_MSFontService,sans-serif" font-weight="400" font-size="32" transform="matrix(1 0 0 1 1863.88 923)">receiver(256);</text><path d="M1657.5 1030.48C1657.5 1020.55 1665.55 1012.5 1675.48 1012.5L2931.52 1012.5C2941.45 1012.5 2949.5 1020.55 2949.5 1030.48L2949.5 1089.52C2949.5 1099.45 2941.45 1107.5 2931.52 1107.5L1675.48 1107.5C1665.55 1107.5 1657.5 1099.45 1657.5 1089.52Z" stroke="#000000" stroke-width="4.58333" stroke-linecap="round" stroke-linejoin="round" stroke-miterlimit="10" fill="#F2F2F2" fill-rule="evenodd"/><text font-family="Courier New,Courier New_MSFontService,sans-serif" font-weight="400" font-size="32" transform="matrix(1 0 0 1 1688.56 1068)">receiver.init</text><text font-family="Courier New,Courier New_MSFontService,sans-serif" font-weight="400" font-size="32" transform="matrix(1 0 0 1 1941.79 1068)">(</text><text font-family="Courier New,Courier New_MSFontService,sans-serif" font-weight="400" font-size="32" transform="matrix(1 0 0 1 1961.26 1068)">configEntries</text><text font-family="Courier New,Courier New_MSFontService,sans-serif" font-weight="400" font-size="32" transform="matrix(1 0 0 1 2214.49 1068)">);</text><path d="M1657.5 1162.33C1657.5 1152.48 1665.48 1144.5 1675.33 1144.5L2931.67 1144.5C2941.52 1144.5 2949.5 1152.48 2949.5 1162.33L2949.5 1511.67C2949.5 1521.52 2941.52 1529.5 2931.67 1529.5L1675.33 1529.5C1665.48 1529.5 1657.5 1521.52 1657.5 1511.67Z" stroke="#000000" stroke-width="4.58333" stroke-linecap="round" stroke-linejoin="round" stroke-miterlimit="10" fill="#F2F2F2" fill-rule="evenodd"/><text fill="#A02B93" font-family="Courier New,Courier New_MSFontService,sans-serif" font-weight="400" font-size="32" transform="matrix(1 0 0 1 1688.55 1211)">RxState</text><text font-family="Courier New,Courier New_MSFontService,sans-serif" font-weight="400" font-size="32" transform="matrix(1 0 0 1 1844.38 1211)">rx_state</text><text font-family="Courier New,Courier New_MSFontService,sans-serif" font-weight="400" font-size="32" transform="matrix(1 0 0 1 2000.22 1211)">;</text><text fill="#0070C0" font-family="Courier New,Courier New_MSFontService,sans-serif" font-weight="400" font-size="32" transform="matrix(1 0 0 1 1688.55 1250)">auto</text><text font-family="Courier New,Courier New_MSFontService,sans-serif" font-weight="400" font-size="32" transform="matrix(1 0 0 1 1785.95 1250)">ret = </text><text font-family="Courier New,Courier New_MSFontService,sans-serif" font-weight="400" font-size="32" transform="matrix(1 0 0 1 1902.82 1250)">receiver.update</text><text font-family="Courier New,Courier New_MSFontService,sans-serif" font-weight="400" font-size="32" transform="matrix(1 0 0 1 2195.01 1250)">(</text><text font-family="Courier New,Courier New_MSFontService,sans-serif" font-weight="400" font-size="32" transform="matrix(1 0 0 1 2214.49 1250)">adc_read</text><text font-family="Courier New,Courier New_MSFontService,sans-serif" font-weight="400" font-size="32" transform="matrix(1 0 0 1 2370.32 1250)">(), &amp;</text><text font-family="Courier New,Courier New_MSFontService,sans-serif" font-weight="400" font-size="32" transform="matrix(1 0 0 1 2467.72 1250)">rx_state</text><text font-family="Courier New,Courier New_MSFontService,sans-serif" font-weight="400" font-size="32" transform="matrix(1 0 0 1 2623.55 1250)">);</text><text fill="#0070C0" font-family="Courier New,Courier New_MSFontService,sans-serif" font-weight="400" font-size="32" transform="matrix(1 0 0 1 1688.55 1327)">if</text><text font-family="Courier New,Courier New_MSFontService,sans-serif" font-weight="400" font-size="32" transform="matrix(1 0 0 1 1746.99 1327)">(ret != </text><text fill="#A02B93" font-family="Courier New,Courier New_MSFontService,sans-serif" font-weight="400" font-size="32" transform="matrix(1 0 0 1 1902.82 1327)">RxResult</text><text font-family="Courier New,Courier New_MSFontService,sans-serif" font-weight="400" font-size="32" transform="matrix(1 0 0 1 2058.66 1327)">::SUCCESS || </text><text font-family="Courier New,Courier New_MSFontService,sans-serif" font-weight="400" font-size="32" transform="matrix(1 0 0 1 2311.88 1327)">rx_state</text><text font-family="Courier New,Courier New_MSFontService,sans-serif" font-weight="400" font-size="32" transform="matrix(1 0 0 1 2487.2 1327)">== </text><text fill="#A02B93" font-family="Courier New,Courier New_MSFontService,sans-serif" font-weight="400" font-size="32" transform="matrix(1 0 0 1 2545.63 1327)">RxState</text><text font-family="Courier New,Courier New_MSFontService,sans-serif" font-weight="400" font-size="32" transform="matrix(1 0 0 1 2681.99 1327)">::ERROR) {</text><text fill="#4EA72E" font-family="Courier New,Courier New_MSFontService,sans-serif" font-weight="400" font-size="32" transform="matrix(1 0 0 1 1727.51 1365)">// Retry or abort</text><text font-family="Courier New,Courier New_MSFontService,sans-serif" font-weight="400" font-size="32" transform="matrix(1 0 0 1 1688.55 1404)">} </text><text fill="#0070C0" font-family="Courier New,Courier New_MSFontService,sans-serif" font-weight="400" font-size="32" transform="matrix(1 0 0 1 1727.51 1404)">else if </text><text font-family="Courier New,Courier New_MSFontService,sans-serif" font-weight="400" font-size="32" transform="matrix(1 0 0 1 1883.34 1404)">(</text><text font-family="Courier New,Courier New_MSFontService,sans-serif" font-weight="400" font-size="32" transform="matrix(1 0 0 1 1902.82 1404)">rx_state</text><text font-family="Courier New,Courier New_MSFontService,sans-serif" font-weight="400" font-size="32" transform="matrix(1 0 0 1 2078.13 1404)">== </text><text fill="#A02B93" font-family="Courier New,Courier New_MSFontService,sans-serif" font-weight="400" font-size="32" transform="matrix(1 0 0 1 2136.57 1404)">RxState</text><text font-family="Courier New,Courier New_MSFontService,sans-serif" font-weight="400" font-size="32" transform="matrix(1 0 0 1 2272.93 1404)">::COMPLETED) {</text><text fill="#4EA72E" font-family="Courier New,Courier New_MSFontService,sans-serif" font-weight="400" font-size="32" transform="matrix(1 0 0 1 1727.51 1442)">// Process received data</text><text font-family="Courier New,Courier New_MSFontService,sans-serif" font-weight="400" font-size="32" transform="matrix(1 0 0 1 1688.55 1481)">}</text><path d="M1657.5 1764.73C1657.5 1756.32 1664.32 1749.5 1672.73 1749.5L2934.27 1749.5C2942.68 1749.5 2949.5 1756.32 2949.5 1764.73L2949.5 2017.27C2949.5 2025.68 2942.68 2032.5 2934.27 2032.5L1672.73 2032.5C1664.32 2032.5 1657.5 2025.68 1657.5 2017.27Z" stroke="#000000" stroke-width="4.58333" stroke-linecap="round" stroke-linejoin="round" stroke-miterlimit="10" fill="#F2F2F2" fill-rule="evenodd"/><text fill="#0070C0" font-family="Courier New,Courier New_MSFontService,sans-serif" font-weight="400" font-size="32" transform="matrix(1 0 0 1 1687.78 1803)">auto</text><text font-family="Courier New,Courier New_MSFontService,sans-serif" font-weight="400" font-size="32" transform="matrix(1 0 0 1 1785.18 1803)">es </text><text font-family="Courier New,Courier New_MSFontService,sans-serif" font-weight="400" font-size="32" transform="matrix(1 0 0 1 1843.62 1803)">= </text><text font-family="Courier New,Courier New_MSFontService,sans-serif" font-weight="400" font-size="32" transform="matrix(1 0 0 1 1882.57 1803)">receiver.entry_from_key</text><text font-family="Courier New,Courier New_MSFontService,sans-serif" font-weight="400" font-size="32" transform="matrix(1 0 0 1 2330.59 1803)">(KEY</text><text font-family="Courier New,Courier New_MSFontService,sans-serif" font-weight="400" font-size="32" transform="matrix(1 0 0 1 2408.51 1803)">_SSI</text><text font-family="Courier New,Courier New_MSFontService,sans-serif" font-weight="400" font-size="32" transform="matrix(1 0 0 1 2486.43 1803)">D</text><text font-family="Courier New,Courier New_MSFontService,sans-serif" font-weight="400" font-size="32" transform="matrix(1 0 0 1 2505.91 1803)">);</text><text fill="#0070C0" font-family="Courier New,Courier New_MSFontService,sans-serif" font-weight="400" font-size="32" transform="matrix(1 0 0 1 1687.78 1842)">auto</text><text font-family="Courier New,Courier New_MSFontService,sans-serif" font-weight="400" font-size="32" transform="matrix(1 0 0 1 1785.18 1842)">ep </text><text font-family="Courier New,Courier New_MSFontService,sans-serif" font-weight="400" font-size="32" transform="matrix(1 0 0 1 1843.62 1842)">= </text><text font-family="Courier New,Courier New_MSFontService,sans-serif" font-weight="400" font-size="32" transform="matrix(1 0 0 1 1882.57 1842)">receiver.entry_from_key</text><text font-family="Courier New,Courier New_MSFontService,sans-serif" font-weight="400" font-size="32" transform="matrix(1 0 0 1 2330.59 1842)">(KEY</text><text font-family="Courier New,Courier New_MSFontService,sans-serif" font-weight="400" font-size="32" transform="matrix(1 0 0 1 2408.51 1842)">_PAS</text><text font-family="Courier New,Courier New_MSFontService,sans-serif" font-weight="400" font-size="32" transform="matrix(1 0 0 1 2486.43 1842)">S</text><text font-family="Courier New,Courier New_MSFontService,sans-serif" font-weight="400" font-size="32" transform="matrix(1 0 0 1 2505.91 1842)">);</text><text fill="#0070C0" font-family="Courier New,Courier New_MSFontService,sans-serif" font-weight="400" font-size="32" transform="matrix(1 0 0 1 1687.78 1880)">if</text><text font-family="Courier New,Courier New_MSFontService,sans-serif" font-weight="400" font-size="32" transform="matrix(1 0 0 1 1746.22 1880)">(</text><text font-family="Courier New,Courier New_MSFontService,sans-serif" font-weight="400" font-size="32" transform="matrix(1 0 0 1 1765.7 1880)">es</text><text font-family="Courier New,Courier New_MSFontService,sans-serif" font-weight="400" font-size="32" transform="matrix(1 0 0 1 1804.66 1880)">-</text><text font-family="Courier New,Courier New_MSFontService,sans-serif" font-weight="400" font-size="32" transform="matrix(1 0 0 1 1824.14 1880)">&gt;</text><text font-family="Courier New,Courier New_MSFontService,sans-serif" font-weight="400" font-size="32" transform="matrix(1 0 0 1 1843.62 1880)">was_received</text><text font-family="Courier New,Courier New_MSFontService,sans-serif" font-weight="400" font-size="32" transform="matrix(1 0 0 1 2077.37 1880)">() &amp;&amp; ep</text><text font-family="Courier New,Courier New_MSFontService,sans-serif" font-weight="400" font-size="32" transform="matrix(1 0 0 1 2233.2 1880)">-</text><text font-family="Courier New,Courier New_MSFontService,sans-serif" font-weight="400" font-size="32" transform="matrix(1 0 0 1 2252.68 1880)">&gt;</text><text font-family="Courier New,Courier New_MSFontService,sans-serif" font-weight="400" font-size="32" transform="matrix(1 0 0 1 2272.16 1880)">was_received</text><text font-family="Courier New,Courier New_MSFontService,sans-serif" font-weight="400" font-size="32" transform="matrix(1 0 0 1 2505.91 1880)">()</text><text font-family="Courier New,Courier New_MSFontService,sans-serif" font-weight="400" font-size="32" transform="matrix(1 0 0 1 2544.87 1880)">) </text><text font-family="Courier New,Courier New_MSFontService,sans-serif" font-weight="400" font-size="32" transform="matrix(1 0 0 1 2583.82 1880)">{</text><text font-family="Courier New,Courier New_MSFontService,sans-serif" font-weight="400" font-size="32" transform="matrix(1 0 0 1 1726.74 1919)">printf</text><text font-family="Courier New,Courier New_MSFontService,sans-serif" font-weight="400" font-size="32" transform="matrix(1 0 0 1 1843.62 1919)">(</text><text fill="#74512A" font-family="Courier New,Courier New_MSFontService,sans-serif" font-weight="400" font-size="32" transform="matrix(1 0 0 1 1863.09 1919)">"</text><text fill="#74512A" font-family="Courier New,Courier New_MSFontService,sans-serif" font-weight="400" font-size="32" transform="matrix(1 0 0 1 1882.57 1919)">SSID: '%</text><text fill="#74512A" font-family="Courier New,Courier New_MSFontService,sans-serif" font-weight="400" font-size="32" transform="matrix(1 0 0 1 2038.41 1919)">s'</text><text fill="#74512A" font-family="Courier New,Courier New_MSFontService,sans-serif" font-weight="400" font-size="32" transform="matrix(1 0 0 1 2077.37 1919)">짜</text><text fill="#74512A" font-family="Courier New,Courier New_MSFontService,sans-serif" font-weight="400" font-size="32" transform="matrix(1 0 0 1 2096.84 1919)">r</text><text fill="#74512A" font-family="Courier New,Courier New_MSFontService,sans-serif" font-weight="400" font-size="32" transform="matrix(1 0 0 1 2116.32 1919)">짜</text><text fill="#74512A" font-family="Courier New,Courier New_MSFontService,sans-serif" font-weight="400" font-size="32" transform="matrix(1 0 0 1 2135.8 1919)">n"</text><text font-family="Courier New,Courier New_MSFontService,sans-serif" font-weight="400" font-size="32" transform="matrix(1 0 0 1 2174.76 1919)">, </text><text font-family="Courier New,Courier New_MSFontService,sans-serif" font-weight="400" font-size="32" transform="matrix(1 0 0 1 2213.72 1919)">ssi</text><text font-family="Courier New,Courier New_MSFontService,sans-serif" font-weight="400" font-size="32" transform="matrix(1 0 0 1 2272.16 1919)">d</text><text font-family="Courier New,Courier New_MSFontService,sans-serif" font-weight="400" font-size="32" transform="matrix(1 0 0 1 2291.64 1919)">);</text><text font-family="Courier New,Courier New_MSFontService,sans-serif" font-weight="400" font-size="32" transform="matrix(1 0 0 1 1726.74 1957)">printf</text><text font-family="Courier New,Courier New_MSFontService,sans-serif" font-weight="400" font-size="32" transform="matrix(1 0 0 1 1843.62 1957)">(</text><text fill="#74512A" font-family="Courier New,Courier New_MSFontService,sans-serif" font-weight="400" font-size="32" transform="matrix(1 0 0 1 1863.09 1957)">"</text><text fill="#74512A" font-family="Courier New,Courier New_MSFontService,sans-serif" font-weight="400" font-size="32" transform="matrix(1 0 0 1 1882.57 1957)">PASS: </text><text fill="#74512A" font-family="Courier New,Courier New_MSFontService,sans-serif" font-weight="400" font-size="32" transform="matrix(1 0 0 1 1999.45 1957)">'%s'</text><text fill="#74512A" font-family="Courier New,Courier New_MSFontService,sans-serif" font-weight="400" font-size="32" transform="matrix(1 0 0 1 2077.37 1957)">짜</text><text fill="#74512A" font-family="Courier New,Courier New_MSFontService,sans-serif" font-weight="400" font-size="32" transform="matrix(1 0 0 1 2096.84 1957)">r</text><text fill="#74512A" font-family="Courier New,Courier New_MSFontService,sans-serif" font-weight="400" font-size="32" transform="matrix(1 0 0 1 2116.32 1957)">짜</text><text fill="#74512A" font-family="Courier New,Courier New_MSFontService,sans-serif" font-weight="400" font-size="32" transform="matrix(1 0 0 1 2135.8 1957)">n"</text><text font-family="Courier New,Courier New_MSFontService,sans-serif" font-weight="400" font-size="32" transform="matrix(1 0 0 1 2174.76 1957)">, </text><text font-family="Courier New,Courier New_MSFontService,sans-serif" font-weight="400" font-size="32" transform="matrix(1 0 0 1 2213.72 1957)">pass);</text><text font-family="Courier New,Courier New_MSFontService,sans-serif" font-weight="400" font-size="32" transform="matrix(1 0 0 1 1687.78 1996)">}</text><path d="M1433.5 1891.5 1636.89 1891.5" stroke="#BFBFBF" stroke-width="4.58333" stroke-linecap="round" stroke-linejoin="round" stroke-miterlimit="10" fill="none" fill-rule="evenodd"/><path d="M1433.5 447.5 1640.33 447.5" stroke="#BFBFBF" stroke-width="4.58333" stroke-linecap="round" stroke-linejoin="round" stroke-miterlimit="10" fill="none" fill-rule="evenodd"/><path d="M1448.5 981.5C1465.07 981.5 1478.5 991.132 1478.5 1003.01L1478.5 1260.55C1478.5 1272.43 1491.93 1282.06 1508.5 1282.06 1491.93 1282.06 1478.5 1291.69 1478.5 1303.57L1478.5 1512.99C1478.5 1524.87 1465.07 1534.5 1448.5 1534.5" stroke="#BFBFBF" stroke-width="4.58333" stroke-linecap="round" stroke-linejoin="round" stroke-miterlimit="10" fill="none" fill-rule="evenodd"/><path d="M1510.5 1283.5 1633.1 1283.5" stroke="#BFBFBF" stroke-width="4.58333" stroke-linecap="round" stroke-linejoin="round" stroke-miterlimit="10" fill="none" fill-rule="evenodd"/><path d="M0 0 0 48.0001 430 48.0001" stroke="#000000" stroke-width="4.58333" stroke-linecap="round" stroke-linejoin="round" stroke-miterlimit="10" fill="none" fill-rule="evenodd" transform="matrix(-1 0 0 1 1208.5 1650.5)"/><path d="M2.29167 0 2.29167 770 0 767.708 407.083 767.708C408.349 767.708 409.375 768.734 409.375 770 409.375 771.266 408.349 772.292 407.083 772.292L0 772.292C-1.26565 772.292-2.29167 771.266-2.29167 770L-2.29167 0C-2.29167-1.26565-1.26565-2.29167 0-2.29167 1.26565-2.29167 2.29167-1.26565 2.29167 0ZM402.5 756.25 430 770 402.5 783.75Z" transform="matrix(1 0 0 -1 778.5 1697.5)"/><path d="M0.0524545 261.438 0.678436 249.792 1.8219 233.093 3.13427 216.823 4.61048 200.995 6.2451 185.624 8.03271 170.73 9.96791 156.328 12.0453 142.436 14.2596 129.072 16.6053 116.252 19.0774 103.994 21.6704 92.3151 24.3794 81.2317 27.1992 70.7608 30.1251 60.919 33.1523 51.7228 36.2766 43.1884 39.4942 35.3315 42.8018 28.1676 46.1975 21.7116 49.681 15.9782 53.2543 10.9815 56.9233 6.73675 60.6987 3.26161C60.7796 3.1876 60.8659 3.11931 60.9566 3.05763L64.5962 0.581252C64.7077 0.505402 64.8256 0.439558 64.9487 0.384446L68.6312-1.26475C68.7764-1.32977 68.928-1.3795 69.0835-1.41313L72.8033-2.21761C72.9741-2.25454 73.1483-2.27181 73.323-2.26913L77.0748-2.21138C77.249-2.2087 77.4223-2.18617 77.5914-2.14421L81.3696-1.20672C81.5231-1.16864 81.672-1.11487 81.8143-1.04612L85.6135 0.788642C85.7338 0.846731 85.8485 0.915091 85.9569 0.993196L89.7715 3.74274C89.8594 3.80614 89.9423 3.87526 90.0204 3.95043L93.8 7.58712 97.6724 12.2455 101.405 17.6855 105.011 23.8822 108.497 30.813 111.867 38.4561 115.122 46.7893 118.262 55.7899 121.284 65.4346 124.187 75.7 126.969 86.5621 129.625 97.9966 132.154 109.979 134.551 122.485 136.813 135.49 138.937 148.969 140.919 162.896 142.755 177.248 144.442 191.998 145.976 207.123 148.568 238.38 150.505 270.845 151.755 304.303 152.288 338.552 152.072 373.39 151.079 408.616 150.291 426.116 149.322 443.215 148.179 459.908 146.867 476.178 145.391 492.007 143.756 507.377 141.968 522.272 140.033 536.673 137.956 550.565 135.741 563.929 133.396 576.749 130.924 589.007 128.331 600.686 125.622 611.769 122.802 622.24 119.876 632.082 116.849 641.278 113.724 649.813 110.507 657.67 107.199 664.833 103.803 671.289 100.32 677.023 96.7468 682.02 93.0778 686.264 89.3023 689.739C89.2215 689.813 89.135 689.882 89.0445 689.943L85.4048 692.42C85.2933 692.496 85.1754 692.562 85.0523 692.617L81.3698 694.266C81.2246 694.331 81.0731 694.381 80.9176 694.414L77.1977 695.219C77.027 695.256 76.8526 695.273 76.678 695.27L72.9262 695.212C72.752 695.21 72.5787 695.187 72.4096 695.145L68.6314 694.208C68.478 694.17 68.329 694.116 68.1867 694.047L64.3876 692.212C64.2673 692.154 64.1524 692.086 64.0442 692.008L60.2296 689.258 57.4598 686.723 54.8018 683.834 52.2049 680.57 49.6645 676.937 44.7661 668.636 40.0323 658.88 35.4976 647.769 31.1645 635.351 27.04 621.673 23.1336 606.785 19.4561 590.738 16.0193 573.584 12.8352 555.375 9.91649 536.164 7.27582 516.003 4.92609 494.945 2.88028 473.045 1.15142 450.355C1.05528 449.093 2.00039 447.992 3.26239 447.896 4.52439 447.8 5.62537 448.745 5.72151 450.007L7.44375 472.619 9.48116 494.437 11.8204 515.407 14.4478 535.475 17.3501 554.586 20.5133 572.684 23.9237 589.715 27.567 605.622 31.4284 620.35 35.4923 633.842 39.7417 646.039 44.1573 656.882 48.7151 666.31 53.4231 674.314 55.7957 677.722 58.1806 680.737 60.5698 683.356 62.9096 685.54 66.7242 688.29 66.3808 688.085 70.1799 689.92 69.7352 689.759 73.5134 690.697 72.9968 690.63 76.7485 690.687 76.2289 690.739 79.9488 689.934 79.4965 690.083 83.179 688.434 82.8265 688.63 86.4662 686.154 86.2083 686.358 89.6155 683.261 93.0215 679.349 96.4046 674.641 99.748 669.154 103.039 662.911 106.266 655.932 109.421 648.237 112.495 639.845 115.483 630.776 118.376 621.048 121.169 610.681 123.856 599.692 126.431 588.101 128.887 575.924 131.22 563.18 133.423 549.887 135.491 536.063 137.418 521.725 139.198 506.892 140.827 491.581 142.298 475.809 143.607 459.595 144.746 442.956 145.712 425.91 146.498 408.487 147.489 373.362 147.705 338.623 147.175 304.474 145.93 271.118 144.001 238.759 141.416 207.585 139.889 192.519 138.209 177.829 136.382 163.542 134.41 149.682 132.298 136.275 130.05 123.348 127.669 110.925 125.161 99.0336 122.529 87.6988 119.777 76.947 116.91 66.8047 113.934 57.2987 110.852 48.4558 107.673 40.3037 104.402 32.8703 101.048 26.1839 97.6225 20.2733 94.1406 15.1668 90.6222 10.8899 86.8425 7.25319 87.0915 7.46087 83.2769 4.71132 83.6203 4.91588 79.8211 3.08112 80.2658 3.24172 76.4876 2.30423 77.0043 2.37141 73.2525 2.31367 73.7722 2.26215 70.0523 3.06664 70.5045 2.91826 66.822 4.56745 67.1745 4.37065 63.5349 6.84703 63.7927 6.64304 60.3856 9.74 56.9796 13.6516 53.5965 18.3606 50.2531 23.847 46.9625 30.09 43.7353 37.0693 40.5804 44.7646 37.5057 53.1564 34.5183 62.2255 31.6248 71.9529 28.8316 82.3201 26.1448 93.3087 23.5702 104.9 21.1138 117.077 18.7812 129.821 16.5782 143.114 14.5104 156.938 12.5834 171.276 10.8027 186.109 9.17401 201.42 7.70276 217.192 6.39452 233.406 5.25516 250.038 4.62918 261.684C4.56125 262.948 3.48164 263.917 2.21781 263.849 0.953985 263.781-0.0154791 262.702 0.0524545 261.438ZM16.2998 257.66 1.2126 284.45-11.1669 256.306Z" transform="matrix(-1 0 0 1 969.5 968.5)"/><path d="M1439.5 816.5 1482.33 816.5 1593.67 1066.5 1636.5 1066.5" stroke="#BFBFBF" stroke-width="4.58333" stroke-linecap="round" stroke-linejoin="round" stroke-miterlimit="10" fill="none" fill-rule="evenodd"/></g></svg>