<svg width="2538" height="1982" xmlns="http://www.w3.org/2000/svg" xmlns:xlink="http://www.w3.org/1999/xlink" xml:space="preserve" overflow="hidden"><defs><clipPath id="clip0"><rect x="622" y="193" width="2538" height="1982"/></clipPath></defs><g clip-path="url(#clip0)" transform="translate(-622 -193)"><rect x="622" y="193" width="2538" height="1982" fill="#FFFFFF"/><rect x="992.5" y="778.5" width="426" height="81.9998" stroke="#000000" stroke-width="4.58333" stroke-linecap="round" stroke-linejoin="round" stroke-miterlimit="10" fill="#FFFFFF"/><text font-family="Arial,Arial_MSFontService,sans-serif" font-weight="400" font-size="41" transform="matrix(1 0 0 1 1071.93 834)">Receiver::</text><text font-family="Arial,Arial_MSFontService,sans-serif" font-weight="400" font-size="41" transform="matrix(1 0 0 1 1257.55 834)">init</text><text font-family="Arial,Arial_MSFontService,sans-serif" font-weight="400" font-size="41" transform="matrix(1 0 0 1 1310.26 834)">()</text><rect x="992.5" y="555.5" width="426" height="82.9998" stroke="#000000" stroke-width="4.58333" stroke-linecap="round" stroke-linejoin="round" stroke-miterlimit="10" fill="#FFFFFF"/><text font-family="Arial,Arial_MSFontService,sans-serif" font-weight="400" font-size="41" transform="matrix(1 0 0 1 1101.72 612)">Setup ADC</text><rect x="992.5" y="997.5" width="426" height="135" stroke="#000000" stroke-width="4.58333" stroke-linecap="round" stroke-linejoin="round" stroke-miterlimit="10" fill="#FFFFFF"/><text font-family="Arial,Arial_MSFontService,sans-serif" font-weight="400" font-size="41" transform="matrix(1 0 0 1 1042.13 1055)">Read ADC Value,</text><text font-family="Arial,Arial_MSFontService,sans-serif" font-weight="400" font-size="41" transform="matrix(1 0 0 1 1035.26 1105)">Receiver::update()</text><rect x="992.5" y="390.5" width="426" height="115" stroke="#000000" stroke-width="4.58333" stroke-linecap="round" stroke-linejoin="round" stroke-miterlimit="10" fill="#FFFFFF"/><text font-family="Arial,Arial_MSFontService,sans-serif" font-weight="400" font-size="41" transform="matrix(1 0 0 1 1004.32 438)">Define Config Entries,</text><text font-family="Arial,Arial_MSFontService,sans-serif" font-weight="400" font-size="41" transform="matrix(1 0 0 1 1022.65 488)">Instantiate </text><text font-family="Arial,Arial_MSFontService,sans-serif" font-weight="400" font-size="41" transform="matrix(1 0 0 1 1224.32 488)">Receiver</text><rect x="992.5" y="1566.5" width="426" height="82.0001" stroke="#000000" stroke-width="4.58333" stroke-linecap="round" stroke-linejoin="round" stroke-miterlimit="10" fill="#FFFFFF"/><text font-family="Arial,Arial_MSFontService,sans-serif" font-weight="400" font-size="41" transform="matrix(1 0 0 1 1168.18 1622)">wait</text><path d="M1177 309.5C1177 294.312 1189.31 282 1204.5 282 1219.69 282 1232 294.312 1232 309.5 1232 324.688 1219.69 337 1204.5 337 1189.31 337 1177 324.688 1177 309.5Z" fill-rule="evenodd"/><path d="M1176 2025.5C1176 2010.31 1188.31 1998 1203.5 1998 1218.69 1998 1231 2010.31 1231 2025.5 1231 2040.69 1218.69 2053 1203.5 2053 1188.31 2053 1176 2040.69 1176 2025.5Z" fill-rule="evenodd"/><path d="M1207.79 863.5 1207.79 975.189C1207.79 976.455 1206.77 977.481 1205.5 977.481 1204.23 977.481 1203.21 976.455 1203.21 975.189L1203.21 863.5C1203.21 862.234 1204.23 861.208 1205.5 861.208 1206.77 861.208 1207.79 862.234 1207.79 863.5ZM1219.25 970.606 1205.5 998.106 1191.75 970.606Z"/><path d="M1207.79 1134.5 1207.79 1163.62C1207.79 1164.88 1206.77 1165.91 1205.5 1165.91 1204.23 1165.91 1203.21 1164.88 1203.21 1163.62L1203.21 1134.5C1203.21 1133.23 1204.23 1132.21 1205.5 1132.21 1206.77 1132.21 1207.79 1133.23 1207.79 1134.5ZM1219.25 1159.03 1205.5 1186.53 1191.75 1159.03Z"/><path d="M1024.5 1242 1205.5 1188.5 1386.5 1242 1205.5 1295.5Z" stroke="#000000" stroke-width="4.58333" stroke-linecap="round" stroke-linejoin="round" stroke-miterlimit="10" fill="#FFFFFF" fill-rule="evenodd"/><text font-family="Arial,Arial_MSFontService,sans-serif" font-weight="400" font-size="41" transform="matrix(1 0 0 1 1147.55 1257)">Error?</text><path d="M1024.5 1431 1205.5 1377.5 1386.5 1431 1205.5 1484.5Z" stroke="#000000" stroke-width="4.58333" stroke-linecap="round" stroke-linejoin="round" stroke-miterlimit="10" fill="#FFFFFF" fill-rule="evenodd"/><text font-family="Arial,Arial_MSFontService,sans-serif" font-weight="400" font-size="41" transform="matrix(1 0 0 1 1093.7 1446)">Completed?</text><path d="M1207.79 1295.5 1207.79 1354.45C1207.79 1355.72 1206.77 1356.74 1205.5 1356.74 1204.23 1356.74 1203.21 1355.72 1203.21 1354.45L1203.21 1295.5C1203.21 1294.23 1204.23 1293.21 1205.5 1293.21 1206.77 1293.21 1207.79 1294.23 1207.79 1295.5ZM1219.25 1349.87 1205.5 1377.37 1191.75 1349.87Z"/><path d="M1207.79 1484.5 1207.79 1543.45C1207.79 1544.72 1206.77 1545.74 1205.5 1545.74 1204.23 1545.74 1203.21 1544.72 1203.21 1543.45L1203.21 1484.5C1203.21 1483.23 1204.23 1482.21 1205.5 1482.21 1206.77 1482.21 1207.79 1483.23 1207.79 1484.5ZM1219.25 1538.87 1205.5 1566.37 1191.75 1538.87Z"/><rect x="992.5" y="1834.5" width="426" height="114" stroke="#000000" stroke-width="4.58333" stroke-linecap="round" stroke-linejoin="round" stroke-miterlimit="10" fill="#FFFFFF"/><text font-family="Arial,Arial_MSFontService,sans-serif" font-weight="400" font-size="41" transform="matrix(1 0 0 1 1130.36 1882)">Process</text><text font-family="Arial,Arial_MSFontService,sans-serif" font-weight="400" font-size="41" transform="matrix(1 0 0 1 1069.63 1932)">Received Data</text><text font-family="Arial,Arial_MSFontService,sans-serif" font-weight="400" font-size="41" transform="matrix(1 0 0 1 791.787 1109)">10ms</text><text font-family="Arial,Arial_MSFontService,sans-serif" font-weight="400" font-size="41" transform="matrix(1 0 0 1 774.599 1159)">Interval</text><text font-family="Arial,Arial_MSFontService,sans-serif" font-weight="400" font-size="41" transform="matrix(1 0 0 1 796.37 1208)">Loop</text><text font-family="Arial,Arial_MSFontService,sans-serif" font-weight="400" font-size="41" transform="matrix(1 0 0 1 1161.3 267)">Start</text><text font-family="Arial,Arial_MSFontService,sans-serif" font-weight="400" font-size="41" transform="matrix(1 0 0 1 1126.93 2106)">Finished</text><text font-family="Arial,Arial_MSFontService,sans-serif" font-weight="400" font-size="41" transform="matrix(1 0 0 1 1389.29 1290)">Yes</text><text font-family="Arial,Arial_MSFontService,sans-serif" font-weight="400" font-size="41" transform="matrix(1 0 0 1 1361.82 1340)">(Retry)</text><text font-family="Arial,Arial_MSFontService,sans-serif" font-weight="400" font-size="41" transform="matrix(1 0 0 1 1134.09 1333)">No</text><text font-family="Arial,Arial_MSFontService,sans-serif" font-weight="400" font-size="41" transform="matrix(1 0 0 1 1392.47 1485)">Yes</text><text font-family="Arial,Arial_MSFontService,sans-serif" font-weight="400" font-size="41" transform="matrix(1 0 0 1 1134.09 1522)">No</text><path d="M1207.79 505.5 1207.79 534.618C1207.79 535.884 1206.77 536.91 1205.5 536.91 1204.23 536.91 1203.21 535.884 1203.21 534.618L1203.21 505.5C1203.21 504.235 1204.23 503.208 1205.5 503.208 1206.77 503.208 1207.79 504.234 1207.79 505.5ZM1219.25 530.035 1205.5 557.535 1191.75 530.035Z"/><path d="M1207.79 338.5 1207.79 367.618C1207.79 368.884 1206.77 369.91 1205.5 369.91 1204.23 369.91 1203.21 368.884 1203.21 367.618L1203.21 338.5C1203.21 337.234 1204.23 336.208 1205.5 336.208 1206.77 336.208 1207.79 337.234 1207.79 338.5ZM1219.25 363.035 1205.5 390.535 1191.75 363.035Z"/><path d="M1207.79 641.5 1207.79 753.189C1207.79 754.455 1206.77 755.481 1205.5 755.481 1204.23 755.481 1203.21 754.455 1203.21 753.189L1203.21 641.5C1203.21 640.234 1204.23 639.208 1205.5 639.208 1206.77 639.208 1207.79 640.234 1207.79 641.5ZM1219.25 748.606 1205.5 776.106 1191.75 748.606Z"/><path d="M1206.79 1948.5 1206.79 1977.62C1206.79 1978.88 1205.77 1979.91 1204.5 1979.91 1203.23 1979.91 1202.21 1978.88 1202.21 1977.62L1202.21 1948.5C1202.21 1947.23 1203.23 1946.21 1204.5 1946.21 1205.77 1946.21 1206.79 1947.23 1206.79 1948.5ZM1218.25 1973.03 1204.5 2000.53 1190.75 1973.03Z"/><path d="M1521.5 1754.5 1521.5 1432.5 1390.5 1432.5" stroke="#000000" stroke-width="4.58333" stroke-linecap="round" stroke-linejoin="round" stroke-miterlimit="10" fill="none" fill-rule="evenodd"/><path d="M1387.5 1241.5 1521.19 1241.5" stroke="#000000" stroke-width="4.58333" stroke-linecap="round" stroke-linejoin="round" stroke-miterlimit="10" fill="none" fill-rule="evenodd"/><path d="M1520.21 1241.5 1520.21 704.5 1522.5 706.792 1232.42 706.792C1231.15 706.792 1230.13 705.766 1230.13 704.5 1230.13 703.234 1231.15 702.208 1232.42 702.208L1522.5 702.208C1523.77 702.208 1524.79 703.234 1524.79 704.5L1524.79 1241.5C1524.79 1242.77 1523.77 1243.79 1522.5 1243.79 1521.23 1243.79 1520.21 1242.77 1520.21 1241.5ZM1237 718.25 1209.5 704.5 1237 690.75Z"/><path d="M2.29167 22.9167 2.29167 79.0001 0 76.7084 312 76.7084C313.265 76.7084 314.291 77.7344 314.291 79.0001 314.291 80.2657 313.265 81.2917 312 81.2917L0 81.2917C-1.26565 81.2917-2.29167 80.2657-2.29167 79.0001L-2.29167 22.9167C-2.29167 21.651-1.26565 20.625 0 20.625 1.26565 20.625 2.29167 21.651 2.29167 22.9167ZM-13.75 27.5 0 0 13.75 27.5Z" transform="matrix(1 0 0 -1 1208.5 1834.5)"/><path d="M1751.5 300.44C1751.5 290.532 1759.53 282.5 1769.44 282.5L3082.56 282.5C3092.47 282.5 3100.5 290.532 3100.5 300.44L3100.5 950.56C3100.5 960.468 3092.47 968.5 3082.56 968.5L1769.44 968.5C1759.53 968.5 1751.5 960.468 1751.5 950.56Z" stroke="#000000" stroke-width="4.58333" stroke-linecap="round" stroke-linejoin="round" stroke-miterlimit="10" fill="#F2F2F2" fill-rule="evenodd"/><text fill="#4EA72E" font-family="Courier New,Courier New_MSFontService,sans-serif" font-weight="400" font-size="32" transform="matrix(1 0 0 1 1782.53 345)">// </text><text fill="#4EA72E" font-family="Courier New,Courier New_MSFontService,sans-serif" font-weight="400" font-size="32" transform="matrix(1 0 0 1 1840.97 345)">Config</text><text fill="#4EA72E" font-family="Courier New,Courier New_MSFontService,sans-serif" font-weight="400" font-size="32" transform="matrix(1 0 0 1 1977.32 345)">keys</text><text fill="#0070C0" font-family="Courier New,Courier New_MSFontService,sans-serif" font-weight="400" font-size="32" transform="matrix(1 0 0 1 1782.53 384)">const </text><text fill="#0070C0" font-family="Courier New,Courier New_MSFontService,sans-serif" font-weight="400" font-size="32" transform="matrix(1 0 0 1 1899.4 384)">char </text><text font-family="Courier New,Courier New_MSFontService,sans-serif" font-weight="400" font-size="32" transform="matrix(1 0 0 1 1996.8 384)">*KEY</text><text font-family="Courier New,Courier New_MSFontService,sans-serif" font-weight="400" font-size="32" transform="matrix(1 0 0 1 2074.72 384)">_SSID </text><text font-family="Courier New,Courier New_MSFontService,sans-serif" font-weight="400" font-size="32" transform="matrix(1 0 0 1 2191.59 384)">= </text><text fill="#74512A" font-family="Courier New,Courier New_MSFontService,sans-serif" font-weight="400" font-size="32" transform="matrix(1 0 0 1 2230.55 384)">"s"</text><text font-family="Courier New,Courier New_MSFontService,sans-serif" font-weight="400" font-size="32" transform="matrix(1 0 0 1 2288.99 384)">;</text><text fill="#0070C0" font-family="Courier New,Courier New_MSFontService,sans-serif" font-weight="400" font-size="32" transform="matrix(1 0 0 1 1782.53 422)">const char </text><text font-family="Courier New,Courier New_MSFontService,sans-serif" font-weight="400" font-size="32" transform="matrix(1 0 0 1 1996.8 422)">*KEY_PASS = </text><text fill="#74512A" font-family="Courier New,Courier New_MSFontService,sans-serif" font-weight="400" font-size="32" transform="matrix(1 0 0 1 2230.55 422)">"p</text><text fill="#74512A" font-family="Courier New,Courier New_MSFontService,sans-serif" font-weight="400" font-size="32" transform="matrix(1 0 0 1 2269.51 422)">"</text><text font-family="Courier New,Courier New_MSFontService,sans-serif" font-weight="400" font-size="32" transform="matrix(1 0 0 1 2288.99 422)">;</text><text fill="#4EA72E" font-family="Courier New,Courier New_MSFontService,sans-serif" font-weight="400" font-size="32" transform="matrix(1 0 0 1 1782.53 499)">// Config </text><text fill="#4EA72E" font-family="Courier New,Courier New_MSFontService,sans-serif" font-weight="400" font-size="32" transform="matrix(1 0 0 1 1977.32 499)">value buffer</text><text fill="#0070C0" font-family="Courier New,Courier New_MSFontService,sans-serif" font-weight="400" font-size="32" transform="matrix(1 0 0 1 1782.53 538)">char</text><text font-family="Courier New,Courier New_MSFontService,sans-serif" font-weight="400" font-size="32" transform="matrix(1 0 0 1 1879.92 538)">ssid</text><text font-family="Courier New,Courier New_MSFontService,sans-serif" font-weight="400" font-size="32" transform="matrix(1 0 0 1 1957.84 538)">[</text><text font-family="Courier New,Courier New_MSFontService,sans-serif" font-weight="400" font-size="32" transform="matrix(1 0 0 1 1977.32 538)">32 + 1];</text><text fill="#0070C0" font-family="Courier New,Courier New_MSFontService,sans-serif" font-weight="400" font-size="32" transform="matrix(1 0 0 1 1782.53 576)">char</text><text font-family="Courier New,Courier New_MSFontService,sans-serif" font-weight="400" font-size="32" transform="matrix(1 0 0 1 1879.92 576)">pass[</text><text font-family="Courier New,Courier New_MSFontService,sans-serif" font-weight="400" font-size="32" transform="matrix(1 0 0 1 1977.32 576)">32 + 1</text><text font-family="Courier New,Courier New_MSFontService,sans-serif" font-weight="400" font-size="32" transform="matrix(1 0 0 1 2094.2 576)">];</text><text fill="#4EA72E" font-family="Courier New,Courier New_MSFontService,sans-serif" font-weight="400" font-size="32" transform="matrix(1 0 0 1 1782.53 653)">// Config </text><text fill="#4EA72E" font-family="Courier New,Courier New_MSFontService,sans-serif" font-weight="400" font-size="32" transform="matrix(1 0 0 1 1977.32 653)">entry definitions</text><text fill="#A02B93" font-family="Courier New,Courier New_MSFontService,sans-serif" font-weight="400" font-size="32" transform="matrix(1 0 0 1 1782.53 692)">ConfigEntry</text><text font-family="Courier New,Courier New_MSFontService,sans-serif" font-weight="400" font-size="32" transform="matrix(1 0 0 1 2016.28 692)">configEntries</text><text font-family="Courier New,Courier New_MSFontService,sans-serif" font-weight="400" font-size="32" transform="matrix(1 0 0 1 2269.51 692)">[] = {</text><text font-family="Courier New,Courier New_MSFontService,sans-serif" font-weight="400" font-size="32" transform="matrix(1 0 0 1 1860.45 730)">{KEY</text><text font-family="Courier New,Courier New_MSFontService,sans-serif" font-weight="400" font-size="32" transform="matrix(1 0 0 1 1938.36 730)">_SSID, </text><text font-family="Courier New,Courier New_MSFontService,sans-serif" font-weight="400" font-size="32" transform="matrix(1 0 0 1 2074.72 730)">ssid</text><text font-family="Courier New,Courier New_MSFontService,sans-serif" font-weight="400" font-size="32" transform="matrix(1 0 0 1 2152.63 730)">, </text><text fill="#A02B93" font-family="Courier New,Courier New_MSFontService,sans-serif" font-weight="400" font-size="32" transform="matrix(1 0 0 1 2191.59 730)">ValueType</text><text font-family="Courier New,Courier New_MSFontService,sans-serif" font-weight="400" font-size="32" transform="matrix(1 0 0 1 2366.9 730)">::TEXT_STR, </text><text fill="#0070C0" font-family="Courier New,Courier New_MSFontService,sans-serif" font-weight="400" font-size="32" transform="matrix(1 0 0 1 2600.65 730)">sizeof</text><text font-family="Courier New,Courier New_MSFontService,sans-serif" font-weight="400" font-size="32" transform="matrix(1 0 0 1 2717.53 730)">(</text><text font-family="Courier New,Courier New_MSFontService,sans-serif" font-weight="400" font-size="32" transform="matrix(1 0 0 1 2737.01 730)">text)},</text><text font-family="Courier New,Courier New_MSFontService,sans-serif" font-weight="400" font-size="32" transform="matrix(1 0 0 1 1860.45 769)">{KEY_</text><text font-family="Courier New,Courier New_MSFontService,sans-serif" font-weight="400" font-size="32" transform="matrix(1 0 0 1 1957.84 769)">PASS</text><text font-family="Courier New,Courier New_MSFontService,sans-serif" font-weight="400" font-size="32" transform="matrix(1 0 0 1 2035.76 769)">, </text><text font-family="Courier New,Courier New_MSFontService,sans-serif" font-weight="400" font-size="32" transform="matrix(1 0 0 1 2074.72 769)">pass, </text><text fill="#A02B93" font-family="Courier New,Courier New_MSFontService,sans-serif" font-weight="400" font-size="32" transform="matrix(1 0 0 1 2191.59 769)">ValueType</text><text font-family="Courier New,Courier New_MSFontService,sans-serif" font-weight="400" font-size="32" transform="matrix(1 0 0 1 2366.9 769)">::TEXT_STR, </text><text fill="#0070C0" font-family="Courier New,Courier New_MSFontService,sans-serif" font-weight="400" font-size="32" transform="matrix(1 0 0 1 2600.65 769)">sizeof</text><text font-family="Courier New,Courier New_MSFontService,sans-serif" font-weight="400" font-size="32" transform="matrix(1 0 0 1 2717.53 769)">(</text><text font-family="Courier New,Courier New_MSFontService,sans-serif" font-weight="400" font-size="32" transform="matrix(1 0 0 1 2737.01 769)">pass)},</text><text font-family="Courier New,Courier New_MSFontService,sans-serif" font-weight="400" font-size="32" transform="matrix(1 0 0 1 1860.45 807)">{</text><text fill="#0070C0" font-family="Courier New,Courier New_MSFontService,sans-serif" font-weight="400" font-size="32" transform="matrix(1 0 0 1 1879.92 807)">nullptr</text><text font-family="Courier New,Courier New_MSFontService,sans-serif" font-weight="400" font-size="32" transform="matrix(1 0 0 1 2016.28 807)">, </text><text fill="#0070C0" font-family="Courier New,Courier New_MSFontService,sans-serif" font-weight="400" font-size="32" transform="matrix(1 0 0 1 2055.24 807)">nullptr</text><text font-family="Courier New,Courier New_MSFontService,sans-serif" font-weight="400" font-size="32" transform="matrix(1 0 0 1 2191.59 807)">, </text><text fill="#A02B93" font-family="Courier New,Courier New_MSFontService,sans-serif" font-weight="400" font-size="32" transform="matrix(1 0 0 1 2230.55 807)">ValueType</text><text font-family="Courier New,Courier New_MSFontService,sans-serif" font-weight="400" font-size="32" transform="matrix(1 0 0 1 2405.86 807)">::NONE, 0}, </text><text fill="#4EA72E" font-family="Courier New,Courier New_MSFontService,sans-serif" font-weight="400" font-size="32" transform="matrix(1 0 0 1 2639.61 807)">// </text><text fill="#4EA72E" font-family="Courier New,Courier New_MSFontService,sans-serif" font-weight="400" font-size="32" transform="matrix(1 0 0 1 2698.05 807)">terminator</text><text font-family="Courier New,Courier New_MSFontService,sans-serif" font-weight="400" font-size="32" transform="matrix(1 0 0 1 1782.53 846)">};</text><text fill="#A02B93" font-family="Courier New,Courier New_MSFontService,sans-serif" font-weight="400" font-size="32" transform="matrix(1 0 0 1 1782.53 923)">Receiver</text><text font-family="Courier New,Courier New_MSFontService,sans-serif" font-weight="400" font-size="32" transform="matrix(1 0 0 1 1957.84 923)">receiver(256);</text><path d="M1751.5 1030.48C1751.5 1020.55 1759.55 1012.5 1769.48 1012.5L3082.52 1012.5C3092.45 1012.5 3100.5 1020.55 3100.5 1030.48L3100.5 1089.52C3100.5 1099.45 3092.45 1107.5 3082.52 1107.5L1769.48 1107.5C1759.55 1107.5 1751.5 1099.45 1751.5 1089.52Z" stroke="#000000" stroke-width="4.58333" stroke-linecap="round" stroke-linejoin="round" stroke-miterlimit="10" fill="#F2F2F2" fill-rule="evenodd"/><text font-family="Courier New,Courier New_MSFontService,sans-serif" font-weight="400" font-size="32" transform="matrix(1 0 0 1 1782.51 1068)">receiver.init</text><text font-family="Courier New,Courier New_MSFontService,sans-serif" font-weight="400" font-size="32" transform="matrix(1 0 0 1 2035.74 1068)">(</text><text font-family="Courier New,Courier New_MSFontService,sans-serif" font-weight="400" font-size="32" transform="matrix(1 0 0 1 2055.22 1068)">configEntries</text><text font-family="Courier New,Courier New_MSFontService,sans-serif" font-weight="400" font-size="32" transform="matrix(1 0 0 1 2308.45 1068)">);</text><path d="M1751.5 1162.33C1751.5 1152.48 1759.48 1144.5 1769.33 1144.5L3082.67 1144.5C3092.52 1144.5 3100.5 1152.48 3100.5 1162.33L3100.5 1511.67C3100.5 1521.52 3092.52 1529.5 3082.67 1529.5L1769.33 1529.5C1759.48 1529.5 1751.5 1521.52 1751.5 1511.67Z" stroke="#000000" stroke-width="4.58333" stroke-linecap="round" stroke-linejoin="round" stroke-miterlimit="10" fill="#F2F2F2" fill-rule="evenodd"/><text fill="#A02B93" font-family="Courier New,Courier New_MSFontService,sans-serif" font-weight="400" font-size="32" transform="matrix(1 0 0 1 1782.51 1211)">RxState</text><text font-family="Courier New,Courier New_MSFontService,sans-serif" font-weight="400" font-size="32" transform="matrix(1 0 0 1 1938.34 1211)">rx_state</text><text font-family="Courier New,Courier New_MSFontService,sans-serif" font-weight="400" font-size="32" transform="matrix(1 0 0 1 2094.18 1211)">;</text><text fill="#0070C0" font-family="Courier New,Courier New_MSFontService,sans-serif" font-weight="400" font-size="32" transform="matrix(1 0 0 1 1782.51 1250)">auto</text><text font-family="Courier New,Courier New_MSFontService,sans-serif" font-weight="400" font-size="32" transform="matrix(1 0 0 1 1879.9 1250)">ret = </text><text font-family="Courier New,Courier New_MSFontService,sans-serif" font-weight="400" font-size="32" transform="matrix(1 0 0 1 1996.78 1250)">receiver.update</text><text font-family="Courier New,Courier New_MSFontService,sans-serif" font-weight="400" font-size="32" transform="matrix(1 0 0 1 2288.97 1250)">(</text><text font-family="Courier New,Courier New_MSFontService,sans-serif" font-weight="400" font-size="32" transform="matrix(1 0 0 1 2308.45 1250)">adc_read</text><text font-family="Courier New,Courier New_MSFontService,sans-serif" font-weight="400" font-size="32" transform="matrix(1 0 0 1 2464.28 1250)">(), &amp;</text><text font-family="Courier New,Courier New_MSFontService,sans-serif" font-weight="400" font-size="32" transform="matrix(1 0 0 1 2561.68 1250)">rx_state</text><text font-family="Courier New,Courier New_MSFontService,sans-serif" font-weight="400" font-size="32" transform="matrix(1 0 0 1 2717.51 1250)">);</text><text fill="#0070C0" font-family="Courier New,Courier New_MSFontService,sans-serif" font-weight="400" font-size="32" transform="matrix(1 0 0 1 1782.51 1327)">if</text><text font-family="Courier New,Courier New_MSFontService,sans-serif" font-weight="400" font-size="32" transform="matrix(1 0 0 1 1840.95 1327)">(ret != </text><text fill="#A02B93" font-family="Courier New,Courier New_MSFontService,sans-serif" font-weight="400" font-size="32" transform="matrix(1 0 0 1 1996.78 1327)">RxResult</text><text font-family="Courier New,Courier New_MSFontService,sans-serif" font-weight="400" font-size="32" transform="matrix(1 0 0 1 2152.61 1327)">::SUCCESS || </text><text font-family="Courier New,Courier New_MSFontService,sans-serif" font-weight="400" font-size="32" transform="matrix(1 0 0 1 2405.84 1327)">rx_state</text><text font-family="Courier New,Courier New_MSFontService,sans-serif" font-weight="400" font-size="32" transform="matrix(1 0 0 1 2581.16 1327)">== </text><text fill="#A02B93" font-family="Courier New,Courier New_MSFontService,sans-serif" font-weight="400" font-size="32" transform="matrix(1 0 0 1 2639.59 1327)">RxState</text><text font-family="Courier New,Courier New_MSFontService,sans-serif" font-weight="400" font-size="32" transform="matrix(1 0 0 1 2775.95 1327)">::ERROR) {</text><text fill="#4EA72E" font-family="Courier New,Courier New_MSFontService,sans-serif" font-weight="400" font-size="32" transform="matrix(1 0 0 1 1821.47 1365)">// Retry or abort</text><text font-family="Courier New,Courier New_MSFontService,sans-serif" font-weight="400" font-size="32" transform="matrix(1 0 0 1 1782.51 1404)">} </text><text fill="#0070C0" font-family="Courier New,Courier New_MSFontService,sans-serif" font-weight="400" font-size="32" transform="matrix(1 0 0 1 1821.47 1404)">else if </text><text font-family="Courier New,Courier New_MSFontService,sans-serif" font-weight="400" font-size="32" transform="matrix(1 0 0 1 1977.3 1404)">(</text><text font-family="Courier New,Courier New_MSFontService,sans-serif" font-weight="400" font-size="32" transform="matrix(1 0 0 1 1996.78 1404)">rx_state</text><text font-family="Courier New,Courier New_MSFontService,sans-serif" font-weight="400" font-size="32" transform="matrix(1 0 0 1 2172.09 1404)">== </text><text fill="#A02B93" font-family="Courier New,Courier New_MSFontService,sans-serif" font-weight="400" font-size="32" transform="matrix(1 0 0 1 2230.53 1404)">RxState</text><text font-family="Courier New,Courier New_MSFontService,sans-serif" font-weight="400" font-size="32" transform="matrix(1 0 0 1 2366.88 1404)">::COMPLETED) {</text><text fill="#4EA72E" font-family="Courier New,Courier New_MSFontService,sans-serif" font-weight="400" font-size="32" transform="matrix(1 0 0 1 1821.47 1442)">// Process received data</text><text font-family="Courier New,Courier New_MSFontService,sans-serif" font-weight="400" font-size="32" transform="matrix(1 0 0 1 1782.51 1481)">}</text><path d="M1751.5 1764.73C1751.5 1756.32 1758.32 1749.5 1766.73 1749.5L3085.27 1749.5C3093.68 1749.5 3100.5 1756.32 3100.5 1764.73L3100.5 2017.27C3100.5 2025.68 3093.68 2032.5 3085.27 2032.5L1766.73 2032.5C1758.32 2032.5 1751.5 2025.68 1751.5 2017.27Z" stroke="#000000" stroke-width="4.58333" stroke-linecap="round" stroke-linejoin="round" stroke-miterlimit="10" fill="#F2F2F2" fill-rule="evenodd"/><text fill="#0070C0" font-family="Courier New,Courier New_MSFontService,sans-serif" font-weight="400" font-size="32" transform="matrix(1 0 0 1 1781.74 1803)">auto</text><text font-family="Courier New,Courier New_MSFontService,sans-serif" font-weight="400" font-size="32" transform="matrix(1 0 0 1 1879.14 1803)">es </text><text font-family="Courier New,Courier New_MSFontService,sans-serif" font-weight="400" font-size="32" transform="matrix(1 0 0 1 1937.57 1803)">= </text><text font-family="Courier New,Courier New_MSFontService,sans-serif" font-weight="400" font-size="32" transform="matrix(1 0 0 1 1976.53 1803)">receiver.entry_from_key</text><text font-family="Courier New,Courier New_MSFontService,sans-serif" font-weight="400" font-size="32" transform="matrix(1 0 0 1 2424.55 1803)">(KEY</text><text font-family="Courier New,Courier New_MSFontService,sans-serif" font-weight="400" font-size="32" transform="matrix(1 0 0 1 2502.47 1803)">_SSI</text><text font-family="Courier New,Courier New_MSFontService,sans-serif" font-weight="400" font-size="32" transform="matrix(1 0 0 1 2580.39 1803)">D</text><text font-family="Courier New,Courier New_MSFontService,sans-serif" font-weight="400" font-size="32" transform="matrix(1 0 0 1 2599.86 1803)">);</text><text fill="#0070C0" font-family="Courier New,Courier New_MSFontService,sans-serif" font-weight="400" font-size="32" transform="matrix(1 0 0 1 1781.74 1842)">auto</text><text font-family="Courier New,Courier New_MSFontService,sans-serif" font-weight="400" font-size="32" transform="matrix(1 0 0 1 1879.14 1842)">ep </text><text font-family="Courier New,Courier New_MSFontService,sans-serif" font-weight="400" font-size="32" transform="matrix(1 0 0 1 1937.57 1842)">= </text><text font-family="Courier New,Courier New_MSFontService,sans-serif" font-weight="400" font-size="32" transform="matrix(1 0 0 1 1976.53 1842)">receiver.entry_from_key</text><text font-family="Courier New,Courier New_MSFontService,sans-serif" font-weight="400" font-size="32" transform="matrix(1 0 0 1 2424.55 1842)">(KEY</text><text font-family="Courier New,Courier New_MSFontService,sans-serif" font-weight="400" font-size="32" transform="matrix(1 0 0 1 2502.47 1842)">_PAS</text><text font-family="Courier New,Courier New_MSFontService,sans-serif" font-weight="400" font-size="32" transform="matrix(1 0 0 1 2580.39 1842)">S</text><text font-family="Courier New,Courier New_MSFontService,sans-serif" font-weight="400" font-size="32" transform="matrix(1 0 0 1 2599.86 1842)">);</text><text fill="#0070C0" font-family="Courier New,Courier New_MSFontService,sans-serif" font-weight="400" font-size="32" transform="matrix(1 0 0 1 1781.74 1880)">if</text><text font-family="Courier New,Courier New_MSFontService,sans-serif" font-weight="400" font-size="32" transform="matrix(1 0 0 1 1840.18 1880)">(</text><text font-family="Courier New,Courier New_MSFontService,sans-serif" font-weight="400" font-size="32" transform="matrix(1 0 0 1 1859.66 1880)">es</text><text font-family="Courier New,Courier New_MSFontService,sans-serif" font-weight="400" font-size="32" transform="matrix(1 0 0 1 1898.62 1880)">-</text><text font-family="Courier New,Courier New_MSFontService,sans-serif" font-weight="400" font-size="32" transform="matrix(1 0 0 1 1918.09 1880)">&gt;</text><text font-family="Courier New,Courier New_MSFontService,sans-serif" font-weight="400" font-size="32" transform="matrix(1 0 0 1 1937.57 1880)">was_received</text><text font-family="Courier New,Courier New_MSFontService,sans-serif" font-weight="400" font-size="32" transform="matrix(1 0 0 1 2171.32 1880)">() &amp;&amp; ep</text><text font-family="Courier New,Courier New_MSFontService,sans-serif" font-weight="400" font-size="32" transform="matrix(1 0 0 1 2327.16 1880)">-</text><text font-family="Courier New,Courier New_MSFontService,sans-serif" font-weight="400" font-size="32" transform="matrix(1 0 0 1 2346.64 1880)">&gt;</text><text font-family="Courier New,Courier New_MSFontService,sans-serif" font-weight="400" font-size="32" transform="matrix(1 0 0 1 2366.11 1880)">was_received</text><text font-family="Courier New,Courier New_MSFontService,sans-serif" font-weight="400" font-size="32" transform="matrix(1 0 0 1 2599.86 1880)">()</text><text font-family="Courier New,Courier New_MSFontService,sans-serif" font-weight="400" font-size="32" transform="matrix(1 0 0 1 2638.82 1880)">) </text><text font-family="Courier New,Courier New_MSFontService,sans-serif" font-weight="400" font-size="32" transform="matrix(1 0 0 1 2677.78 1880)">{</text><text font-family="Courier New,Courier New_MSFontService,sans-serif" font-weight="400" font-size="32" transform="matrix(1 0 0 1 1820.7 1919)">printf</text><text font-family="Courier New,Courier New_MSFontService,sans-serif" font-weight="400" font-size="32" transform="matrix(1 0 0 1 1937.57 1919)">(</text><text fill="#74512A" font-family="Courier New,Courier New_MSFontService,sans-serif" font-weight="400" font-size="32" transform="matrix(1 0 0 1 1957.05 1919)">"</text><text fill="#74512A" font-family="Courier New,Courier New_MSFontService,sans-serif" font-weight="400" font-size="32" transform="matrix(1 0 0 1 1976.53 1919)">SSID: '%</text><text fill="#74512A" font-family="Courier New,Courier New_MSFontService,sans-serif" font-weight="400" font-size="32" transform="matrix(1 0 0 1 2132.36 1919)">s'</text><text fill="#74512A" font-family="Courier New,Courier New_MSFontService,sans-serif" font-weight="400" font-size="32" transform="matrix(1 0 0 1 2171.32 1919)">짜</text><text fill="#74512A" font-family="Courier New,Courier New_MSFontService,sans-serif" font-weight="400" font-size="32" transform="matrix(1 0 0 1 2190.8 1919)">r</text><text fill="#74512A" font-family="Courier New,Courier New_MSFontService,sans-serif" font-weight="400" font-size="32" transform="matrix(1 0 0 1 2210.28 1919)">짜</text><text fill="#74512A" font-family="Courier New,Courier New_MSFontService,sans-serif" font-weight="400" font-size="32" transform="matrix(1 0 0 1 2229.76 1919)">n"</text><text font-family="Courier New,Courier New_MSFontService,sans-serif" font-weight="400" font-size="32" transform="matrix(1 0 0 1 2268.72 1919)">, </text><text font-family="Courier New,Courier New_MSFontService,sans-serif" font-weight="400" font-size="32" transform="matrix(1 0 0 1 2307.68 1919)">ssi</text><text font-family="Courier New,Courier New_MSFontService,sans-serif" font-weight="400" font-size="32" transform="matrix(1 0 0 1 2366.11 1919)">d</text><text font-family="Courier New,Courier New_MSFontService,sans-serif" font-weight="400" font-size="32" transform="matrix(1 0 0 1 2385.59 1919)">);</text><text font-family="Courier New,Courier New_MSFontService,sans-serif" font-weight="400" font-size="32" transform="matrix(1 0 0 1 1820.7 1957)">printf</text><text font-family="Courier New,Courier New_MSFontService,sans-serif" font-weight="400" font-size="32" transform="matrix(1 0 0 1 1937.57 1957)">(</text><text fill="#74512A" font-family="Courier New,Courier New_MSFontService,sans-serif" font-weight="400" font-size="32" transform="matrix(1 0 0 1 1957.05 1957)">"</text><text fill="#74512A" font-family="Courier New,Courier New_MSFontService,sans-serif" font-weight="400" font-size="32" transform="matrix(1 0 0 1 1976.53 1957)">PASS: </text><text fill="#74512A" font-family="Courier New,Courier New_MSFontService,sans-serif" font-weight="400" font-size="32" transform="matrix(1 0 0 1 2093.41 1957)">'%s'</text><text fill="#74512A" font-family="Courier New,Courier New_MSFontService,sans-serif" font-weight="400" font-size="32" transform="matrix(1 0 0 1 2171.32 1957)">짜</text><text fill="#74512A" font-family="Courier New,Courier New_MSFontService,sans-serif" font-weight="400" font-size="32" transform="matrix(1 0 0 1 2190.8 1957)">r</text><text fill="#74512A" font-family="Courier New,Courier New_MSFontService,sans-serif" font-weight="400" font-size="32" transform="matrix(1 0 0 1 2210.28 1957)">짜</text><text fill="#74512A" font-family="Courier New,Courier New_MSFontService,sans-serif" font-weight="400" font-size="32" transform="matrix(1 0 0 1 2229.76 1957)">n"</text><text font-family="Courier New,Courier New_MSFontService,sans-serif" font-weight="400" font-size="32" transform="matrix(1 0 0 1 2268.72 1957)">, </text><text font-family="Courier New,Courier New_MSFontService,sans-serif" font-weight="400" font-size="32" transform="matrix(1 0 0 1 2307.68 1957)">pass);</text><text font-family="Courier New,Courier New_MSFontService,sans-serif" font-weight="400" font-size="32" transform="matrix(1 0 0 1 1781.74 1996)">}</text><path d="M1433.5 1891.5 1721.68 1891.5" stroke="#BFBFBF" stroke-width="4.58333" stroke-linecap="round" stroke-linejoin="round" stroke-miterlimit="10" fill="none" fill-rule="evenodd"/><path d="M1433.5 447.5 1723.97 447.5" stroke="#BFBFBF" stroke-width="4.58333" stroke-linecap="round" stroke-linejoin="round" stroke-miterlimit="10" fill="none" fill-rule="evenodd"/><path d="M1565.5 997.5C1582.07 997.5 1595.5 1007.13 1595.5 1019.01L1595.5 1223.99C1595.5 1235.87 1608.93 1245.5 1625.5 1245.5 1608.93 1245.5 1595.5 1255.13 1595.5 1267.01L1595.5 1471.99C1595.5 1483.87 1582.07 1493.5 1565.5 1493.5" stroke="#BFBFBF" stroke-width="4.58333" stroke-linecap="round" stroke-linejoin="round" stroke-miterlimit="10" fill="none" fill-rule="evenodd"/><path d="M1627.5 1247.5 1723.75 1247.5" stroke="#BFBFBF" stroke-width="4.58333" stroke-linecap="round" stroke-linejoin="round" stroke-miterlimit="10" fill="none" fill-rule="evenodd"/><path d="M0 0 0 48.0001 518 48.0001" stroke="#000000" stroke-width="4.58333" stroke-linecap="round" stroke-linejoin="round" stroke-miterlimit="10" fill="none" fill-rule="evenodd" transform="matrix(-1 0 0 1 1208.5 1650.5)"/><path d="M2.29167 0 2.29167 770 0 767.708 495.083 767.708C496.349 767.708 497.375 768.734 497.375 770 497.375 771.266 496.349 772.292 495.083 772.292L0 772.292C-1.26565 772.292-2.29167 771.266-2.29167 770L-2.29167 0C-2.29167-1.26565-1.26565-2.29167 0-2.29167 1.26565-2.29167 2.29167-1.26565 2.29167 0ZM490.5 756.25 518 770 490.5 783.75Z" transform="matrix(1 0 0 -1 690.5 1697.5)"/><path d="M44.5175 55.6395 48.5683 46.59 53.1222 38.0417 57.7504 30.3577 62.4692 23.4864 67.2739 17.424 72.1609 12.1677 77.128 7.71598 82.1735 4.07021 87.295 1.23554 92.487-0.778232C92.5939-0.819237 92.704-0.852219 92.8159-0.876791L97.7366-1.95773C97.8551-1.98374 97.9759-2.00038 98.0969-2.00733L103.021-2.2901C103.144-2.29716 103.267-2.2943 103.39-2.28154L108.308-1.76931C108.427-1.75696 108.544-1.7353 108.66-1.70465L113.563-0.400545C113.67-0.372054 113.775-0.335675 113.877-0.291981L118.756 1.80084 123.87 4.81501 128.892 8.6234 133.821 13.2116 138.653 18.5698 143.387 24.6914 148.02 31.572 152.548 39.2087 156.965 47.5989 161.267 56.7404 165.446 66.6312 169.494 77.269 173.405 88.6515 177.169 100.776 180.779 113.641 184.227 127.244 187.465 141.411 190.454 155.954 195.686 186.023 199.94 217.252 203.219 249.376 205.532 282.15 206.888 315.332 207.293 348.678 206.755 381.944 205.283 414.886 202.882 447.261 199.561 478.825 195.326 509.335 192.865 524.139 190.18 538.57 187.27 552.615 184.135 566.245 180.777 579.431 177.194 592.141 173.388 604.345 169.359 616.015 165.158 626.99 160.839 637.137 156.41 646.458 151.878 654.959 147.25 662.643 142.531 669.514 137.726 675.577 132.839 680.833 127.872 685.285 122.827 688.931 117.705 691.765 112.513 693.779C112.406 693.82 112.296 693.853 112.184 693.878L107.263 694.959C107.145 694.985 107.024 695.001 106.903 695.008L101.979 695.291C101.856 695.298 101.733 695.295 101.61 695.282L96.6921 694.77C96.5734 694.758 96.4557 694.736 96.3404 694.706L91.4372 693.401C91.3301 693.373 91.2247 693.336 91.1229 693.293L86.2436 691.2 81.1304 688.186 76.1075 684.377 71.1791 679.789 66.347 674.431 61.6131 668.309 56.9802 661.429 52.4523 653.792 48.0345 645.402 43.733 636.26 39.5543 626.37 35.5058 615.732 31.5953 604.349 27.8308 592.224 24.2206 579.36 20.7731 565.757 15.5363 542.023 10.9693 517.201 7.0763 491.454 3.85745 464.928 1.313 437.769-0.556548 410.123-1.75057 382.136-2.26832 353.954-2.10895 325.725-1.27157 297.593 0.244825 269.705 2.44131 242.208 5.31905 215.248 8.87935 188.971 13.1237 163.523 18.0537 139.05C18.3037 137.809 19.5122 137.006 20.7529 137.256 21.9936 137.506 22.7967 138.714 22.5467 139.955L17.6445 164.277 13.4212 189.587 9.87648 215.735 7.01008 242.574 4.82139 269.954 3.30973 297.729 2.47431 325.751 2.31425 353.87 2.8286 381.941 4.01635 409.814 5.87637 437.341 8.40742 464.376 11.6082 490.769 15.477 516.372 20.0121 541.036 25.216 564.631 28.6336 578.121 32.2082 590.866 35.9302 602.861 39.7897 614.102 43.7766 624.587 47.8805 634.31 52.0907 643.268 56.3957 651.456 60.7835 658.871 65.2411 665.509 69.7543 671.366 74.3079 676.44 78.8855 680.732 83.4709 684.245 88.0503 686.988 92.9296 689.081 92.6153 688.972 97.5185 690.276 97.1669 690.211 102.085 690.724 101.716 690.715 106.64 690.432 106.28 690.482 111.201 689.401 110.872 689.5 115.497 687.749 120.15 685.21 124.818 681.867 129.486 677.709 134.136 672.727 138.754 666.918 143.324 660.277 147.834 652.802 152.27 644.491 156.622 635.341 160.878 625.351 165.027 614.518 169.013 602.98 172.783 590.897 176.335 578.299 179.669 565.218 182.782 551.685 185.674 537.731 188.344 523.388 190.787 508.705 195.003 478.345 198.312 446.922 200.704 414.681 202.173 381.87 202.71 348.733 202.308 315.519 200.96 282.473 198.659 249.841 195.398 217.87 191.17 186.808 185.965 156.877 182.997 142.432 179.784 128.369 176.366 114.879 172.792 102.135 169.07 90.1402 165.21 78.8986 161.223 68.4142 157.119 58.6909 152.909 49.733 148.604 41.5446 144.216 34.1297 139.759 27.4921 135.246 21.6352 130.692 16.5609 126.115 12.2689 121.529 8.75568 116.95 6.01306 112.07 3.92024 112.385 4.0288 107.481 2.7247 107.833 2.78936 102.915 2.27713 103.284 2.28569 98.3597 2.56847 98.72 2.51887 93.7992 3.59981 94.1281 3.50125 89.503 5.25197 84.8502 7.79069 80.1821 11.1335 75.5145 15.2919 70.8639 20.2734 66.2461 26.0829 61.6757 32.7239 57.1661 40.1989 52.7516 48.4625 48.7009 57.512C48.1838 58.6672 46.8281 59.1845 45.6729 58.6674 44.5177 58.1503 44.0005 56.7947 44.5175 55.6395ZM61.0649 57.6255 37.8067 77.7344 35.6745 47.0625Z" transform="matrix(-1 0 0 1 945.5 968.5)"/><path d="M1432.5 816.5 1567.83 816.5 1666.45 1059.5 1721.5 1059.5" stroke="#BFBFBF" stroke-width="4.58333" stroke-linecap="round" stroke-linejoin="round" stroke-miterlimit="10" fill="none" fill-rule="evenodd"/></g></svg>