<svg width="2368" height="984" xmlns="http://www.w3.org/2000/svg" xmlns:xlink="http://www.w3.org/1999/xlink" xml:space="preserve" overflow="hidden"><defs><clipPath id="clip0"><rect x="234" y="17" width="2368" height="984"/></clipPath></defs><g clip-path="url(#clip0)" transform="translate(-234 -17)"><rect x="234" y="16.9998" width="2368" height="984" fill="#FFFFFF"/><path d="M1166.5 528.208 1603.89 528.209 1603.89 532.792 1166.5 532.792ZM1166.5 544.25C1158.91 544.25 1152.75 538.094 1152.75 530.5 1152.75 522.906 1158.91 516.75 1166.5 516.75 1174.09 516.75 1180.25 522.906 1180.25 530.5 1180.25 538.094 1174.09 544.25 1166.5 544.25Z"/><path d="M1287.79 530.5 1287.79 890.292 1283.21 890.292 1283.21 530.5ZM1271.75 530.5C1271.75 522.906 1277.91 516.75 1285.5 516.75 1293.09 516.75 1299.25 522.906 1299.25 530.5 1299.25 538.094 1293.09 544.25 1285.5 544.25 1277.91 544.25 1271.75 538.094 1271.75 530.5Z"/><path d="M1311.5 888.5 1284 923.5 1256.5 888.5Z" stroke="#000000" stroke-width="4.58333" stroke-miterlimit="8" fill="#FFFFFF" fill-rule="evenodd"/><path d="M0 0 0.000360892 730.282" stroke="#000000" stroke-width="4.58333" stroke-miterlimit="8" fill="none" fill-rule="evenodd" transform="matrix(1 0 0 -1 1166.5 890.782)"/><path d="M1138.5 134.5 1166 98.5002 1193.5 134.5" stroke="#000000" stroke-width="4.58333" stroke-linecap="round" stroke-linejoin="round" stroke-miterlimit="10" fill="none" fill-rule="evenodd"/><path d="M1166.5 97.5001 1166.5 163.425" stroke="#000000" stroke-width="4.58333" stroke-linecap="round" stroke-linejoin="round" stroke-miterlimit="10" fill="none" fill-rule="evenodd"/><path d="M1192.5 888.5 1165 923.5 1137.5 888.5Z" stroke="#000000" stroke-width="4.58333" stroke-miterlimit="8" fill="#FFFFFF" fill-rule="evenodd"/><rect x="1534.5" y="267.5" width="304" height="542" stroke="#000000" stroke-width="4.58333" stroke-linecap="round" stroke-linejoin="round" stroke-miterlimit="10" fill="#F2F2F2"/><text font-family="Arial,Arial_MSFontService,sans-serif" font-weight="400" font-size="41" transform="matrix(1 0 0 1 1639.16 307)">MC</text><text font-family="Arial,Arial_MSFontService,sans-serif" font-weight="400" font-size="41" transform="matrix(1 0 0 1 1703.32 307)">U</text><text font-family="Arial,Arial_MSFontService,sans-serif" font-weight="400" font-size="41" transform="matrix(1 0 0 1 1554.05 542)">ADC Input</text><rect x="1096" y="322" width="94.0002" height="87" fill="#FFFFFF"/><path d="M0 0 0.000360892 91.121" stroke="#000000" stroke-width="9.16667" stroke-miterlimit="8" fill="none" fill-rule="evenodd" transform="matrix(1 0 0 -1 1096.5 409.621)"/><path d="M1099.78 362.598 1148.48 395.344 1145.92 399.147 1097.22 366.402ZM1151.07 383.278 1166.22 410.033 1135.72 406.098Z"/><path d="M0 0 67.715 45.5334" stroke="#000000" stroke-width="4.58333" stroke-miterlimit="8" fill="none" fill-rule="evenodd" transform="matrix(-1 0 0 1 1166.22 318.5)"/><path d="M1025.2 334.317 1056.03 344.14 1054.64 348.507 1023.8 338.684ZM1055.14 331.831 1077.17 353.28 1046.79 358.033Z"/><path d="M1025.2 364.316 1056.03 374.14 1054.64 378.507 1023.8 368.683ZM1055.14 361.831 1077.17 383.28 1046.79 388.033Z"/><rect x="1148.5" y="658.5" width="33" height="74.9999" stroke="#000000" stroke-width="4.58333" stroke-linecap="round" stroke-linejoin="round" stroke-miterlimit="10" fill="#FFFFFF"/><rect x="1252" y="679" width="66" height="34.0001" fill="#FFFFFF"/><path d="M1252.5 713.5 1318.52 713.5" stroke="#000000" stroke-width="4.58333" stroke-miterlimit="8" fill="none" fill-rule="evenodd"/><path d="M1252.5 679.5 1318.52 679.5" stroke="#000000" stroke-width="4.58333" stroke-miterlimit="8" fill="none" fill-rule="evenodd"/><text font-family="Arial,Arial_MSFontService,sans-serif" font-weight="400" font-size="41" transform="matrix(1 0 0 1 1388.74 685)">C1</text><text font-family="Arial,Arial_MSFontService,sans-serif" font-weight="400" font-size="41" transform="matrix(1 0 0 1 1332.32 735)">0.47</text><text font-family="Arial,Arial_MSFontService,sans-serif" font-weight="400" font-size="41" transform="matrix(1 0 0 1 1412.53 735)">-</text><text font-family="Arial,Arial_MSFontService,sans-serif" font-weight="400" font-size="41" transform="matrix(1 0 0 1 1426.28 735)">1μF</text><text font-family="Arial,Arial_MSFontService,sans-serif" font-weight="400" font-size="41" transform="matrix(1 0 0 1 1049.29 685)">R1</text><text font-family="Arial,Arial_MSFontService,sans-serif" font-weight="400" font-size="41" transform="matrix(1 0 0 1 1026.94 735)">10kΩ</text><text font-family="Arial,Arial_MSFontService,sans-serif" font-weight="400" font-size="41" transform="matrix(1 0 0 1 1021.52 228)">Q1</text><text font-family="Arial,Arial_MSFontService,sans-serif" font-weight="400" font-size="41" transform="matrix(1 0 0 1 955.063 278)">NJL7502L</text></g></svg>